<?xml version="1.0" standalone="no"?>
<!DOCTYPE svg PUBLIC "-//W3C//DTD SVG 20010904//EN"
 "http://www.w3.org/TR/2001/REC-SVG-20010904/DTD/svg10.dtd">
<svg version="1.0" xmlns="http://www.w3.org/2000/svg"
 width="24.000000pt" height="24.000000pt" viewBox="0 0 24.000000 24.000000"
 preserveAspectRatio="xMidYMid meet">

<g transform="translate(0.000000,24.000000) scale(0.004687,-0.004687)"
fill="#000000" stroke="none">
<path d="M805 4698 c-11 -6 -23 -16 -27 -22 -4 -6 -8 -118 -8 -248 l0 -238
-309 0 c-268 0 -312 -2 -325 -16 -14 -13 -16 -55 -16 -309 0 -292 0 -294 22
-309 19 -14 67 -16 325 -16 l303 0 0 -110 0 -110 -161 0 c-91 0 -169 -4 -180
-10 -18 -10 -19 -24 -19 -309 0 -276 1 -299 18 -314 16 -14 44 -17 180 -17
l162 0 0 -1107 c0 -610 4 -1113 8 -1119 27 -42 95 -35 112 11 6 17 10 429 10
1121 l0 1094 465 0 465 0 0 -110 0 -110 -153 0 c-116 0 -158 -3 -173 -14 -18
-14 -19 -29 -19 -304 0 -271 1 -291 19 -311 18 -20 29 -21 173 -21 l153 0 0
-659 c0 -408 4 -670 10 -686 17 -46 85 -53 112 -11 4 6 8 314 8 684 l0 672
470 0 470 0 0 -110 0 -110 -131 0 c-72 0 -139 -5 -150 -10 -18 -10 -19 -24
-19 -309 0 -276 1 -299 18 -314 15 -14 42 -17 150 -17 l132 0 0 -238 c0 -263
3 -275 58 -275 62 0 62 1 62 269 l0 244 470 0 470 0 0 -234 c0 -211 2 -236 18
-256 22 -27 65 -29 92 -5 19 17 20 32 20 257 l0 238 438 0 c413 0 440 1 455
18 15 16 17 53 17 310 0 251 -2 293 -16 306 -14 14 -69 16 -455 16 l-439 0 0
110 0 110 133 0 c117 0 136 2 150 18 15 16 17 53 17 309 0 268 -1 291 -18 306
-15 14 -42 17 -150 17 l-132 0 0 1109 0 1110 -27 20 c-30 24 -58 20 -85 -11
-17 -19 -18 -87 -18 -1124 l0 -1104 -470 0 -470 0 0 1114 c0 1229 5 1139 -62
1139 -61 0 -58 66 -58 -1145 l0 -1108 -470 0 -470 0 0 110 0 110 148 0 c132 0
151 2 165 18 15 16 17 53 17 315 0 283 -1 297 -19 307 -11 5 -84 10 -165 10
l-146 0 0 673 c0 369 -4 677 -8 683 -27 42 -95 35 -112 -11 -6 -16 -10 -278
-10 -686 l0 -659 -465 0 -465 0 0 110 0 110 275 0 c262 0 276 1 295 20 19 19
20 33 20 303 0 240 -2 286 -16 305 -15 22 -17 22 -294 22 l-279 0 -3 240 c-2
197 -6 242 -18 254 -22 21 -52 27 -75 14z m565 -833 l0 -205 -565 0 -565 0 0
205 0 205 565 0 565 0 0 -205z m2900 -1740 l0 -205 -1330 0 -1330 0 0 205 0
205 1330 0 1330 0 0 -205z m-310 -435 l0 -110 -470 0 -470 0 0 110 0 110 470
0 470 0 0 -110z m920 -435 l0 -205 -1080 0 -1080 0 0 205 0 205 1080 0 1080 0
0 -205z"/>
</g>
</svg>
