<?xml version="1.0" encoding="utf-8"?>
<svg id="svg" version="1.1" width="400" height="400" viewBox="0, 0, 400,400" xmlns="http://www.w3.org/2000/svg">
  <g id="svgg">
    <path id="path4" d="M 38.08 119.28 C 37.414 119.946 37.414 130.054 38.08 130.72 C 38.42 131.06 40.371 131.174 44.78 131.112 L 51 131.023 L 45.028 130.9 C 41.473 130.827 38.842 130.6 38.528 130.34 C 37.818 129.751 37.776 120.384 38.48 119.68 C 39.009 119.151 322.749 118.954 348.335 119.465 L 361.6 119.729 L 361.6 125.065 C 361.6 127.999 361.555 130.435 361.5 130.477 C 361.445 130.519 296.69 130.659 217.6 130.788 L 73.8 131.023 L 208.2 131.057 C 282.12 131.076 346.92 130.981 352.2 130.846 L 361.8 130.6 L 361.8 125 L 361.8 119.4 L 352.2 119.154 C 332.472 118.649 38.593 118.767 38.08 119.28 M 52.543 131.959 C 55.892 134.167 56.037 138.306 52.866 141.159 C 51.823 142.097 51.822 142.105 52.8 141.517 C 56.662 139.196 55.836 131.171 51.738 131.203 C 51.552 131.204 51.915 131.545 52.543 131.959 M 71.494 132.051 C 70.885 132.504 70.198 133.264 69.967 133.738 C 69.571 134.549 69.59 134.546 70.286 133.685 C 70.693 133.182 71.56 132.418 72.213 131.988 C 72.866 131.557 73.22 131.21 73 131.215 C 72.78 131.221 72.102 131.597 71.494 132.051 M 70.767 140.545 C 71.3 141.201 72.8 142.193 72.8 141.889 C 72.8 141.813 72.215 141.322 71.5 140.799 C 70.696 140.21 70.416 140.113 70.767 140.545 M 11.867 142.267 C 11.72 142.413 11.603 142.728 11.606 142.967 C 11.61 143.227 11.738 143.201 11.927 142.904 C 12.17 142.522 16.772 142.383 31.821 142.3 L 51.4 142.192 L 31.767 142.096 C 20.968 142.043 12.013 142.12 11.867 142.267 M 230.4 142.389 C 320.938 142.511 387.634 142.751 387.952 142.956 C 388.341 143.207 388.449 143.148 388.319 142.756 C 388.161 142.283 364.707 142.198 230.767 142.189 L 73.4 142.179 L 230.4 142.389 M 113.1 169.5 C 120.635 169.561 132.965 169.561 140.5 169.5 C 148.035 169.439 141.87 169.389 126.8 169.389 C 111.73 169.389 105.565 169.439 113.1 169.5 M 185.5 169.5 C 193.035 169.561 205.365 169.561 212.9 169.5 C 220.435 169.439 214.27 169.389 199.2 169.389 C 184.13 169.389 177.965 169.439 185.5 169.5 M 257.9 169.5 C 265.435 169.561 277.765 169.561 285.3 169.5 C 292.835 169.439 286.67 169.389 271.6 169.389 C 256.53 169.389 250.365 169.439 257.9 169.5 M 330.929 169.5 C 338.59 169.561 351.01 169.561 358.529 169.5 C 366.048 169.439 359.78 169.389 344.6 169.389 C 329.42 169.389 323.268 169.439 330.929 169.5 M 96.95 170.309 C 96.483 170.689 95.794 171.54 95.42 172.2 C 94.746 173.388 94.747 173.39 95.47 172.423 C 96.248 171.381 96.539 171.103 97.8 170.199 C 98.24 169.884 98.42 169.624 98.2 169.622 C 97.98 169.62 97.418 169.929 96.95 170.309 M 156.246 170.491 C 156.881 170.98 157.635 171.655 157.922 171.991 C 158.366 172.508 158.383 172.473 158.038 171.757 C 157.815 171.293 157.182 170.618 156.63 170.257 C 155.165 169.296 154.904 169.455 156.246 170.491 M 169.287 170.7 C 168.33 171.635 168.314 171.681 169.181 171.006 C 170.888 169.676 170.969 169.6 170.686 169.6 C 170.536 169.6 169.906 170.095 169.287 170.7 M 227.633 169.73 C 227.725 169.801 228.43 170.266 229.2 170.763 L 230.6 171.666 L 229.4 170.635 C 228.74 170.068 228.035 169.603 227.833 169.602 C 227.632 169.601 227.542 169.658 227.633 169.73 M 373.916 170.609 C 374.639 171.199 375.48 172.249 375.783 172.941 C 376.098 173.659 376.349 173.913 376.367 173.531 C 376.407 172.716 374.634 170.54 373.457 169.959 C 372.986 169.726 373.192 170.018 373.916 170.609 M 30.141 170.797 C 29.668 170.988 29.139 171.382 28.964 171.672 C 28.715 172.086 28.77 172.1 29.223 171.736 C 29.54 171.481 30.43 171.092 31.2 170.872 C 31.97 170.652 32.24 170.467 31.8 170.461 C 31.36 170.456 30.613 170.607 30.141 170.797 M 76.433 170.544 C 76.525 170.623 77.14 170.808 77.8 170.956 C 78.676 171.152 78.838 171.115 78.4 170.818 C 77.86 170.453 76.032 170.198 76.433 170.544 M 302.552 171.767 L 303.6 173.312 L 303.6 192.876 C 303.6 214.419 303.655 213.918 301.115 215.545 C 300.392 216.008 299.952 216.39 300.138 216.393 C 300.324 216.397 301.002 216.026 301.644 215.568 C 304.041 213.862 304 214.258 304 193 C 304 172.501 303.982 172.279 302.178 170.782 C 301.807 170.474 301.975 170.917 302.552 171.767 M 313.299 171.3 C 312.837 171.795 312.355 172.74 312.227 173.4 L 311.995 174.6 L 312.449 173.4 C 312.698 172.74 313.27 171.795 313.721 171.3 C 314.171 170.805 314.449 170.4 314.339 170.4 C 314.229 170.4 313.761 170.805 313.299 171.3 M 158.6 193 C 158.6 204.136 158.717 212.832 158.86 212.324 C 159.003 211.816 159.12 203.12 159.12 193 C 159.12 182.88 159.003 174.184 158.86 173.676 C 158.717 173.168 158.6 181.864 158.6 193 M 239.45 174.45 C 239.121 176.097 239.204 210.73 239.54 211.924 C 239.683 212.432 239.8 203.927 239.8 193.024 C 239.8 182.121 239.778 173.2 239.75 173.2 C 239.722 173.2 239.588 173.763 239.45 174.45 M 94.585 193 C 94.585 203.56 94.637 207.823 94.7 202.472 C 94.763 197.122 94.763 188.482 94.7 183.272 C 94.636 178.063 94.585 182.44 94.585 193 M 231.385 193 C 231.385 203.56 231.437 207.823 231.5 202.472 C 231.563 197.122 231.563 188.482 231.5 183.272 C 231.436 178.063 231.385 182.44 231.385 193 M 376.584 193 C 376.584 203.12 376.636 207.203 376.7 202.073 C 376.763 196.942 376.763 188.662 376.7 183.673 C 376.636 178.683 376.584 182.88 376.584 193 M 166.984 193 C 166.984 202.9 167.036 206.893 167.1 201.873 C 167.163 196.853 167.163 188.753 167.1 183.873 C 167.036 178.993 166.984 183.1 166.984 193 M 311.784 193 C 311.784 202.9 311.836 206.893 311.9 201.873 C 311.963 196.853 311.963 188.753 311.9 183.873 C 311.836 178.993 311.784 183.1 311.784 193 M 26.804 177.8 C 26.805 178.02 27.163 178.74 27.6 179.4 C 28.636 180.964 28.637 180.408 27.601 178.71 C 27.162 177.989 26.804 177.58 26.804 177.8 M 81.094 178.903 L 80.388 180.2 L 81.194 179.256 C 81.88 178.452 82.246 177.594 81.9 177.603 C 81.845 177.604 81.482 178.189 81.094 178.903 M 106.243 178.654 C 106.109 179.002 102.48 185.133 102.48 191.147 C 102.48 204.26 102.429 207.608 105.814 207.608 C 111.383 207.608 114.826 207.446 115.103 214.483 L 115.118 220.112 L 125.629 222.263 C 137.973 222.411 139.867 221.332 140.038 215.314 C 140.231 208.511 142.043 210.019 147.217 210.018 C 151.058 210.017 153.158 206.447 153.158 193.185 C 153.158 182.872 149.562 179.59 149.005 179.376 C 147.365 178.747 103.897 178.377 103.649 179.025 M 177.128 179.452 C 177.022 179.73 177.168 188.695 177.227 195.072 L 177.518 206.667 L 179.592 209.113 C 185.387 209.541 183.611 209.284 183.632 217.174 L 187.903 220.881 L 198.188 222.257 L 210.882 219.926 C 211.923 219.926 223.462 214.94 214.793 214.94 C 215.092 207.939 216.428 209.461 221.463 209.461 C 225.311 209.461 222.779 203.485 222.779 190.221 C 222.779 179.908 221.221 177.552 220.664 177.338 C 219.305 176.816 178.073 177.994 177.869 178.526 M 248.505 177.941 C 248.149 178.297 249.133 184.018 249.133 192.325 C 249.133 205.342 248 208.125 252.716 208.447 C 257.637 208.783 259.493 208.325 259.883 215.512 L 261.059 220.853 L 272.912 221.594 L 284.208 220.297 L 289.596 214.941 C 289.894 207.785 286.901 209.733 292.512 209.315 L 299.24 204.259 L 297.573 189.85 L 294.053 177.665 L 271.984 176.45 C 256.593 176.371 247.576 177.758 247.208 178.126 M 318.877 192.711 L 318.057 206.853 L 325.526 208.389 C 331.071 208.802 330.821 207.189 330.821 213.93 C 330.821 219.871 332.319 220.719 344.079 220.589 L 357.535 220.667 L 357.582 214.756 C 357.932 207.487 357.437 208.251 363.045 207.834 L 367.194 207.779 L 368.491 193 L 367.008 178.592 L 346.132 178.302 L 322.106 177.829 L 320.915 193.081 M 30.715 181.672 C 31.092 181.821 41.75 181.944 54.4 181.944 C 67.05 181.944 77.708 181.821 78.085 181.672 C 78.462 181.522 67.804 181.4 54.401 181.4 C 40.997 181.4 30.339 181.522 30.715 181.672 M 31.6 186.4 C 31.05 186.576 41.31 186.72 54.4 186.72 C 67.49 186.72 77.75 186.576 77.2 186.4 C 76.65 186.224 66.39 186.08 54.4 186.08 C 42.41 186.08 32.15 186.224 31.6 186.4 M 26.812 193.894 C 26.805 194.165 27.295 194.894 27.9 195.513 C 28.505 196.132 28.71 196.27 28.355 195.819 C 28 195.369 27.51 194.64 27.267 194.2 C 27.023 193.76 26.819 193.622 26.812 193.894 M 43.3 197.9 C 49.405 197.962 59.395 197.962 65.5 197.9 C 71.605 197.838 66.61 197.787 54.4 197.787 C 42.19 197.787 37.195 197.838 43.3 197.9 M 27.836 204.431 C 27.266 205.108 26.805 205.873 26.812 206.131 C 26.819 206.389 27.023 206.24 27.267 205.8 C 27.51 205.36 28.076 204.595 28.524 204.1 C 28.973 203.605 29.234 203.2 29.105 203.2 C 28.976 203.2 28.405 203.754 27.836 204.431 M 312.222 212.6 C 312.347 213.26 312.928 214.25 313.513 214.8 L 314.577 215.8 L 313.74 214.8 C 313.279 214.25 312.698 213.26 312.449 212.6 L 311.995 211.4 L 312.222 212.6 M 375.762 213.008 C 375.623 213.563 374.855 214.572 374.055 215.25 C 373.255 215.928 372.96 216.301 373.4 216.078 C 374.884 215.327 377.197 212 376.235 212 C 376.114 212 375.901 212.454 375.762 213.008 M 95.454 213.984 C 96.115 215.102 97.925 216.671 98.162 216.332 C 98.212 216.259 97.458 215.42 96.485 214.467 C 94.893 212.908 94.79 212.86 95.454 213.984 M 31.515 213.672 C 31.892 213.821 42.19 213.944 54.4 213.944 C 66.61 213.944 76.908 213.821 77.285 213.672 C 77.661 213.522 67.363 213.4 54.399 213.4 C 41.436 213.4 31.138 213.522 31.515 213.672 M 240 213.53 C 240 213.712 240.479 214.297 241.063 214.83 L 242.127 215.8 L 241.188 214.5 C 240.212 213.148 240 212.975 240 213.53 M 168.598 214.737 C 169.034 215.252 169.753 215.859 170.196 216.086 C 171.045 216.521 170.921 216.387 169.003 214.794 C 167.848 213.835 167.834 213.833 168.598 214.737 M 228.811 215.42 C 228.047 215.959 227.597 216.399 227.811 216.398 C 228.025 216.397 228.74 215.953 229.4 215.412 C 230.941 214.149 230.605 214.153 228.811 215.42 M 100.2 216.638 C 102.1 216.943 104.8 216.981 104.8 216.703 C 104.8 216.536 103.585 216.425 102.1 216.454 C 100.615 216.484 99.76 216.567 100.2 216.638 M 148.667 216.667 C 148.52 216.813 148.436 218.928 148.479 221.367 L 148.558 225.8 L 148.779 221.4 L 149 217 L 151.6 216.769 L 154.2 216.538 L 151.567 216.469 C 150.118 216.431 148.813 216.52 148.667 216.667 M 174.687 216.685 L 177.175 216.838 L 177.307 221.319 L 177.438 225.8 L 177.419 221.2 L 177.4 216.6 L 174.8 216.566 L 172.2 216.533 L 174.687 216.685 M 221.043 217.033 C 220.909 217.381 220.836 219.766 220.881 222.333 L 220.962 227 L 221.181 222 L 221.4 217 L 224 216.769 L 226.6 216.538 L 223.943 216.469 C 221.845 216.415 221.234 216.533 221.043 217.033 M 247 216.756 L 249.4 217 L 249.63 221 L 249.86 225 L 249.83 220.8 L 249.8 216.6 L 247.2 216.556 L 244.6 216.513 L 247 216.756 M 293.6 216.703 C 293.6 216.869 294.455 216.952 295.5 216.886 C 298.787 216.679 299.098 216.511 296.3 216.454 C 294.815 216.425 293.6 216.536 293.6 216.703 M 319.5 216.696 L 322 216.838 L 322.028 221.119 C 322.044 223.474 322.191 225.745 322.356 226.166 C 322.656 226.931 322.489 217.845 322.186 216.9 C 322.076 216.559 321.227 216.424 319.513 216.477 L 317 216.554 L 319.5 216.696 M 366.215 216.9 C 365.909 217.858 365.736 226.553 366.039 225.78 C 366.206 225.351 366.356 223.163 366.372 220.918 L 366.4 216.837 L 369.1 216.697 L 371.8 216.557 L 369.087 216.478 C 367.211 216.424 366.326 216.554 366.215 216.9 M 31.115 218.328 C 30.738 218.478 41.216 218.6 54.4 218.6 C 67.584 218.6 78.062 218.478 77.685 218.328 C 77.308 218.179 66.83 218.056 54.4 218.056 C 41.97 218.056 31.492 218.179 31.115 218.328 M 78.833 218.9 C 78.925 218.955 79.54 219.45 80.2 220 L 81.4 221 L 80.43 219.9 C 79.897 219.295 79.282 218.8 79.064 218.8 C 78.845 218.8 78.742 218.845 78.833 218.9 M 27.355 221.012 C 26.99 221.569 26.764 222.098 26.853 222.187 C 26.942 222.276 27.318 221.82 27.689 221.174 C 28.514 219.736 28.269 219.617 27.355 221.012 M 104.812 225.6 C 104.812 225.93 104.987 226.47 105.2 226.8 C 105.545 227.333 105.588 227.333 105.588 226.8 C 105.588 226.47 105.413 225.93 105.2 225.6 C 104.855 225.067 104.812 225.067 104.812 225.6 M 11 226.4 C 10.85 226.873 10.817 227.35 10.927 227.46 C 11.037 227.57 11.25 227.273 11.4 226.8 C 11.55 226.327 11.583 225.85 11.473 225.74 C 11.363 225.63 11.15 225.927 11 226.4 M 250.03 226.4 C 250.028 226.976 251.157 229.266 251.186 228.746 C 251.194 228.606 250.937 227.886 250.616 227.146 C 250.294 226.406 250.031 226.07 250.03 226.4 M 177.612 226.6 C 177.593 227.72 180.523 230.81 181.078 230.256 C 181.202 230.132 180.856 229.826 180.308 229.577 C 179.761 229.327 178.932 228.466 178.466 227.662 C 178 226.858 177.615 226.38 177.612 226.6 M 80.4 227.556 C 80.4 227.751 79.635 228.296 78.7 228.765 C 77.765 229.235 77.45 229.502 78 229.357 C 79.614 228.934 81.864 227.2 80.8 227.2 C 80.58 227.2 80.4 227.36 80.4 227.556 M 219.599 228.5 C 219.01 229.304 218.913 229.584 219.345 229.233 C 220.001 228.7 220.993 227.2 220.689 227.2 C 220.613 227.2 220.122 227.785 219.599 228.5 M 363.87 228.897 C 363.028 229.757 362.668 230.283 363.07 230.067 C 363.945 229.595 365.806 227.659 365.568 227.468 C 365.476 227.394 364.711 228.037 363.87 228.897 M 251.6 229.095 C 251.6 229.484 253.214 230.519 253.451 230.282 C 253.547 230.186 253.169 229.81 252.612 229.445 C 252.056 229.08 251.6 228.922 251.6 229.095 M 324.509 229.6 C 325.069 230.04 325.678 230.396 325.863 230.391 C 326.3 230.38 324.313 228.821 323.846 228.809 C 323.651 228.804 323.95 229.16 324.509 229.6 M 118.1 230.7 C 122.885 230.763 130.715 230.763 135.5 230.7 C 140.285 230.636 136.37 230.584 126.8 230.584 C 117.23 230.584 113.315 230.636 118.1 230.7 M 190.927 230.7 C 195.727 230.764 203.467 230.763 208.127 230.699 C 212.787 230.636 208.86 230.583 199.4 230.583 C 189.94 230.583 186.127 230.636 190.927 230.7 M 263.327 230.7 C 268.127 230.764 275.867 230.763 280.527 230.699 C 285.187 230.636 281.26 230.583 271.8 230.583 C 262.34 230.583 258.527 230.636 263.327 230.7 M 335.727 230.7 C 340.527 230.764 348.267 230.763 352.927 230.699 C 357.587 230.636 353.66 230.583 344.2 230.583 C 334.74 230.583 330.927 230.636 335.727 230.7 M 5.2 243.912 C 5.2 244.434 7.091 245.042 7.485 244.648 C 7.622 244.512 7.379 244.4 6.947 244.4 C 6.514 244.4 5.944 244.184 5.68 243.92 C 5.315 243.555 5.2 243.553 5.2 243.912 M 10.812 248 C 10.812 248.33 10.987 248.87 11.2 249.2 C 11.545 249.733 11.588 249.733 11.588 249.2 C 11.588 248.87 11.413 248.33 11.2 248 C 10.855 247.467 10.812 247.467 10.812 248 M 11.703 257.2 C 11.848 257.732 29.67 257.8 169.033 257.801 L 326.2 257.802 L 169.223 257.7 C 44.275 257.62 12.174 257.497 11.893 257.099 C 11.631 256.73 11.582 256.756 11.703 257.2 M 384.2 257.115 C 382 257.178 373.18 257.374 364.6 257.551 L 349 257.872 L 368.476 257.936 C 381.905 257.98 388.035 257.868 388.216 257.573 C 388.584 256.979 388.652 256.987 384.2 257.115 M 346.522 259.029 L 345.4 260.058 L 346.7 259.154 C 347.415 258.657 348 258.193 348 258.125 C 348 257.809 347.558 258.08 346.522 259.029 M 329.282 260.373 C 329.78 261.238 330.255 261.878 330.339 261.794 C 330.512 261.621 328.831 258.8 328.555 258.8 C 328.457 258.8 328.784 259.508 329.282 260.373 M 344.372 263 C 343.252 267.837 346.832 270 355.958 270 L 361.624 270 L 361.512 275.1 L 361.4 280.2 L 199.9 280.3 L 38.4 280.401 L 38.4 275 L 38.4 269.6 L 181.7 269.598 C 274.268 269.596 325.496 269.456 326.4 269.203 C 328.932 268.492 330.842 266.265 330.754 264.126 C 330.72 263.315 330.657 263.224 330.526 263.8 C 330.141 265.507 329.133 267.193 328.029 267.979 L 326.877 268.8 L 182.718 268.8 C 71.129 268.8 38.452 268.908 38.08 269.28 C 37.414 269.946 37.414 280.054 38.08 280.72 C 38.78 281.42 361.22 281.42 361.92 280.72 C 362.245 280.395 362.4 278.528 362.4 274.934 C 362.4 268.399 362.917 268.8 354.493 268.8 L 348.133 268.8 L 346.593 267.468 C 345.312 266.361 345.01 265.804 344.804 264.168 C 344.662 263.038 344.478 262.54 344.372 263" stroke="none" fill-rule="evenodd" fill="#424960">
      <title>Dark Grey</title>
    </path>
    <path id="path1" d="M 69.014 137.6 C 69.285 139.045 70.755 141.592 71.32 141.597 C 71.497 141.599 71.182 140.998 70.62 140.262 C 70.059 139.526 69.597 138.581 69.594 138.162 C 69.591 137.743 69.4 137.13 69.17 136.8 C 68.861 136.357 68.82 136.567 69.014 137.6 M 55.232 138.244 C 55.214 138.488 54.755 139.343 54.212 140.144 C 53.669 140.945 53.354 141.598 53.512 141.595 C 54.007 141.587 55.657 138.764 55.455 138.27 C 55.327 137.956 55.253 137.947 55.232 138.244 M 11.843 143.033 C 11.709 143.381 11.6 162.344 11.6 185.174 L 11.6 226.682 L 10.7 227.981 C 9.783 229.306 8.823 229.953 6.487 230.82 C 4.741 231.469 5.043 231.697 6.833 231.082 C 12.461 229.147 11.997 233.295 11.999 184.9 L 12 143.2 L 30.7 143.172 C 40.985 143.156 49.76 142.989 50.2 142.8 C 50.662 142.602 42.774 142.444 31.543 142.428 C 14.153 142.403 12.06 142.467 11.843 143.033 M 74.6 142.8 C 75.041 142.99 145.503 143.156 231.7 143.172 L 388 143.2 L 388 200 L 388 256.8 L 380.7 256.842 C 362.616 256.944 348.035 257.404 347.554 257.886 C 347.173 258.267 347.362 258.296 348.434 258.021 C 349.185 257.829 358.35 257.552 368.8 257.406 C 379.25 257.26 387.936 257.009 388.101 256.849 C 388.267 256.688 388.357 231.007 388.301 199.779 L 388.2 143 L 378.4 142.755 C 363.017 142.37 73.7 142.413 74.6 142.8 M 98.876 169.14 C 98.368 169.283 110.878 169.4 126.676 169.4 L 155.4 169.4 L 156.8 170.333 L 158.2 171.266 L 157.049 170.277 C 156.415 169.733 155.245 169.18 154.449 169.048 C 152.492 168.725 100.044 168.811 98.876 169.14 M 170.926 169.235 C 169.65 169.61 167.2 171.722 167.2 172.448 C 167.2 172.66 167.875 172.124 168.701 171.256 C 170.763 169.088 169.936 169.139 200.8 169.278 C 230.626 169.413 228.859 169.256 230.672 171.928 C 231.795 173.582 231.795 212.418 230.672 214.072 C 229.456 215.863 228.154 216.44 224.67 216.729 L 221.4 217 L 221.371 221.4 L 221.342 225.8 L 221.571 221.6 L 221.8 217.4 L 224.883 217.12 C 228.236 216.816 229.511 216.209 230.91 214.247 L 231.8 213 L 231.8 193 L 231.8 173 L 230.91 171.753 C 228.811 168.81 230.981 169.008 200 168.931 C 183.707 168.89 171.673 169.016 170.926 169.235 M 243.387 169.225 C 239.062 170.483 238.8 171.847 238.802 193.077 C 238.805 216.109 239.177 217.189 247.1 217.198 L 249.2 217.2 L 249.228 221.3 C 249.244 223.555 249.401 225.76 249.577 226.2 C 249.873 226.938 249.706 218.35 249.405 217.36 C 249.332 217.119 247.882 216.816 246.182 216.687 C 239.342 216.17 239.27 215.929 239.231 193.277 C 239.197 173.662 239.29 172.706 241.431 170.827 C 243.347 169.144 243.365 169.143 273.2 169.278 C 303.314 169.414 301.457 169.235 303.255 172.183 C 303.663 172.852 303.998 173.147 303.999 172.838 C 304.001 171.92 300.993 169.339 299.595 169.059 C 297.626 168.665 244.775 168.821 243.387 169.225 M 315.8 169.235 C 314.477 169.648 313.706 170.2 312.8 171.384 C 312.47 171.815 312.983 171.545 313.941 170.784 L 315.682 169.4 L 343.341 169.277 C 375.514 169.134 375.325 169.109 376.403 173.668 C 376.702 174.93 376.72 174.942 376.759 173.894 C 376.805 172.665 375.466 170.377 374.214 169.542 C 373.228 168.886 317.857 168.595 315.8 169.235 M 95.747 171.028 C 95.006 171.814 94.407 172.849 94.416 173.328 C 94.428 174.033 94.54 173.95 94.997 172.898 C 95.308 172.182 96.048 171.147 96.64 170.598 C 97.232 170.049 97.577 169.6 97.406 169.6 C 97.234 169.6 96.488 170.243 95.747 171.028 M 42.7 170.3 C 49.135 170.362 59.665 170.362 66.1 170.3 C 72.535 170.238 67.27 170.187 54.4 170.187 C 41.53 170.187 36.265 170.238 42.7 170.3 M 28.048 172 C 26.863 173.149 26.41 173.908 26.436 174.7 L 26.472 175.8 L 26.832 174.558 C 27.224 173.208 28.926 171.297 30.2 170.777 C 30.809 170.529 30.844 170.445 30.348 170.425 C 29.99 170.411 28.955 171.12 28.048 172 M 78.033 170.531 C 78.794 171.126 81.2 172.415 81.2 172.227 C 81.2 171.926 78.726 170.404 78.233 170.401 C 78.032 170.401 77.942 170.459 78.033 170.531 M 311.867 172.667 C 311.72 172.813 311.618 173.488 311.641 174.167 L 311.682 175.4 L 312.01 174.003 C 312.353 172.547 312.317 172.216 311.867 172.667 M 159 193 C 159 203.848 159.132 212.516 159.294 212.262 C 159.456 212.008 159.588 203.34 159.588 193 C 159.588 182.66 159.456 173.992 159.294 173.738 C 159.132 173.484 159 182.152 159 193 M 166.65 174.45 C 166.321 176.097 166.404 210.73 166.74 211.924 C 166.883 212.432 167 203.927 167 193.024 C 167 182.121 166.978 173.2 166.95 173.2 C 166.923 173.2 166.788 173.763 166.65 174.45 M 82.004 175 C 82.227 178.314 81.168 180.327 78.62 181.437 C 77.949 181.73 77.649 181.976 77.953 181.984 C 80.639 182.06 83.982 175.821 82.195 174.067 C 82.046 173.92 81.96 174.34 82.004 175 M 304.185 193 C 304.185 203.34 304.236 207.627 304.3 202.528 C 304.363 197.428 304.363 188.968 304.3 183.728 C 304.237 178.487 304.185 182.66 304.185 193 M 94.184 193 C 94.184 203.12 94.236 207.203 94.3 202.073 C 94.363 196.942 94.363 188.662 94.3 183.673 C 94.236 178.683 94.184 182.88 94.184 193 M 26.454 177.4 C 26.426 178.56 27.168 180 27.793 180 C 27.961 180 27.873 179.729 27.598 179.398 C 27.323 179.066 26.959 178.211 26.79 177.498 L 26.482 176.2 L 26.454 177.4 M 29 181.2 C 29.66 181.637 30.463 181.996 30.785 181.997 C 31.106 181.999 30.663 181.64 29.8 181.2 C 27.801 180.181 27.461 180.181 29 181.2 M 42.9 182.3 C 49.225 182.362 59.575 182.362 65.9 182.3 C 72.225 182.238 67.05 182.187 54.4 182.187 C 41.75 182.187 36.575 182.238 42.9 182.3 M 29.752 186.575 C 28.198 187.251 26.394 189.557 26.418 190.838 C 26.431 191.574 26.568 191.424 27.002 190.2 C 27.659 188.347 29.163 187.001 31.181 186.462 C 31.961 186.253 32.24 186.071 31.8 186.057 C 31.36 186.043 30.438 186.276 29.752 186.575 M 77.735 186.455 C 78.579 186.697 79.904 187.531 80.68 188.307 C 81.494 189.121 81.903 189.366 81.646 188.887 C 81.001 187.681 79.072 186.423 77.534 186.204 C 76.297 186.028 76.312 186.046 77.735 186.455 M 82.034 192.1 C 82.003 194.221 81.878 194.522 80.436 195.964 C 78.327 198.073 78.208 198.081 52.141 197.928 L 30.481 197.8 L 28.841 196.481 C 27.33 195.267 26.537 195.025 27.7 196.134 C 29.963 198.291 28.831 198.19 52.2 198.328 C 78.463 198.483 78.328 198.493 80.592 196.229 C 82.382 194.439 82.952 192.709 82.377 190.816 C 82.146 190.053 82.06 190.373 82.034 192.1 M 26.4 193.376 C 26.4 193.913 26.547 194.444 26.728 194.555 C 26.908 194.667 26.977 194.227 26.882 193.579 C 26.672 192.149 26.4 192.035 26.4 193.376 M 31.542 201.889 C 30.572 201.992 29.567 202.517 28.542 203.456 L 27 204.869 L 28.591 203.634 L 30.182 202.4 L 54.491 202.4 L 78.8 202.4 L 80.4 204 C 81.882 205.482 82.003 205.77 82.034 207.9 C 82.06 209.627 82.146 209.947 82.377 209.184 C 83.308 206.119 80.548 202.348 77.019 201.865 C 75.028 201.592 34.142 201.614 31.542 201.889 M 26.554 205.777 C 26.432 206.094 26.403 206.679 26.489 207.077 C 26.587 207.528 26.724 207.312 26.854 206.5 C 27.071 205.138 26.93 204.796 26.554 205.777 M 26.46 209.209 C 26.369 210.743 28.465 213.011 30.669 213.762 C 33.421 214.699 75.381 214.724 78.03 213.789 C 79.879 213.137 81.024 212.277 81.683 211.046 C 81.907 210.626 81.473 210.9 80.717 211.656 C 78.39 213.984 78.206 214 54.4 214 C 38.557 214 32.256 213.869 31.075 213.515 C 29.106 212.925 26.916 210.829 26.688 209.315 C 26.527 208.248 26.517 208.244 26.46 209.209 M 311.6 211.91 C 311.6 212.593 311.777 213.262 311.994 213.396 C 312.24 213.548 312.294 213.145 312.137 212.32 C 311.8 210.551 311.6 210.399 311.6 211.91 M 376.287 212.43 C 375.697 215.27 373.042 216.8 368.703 216.8 L 366.4 216.8 L 366.484 220.9 L 366.567 225 L 366.698 221.1 L 366.829 217.2 L 369.406 217.2 C 373.846 217.2 377.068 214.938 376.716 212.07 C 376.595 211.088 376.56 211.118 376.287 212.43 M 94.416 212.538 C 94.395 213.493 95.81 215.473 96.928 216.057 C 97.612 216.413 97.558 216.284 96.682 215.458 C 96.066 214.878 95.308 213.818 94.997 213.102 C 94.637 212.274 94.426 212.069 94.416 212.538 M 303.409 213.57 C 302.845 215.349 300.695 216.429 297.131 216.724 L 293.8 217 L 293.6 222 C 293.383 227.42 293.118 228.233 291.101 229.672 L 289.8 230.6 L 273.4 230.725 C 255.338 230.863 253.328 230.752 252.025 229.537 C 251.542 229.088 251.059 228.808 250.951 228.916 C 250.842 229.024 251.349 229.537 252.077 230.056 L 253.4 231 L 271.431 231 C 294.512 231 294 231.206 294 221.903 L 294 217.314 L 297.214 217.094 C 300.922 216.84 305.138 214.205 303.869 212.936 C 303.761 212.828 303.554 213.113 303.409 213.57 M 157.2 214.934 C 156.219 216.051 156.053 216.395 156.643 216.081 C 157.433 215.661 159.023 213.646 158.732 213.435 C 158.659 213.382 157.97 214.056 157.2 214.934 M 167.2 213.487 C 167.2 213.929 170.187 216.779 170.701 216.828 C 175.616 217.297 177.2 217.365 177.2 217.111 C 177.2 216.94 176.255 216.796 175.1 216.79 C 171.616 216.775 169.937 216.207 168.5 214.558 C 167.785 213.738 167.2 213.256 167.2 213.487 M 312.837 214.71 C 313.73 216.141 315.611 216.921 318.638 217.115 L 321.534 217.301 L 321.669 221.75 C 321.957 231.215 321.396 230.97 343.084 231.12 C 361.9 231.25 362.742 231.172 364.619 229.124 L 365.8 227.836 L 364.317 229.091 C 362.265 230.827 361.719 230.868 342.6 230.725 C 321.583 230.569 322.336 230.905 322.069 221.555 L 321.936 216.91 L 318.728 216.69 C 315.887 216.495 315.339 216.324 313.93 215.192 C 312.867 214.338 312.504 214.178 312.837 214.71 M 98.8 216.808 C 99.35 216.98 100.835 217.138 102.1 217.16 L 104.4 217.2 L 104.4 221.551 C 104.4 226.648 104.906 228.23 107.064 229.876 L 108.538 231 L 126.769 231 L 145 231 L 146.301 230.072 C 147.016 229.562 147.802 228.77 148.046 228.313 C 148.299 227.841 147.872 228.101 147.059 228.915 C 145.118 230.855 144.97 230.867 125.4 230.724 C 104.294 230.568 104.8 230.792 104.8 221.603 C 104.8 216.573 105.104 216.947 100.8 216.681 C 99.063 216.573 98.221 216.627 98.8 216.808 M 151.68 216.697 C 150.183 216.781 149.098 217.034 149.007 217.32 C 148.751 218.121 148.533 227.201 148.775 226.96 C 148.899 226.836 149.09 224.635 149.2 222.067 L 149.4 217.4 L 152.328 217.139 C 153.939 216.995 155.364 216.77 155.495 216.639 C 155.626 216.507 155.388 216.435 154.967 216.477 C 154.545 216.519 153.066 216.618 151.68 216.697 M 43.3 217.9 C 49.405 217.962 59.395 217.962 65.5 217.9 C 71.605 217.838 66.61 217.787 54.4 217.787 C 42.19 217.787 37.195 217.838 43.3 217.9 M 29.189 218.684 C 27.906 219.57 27.2 220.267 27.2 220.646 C 27.2 220.813 27.695 220.488 28.3 219.925 C 28.905 219.361 29.94 218.712 30.6 218.481 C 31.488 218.172 31.589 218.055 30.989 218.032 C 30.543 218.014 29.733 218.308 29.189 218.684 M 77.8 218.4 C 78.901 218.873 79.292 218.873 79 218.4 C 78.864 218.18 78.358 218.013 77.876 218.028 C 77.031 218.055 77.029 218.069 77.8 218.4 M 80.826 220.373 C 81.874 221.676 82.079 222.277 82.084 224.065 C 82.09 225.764 82.156 225.979 82.407 225.115 C 82.968 223.186 81.648 219.611 80.163 219.041 C 79.84 218.917 80.138 219.516 80.826 220.373 M 26.554 221.777 C 26.432 222.094 26.403 222.679 26.489 223.077 C 26.587 223.528 26.724 223.312 26.854 222.5 C 27.071 221.138 26.93 220.796 26.554 221.777 M 26.454 225.162 C 26.381 226.459 28.198 228.757 29.84 229.442 C 30.93 229.898 35.493 230 54.728 230 L 78.282 230 L 79.6 229.1 C 80.325 228.605 81.201 227.75 81.548 227.2 C 82.032 226.43 81.892 226.497 80.935 227.492 C 78.889 229.621 79.159 229.6 54.334 229.6 C 27.475 229.6 27.519 229.607 26.695 225.195 L 26.509 224.2 L 26.454 225.162 M 365.829 226.229 C 365.681 226.815 365.651 227.384 365.761 227.494 C 365.871 227.604 366.081 227.215 366.229 226.629 C 366.376 226.042 366.406 225.473 366.296 225.363 C 366.186 225.253 365.976 225.642 365.829 226.229 M 177.2 226.7 C 177.2 227.94 179.967 230.613 181.588 230.938 C 183.764 231.373 215.642 231.239 217.267 230.788 C 218.714 230.386 221.201 228.044 221.199 227.086 C 221.198 226.819 220.863 227.148 220.455 227.817 C 218.697 230.7 219.462 230.6 199.2 230.6 C 178.672 230.6 179.648 230.744 178.028 227.472 C 177.399 226.2 177.201 226.015 177.2 226.7 M 8.678 245.182 C 10.921 246.55 11.376 247.693 11.626 252.579 L 11.852 257 L 11.924 252.8 C 12.012 247.737 10.47 244.441 8 244.41 C 7.67 244.406 7.975 244.754 8.678 245.182 M 90.3 257.5 C 133.475 257.556 204.125 257.556 247.3 257.5 C 290.475 257.444 255.15 257.398 168.8 257.398 C 82.45 257.398 47.125 257.444 90.3 257.5 M 326.4 257.861 C 332.145 259.753 327.808 264.906 322.063 266.518 C 321.159 266.771 275.507 265.052 182.939 265.054 L 35.922 265.882 L 38.4 275 L 34.451 283.172 L 200.107 283.605 L 364.911 284.95 L 366.675 276.987 L 364.308 269.229 L 357.377 266.417 C 348.997 266.247 348.625 267.321 348.468 263.297 L 344.278 263 L 337.539 263.118 C 330.847 263.236 330.8 263.23 330.8 262.365 C 330.8 260.466 328.168 257.558 326.514 257.632 C 325.97 257.656 325.943 257.71 326.4 257.861 M 345.387 259.781 C 344.804 260.546 344.417 261.483 344.521 261.881 C 344.691 262.538 344.711 262.534 344.754 261.838 C 344.779 261.419 345.259 260.474 345.82 259.738 C 346.382 259.002 346.751 258.4 346.641 258.4 C 346.531 258.4 345.967 259.021 345.387 259.781" stroke="none" fill="#6c6c84" fill-rule="evenodd">
      <title>light grey</title>
    </path>
    <path id="path2" d="M 38.48 119.68 C 37.798 120.362 33.556 132.306 34.24 132.871 C 34.521 133.103 41.234 134.196 44.832 134.272 C 52.56 134.436 52.76 132.27 52.76 135.99 C 52.76 136.8 55.752 136.817 62.267 136.71 L 74.898 138.588 L 75.183 136.597 C 75.542 135.519 75.427 136.192 76.332 135.501 L 78.05 134.692 L 217.169 132.764 C 296.496 132.641 362.297 133.926 362.352 133.884 C 362.407 133.842 363.588 128.851 363.588 125.917 L 363.872 115.469 L 346.631 115.205 C 321.045 114.694 37.589 116.027 37.06 116.556" stroke="none" fill-rule="evenodd" style="fill: rgb(227, 75, 135);">
      <title>Red</title>
    </path>
    <path id="path0" d="M 55.6 137.806 C 55.6 138.958 52.107 139.157 51.216 139.478 C 47.306 140.888 49.345 138.906 30.604 138.912 L 10.329 139.754 L 10.851 185.029 C 10.851 221.229 8.371 224.189 7.849 225.197 C 7.228 226.4 6.16 225.578 5.384 225.578 C 5.14 225.578 6.361 228.085 5.801 228.34 L 5.2 231.728 L 5.2 237.584 L 5.2 243.439 L 5.865 247.079 C 10.264 248.565 9.076 248.004 9.076 253.977 L 8.867 259.179 L 169.604 259.491 C 322.202 259.59 324.632 260.034 325.691 260.752 C 327.023 261.656 324.848 261.5 324.848 262.671 C 324.848 263.524 330.871 263.218 337.5 263.11 L 344.2 263 L 344.329 261.871 C 344.721 258.454 347.731 257.2 355.55 257.199 C 358.548 257.199 367.075 257.08 374.5 256.935 L 388 256.671 L 388 199.935 L 388.94 140.694 L 232.069 139.053 C 121.152 139.053 79.608 139.524 78.642 139.216 C 75.279 138.145 74.26 140.83 73.577 138.404 L 68.769 136.8 L 62.185 136.8 L 55.6 136.8 L 51.945 137.806 M 155.144 173.598 C 158.068 175.683 155.348 171.626 155.336 192.547 L 156.833 209.879 L 155.23 210.988 C 154.033 213.33 154.912 213.53 151.332 213.85 L 146.931 214.656 L 144.253 220.217 C 144.02 225.355 143.247 224.417 141.093 225.953 L 140.199 227.433 L 125.809 226.473 L 109.91 226.061 L 108.436 227.681 C 106.284 226.04 107.006 226.644 107.006 221.604 L 105.772 216.208 L 101.774 213.55 C 98.426 213.333 100.559 214.225 99.247 212.385 L 98.453 210.119 L 99.969 194.377 C 99.819 173.76 99.228 175.494 100.739 173.704 C 102.819 171.239 97.779 172.501 128.362 172.599 L 153.068 172.841 L 153.498 172.363 M 224.246 175.24 C 222.797 179.774 225.263 177.954 226.932 176.28 L 226.587 176.841 L 225.764 194.372 L 225.764 210.394 L 224.325 209.994 C 222.926 211.956 225.081 211.603 221.728 211.907 L 217.959 213.696 L 216.63 221.215 C 216.208 230.174 220.355 223.56 199.162 223.716 C 179.321 223.861 186.086 227.158 183.996 225.068 L 181.202 223.783 L 180.404 219.768 L 178.646 214.108 L 176.772 213.047 C 167.834 212.488 170.378 216.848 170.378 193.274 C 170.378 172.093 169.534 174.194 173.807 172.939 C 176.571 172.128 220.253 175.491 221.502 176.338 M 300.08 175.055 C 302.659 177.023 296.381 171.658 296.381 193.549 C 296.381 215.359 299.766 208.164 297.282 210.059 C 296.142 210.928 299.593 208.544 296.94 208.726 L 293.04 215.531 L 290.022 218.611 C 290.022 227.914 297.118 224.964 274.037 224.964 C 251.472 224.964 254.086 228.41 253.795 218.819 L 250.777 213.633 L 247.066 213.906 C 242.823 213.901 244.241 212.727 243.354 209.456 C 242.749 207.226 243.031 176.872 243.637 174.465 C 244.898 169.459 240.803 170.633 273.254 170.714 L 299.028 170.509 L 299.668 172.448 M 373.483 174.659 C 376.135 176.427 375.025 172.588 375.025 194.88 L 372.832 210.391 L 372.976 212.405 C 371.828 214.173 373.623 211.77 370.382 211.77 L 366.588 214.38 L 363.275 220.342 C 362.891 229.99 366.763 229.215 342.913 229.036 C 321.785 228.879 327.177 224.604 324.384 220.392 L 324.249 214.168 L 320.831 213.773 C 317.519 213.561 324.039 212.729 322.728 210.729 L 314.942 210.827 L 315.36 192.654 C 315.36 169.845 313.408 173.073 317.68 171.741 C 319.737 171.101 372.288 170.452 373.274 171.108 M 77.941 174.054 C 82.262 176.016 81.486 176.864 77.405 179.407 C 75.8 180.407 37.02 180.192 33.567 179.262 C 27.861 177.726 28.176 174.392 33.815 173.297 C 37.185 172.643 72.962 171.43 74.511 172.134 M 76.065 192.071 C 79.719 194.677 80.48 190.678 76.603 193.443 L 75.868 195.182 L 55.086 195.868 C 29.356 195.868 24.969 196.775 27.8 196.19 C 43.529 192.94 29.97 192.236 31.567 190.143 C 33.516 187.588 28.588 188.619 54.8 188.717 L 75.856 190.453 L 78.534 190.287 M 76.196 205.843 C 82.807 206.749 81.705 209.14 75.379 211.295 C 72.569 212.253 35.675 212.524 32.864 211.567 C 26.796 209.499 28.506 205.559 34.755 204.912 C 37.447 204.633 72.813 205.567 74.824 205.843 M 76.036 221.838 C 79.902 224.269 78.402 222.384 74.543 224.984 L 72.932 227.394 L 54.728 228.079 C 28.766 228.079 33.241 229.509 31.294 226.956 C 28.996 223.943 31.732 223.611 35.139 222.869 C 35.579 222.773 35.613 221.381 36.053 221.283 C 39.434 220.529 72.102 221.825 73.43 222.661" stroke="none" fill-rule="evenodd" style="fill: rgb(67, 152, 209);">
      <title>türkis</title>
    </path>
    <path id="path3" d="M 28.9 107.344 C 28.405 107.589 28 107.927 28 108.095 C 28 108.263 27.752 108.4 27.449 108.4 C 25.822 108.4 25.2 111.935 25.2 121.174 L 25.2 130 L 14.4 130 C 7.467 130 3.6 130.143 3.6 130.4 C 3.6 130.62 3.312 130.8 2.96 130.8 C 2.609 130.8 1.799 131.359 1.16 132.042 L 0 133.285 L 0 180.8 L 0 228.315 L 1.16 229.558 C 1.799 230.241 2.609 230.8 2.96 230.8 C 3.312 230.8 3.6 230.98 3.6 231.2 C 3.6 231.806 4.778 231.679 5.457 231 C 5.787 230.67 6.472 230.4 6.978 230.4 C 8.073 230.4 10.536 228.214 11.034 226.8 C 11.228 226.25 11.479 206.99 11.593 184 L 11.8 142.2 L 31.72 142.096 C 53.944 141.981 52.913 142.114 54.423 139.155 C 55.85 136.358 55.15 133.677 52.543 131.959 C 51.543 131.3 50.595 131.205 44.98 131.203 C 40.523 131.201 38.413 131.053 38.08 130.72 C 37.414 130.054 37.414 119.946 38.08 119.28 C 38.593 118.767 332.472 118.649 352.2 119.154 L 361.8 119.4 L 361.8 125 L 361.8 130.6 L 352.2 130.846 C 346.92 130.981 282.051 131.116 208.047 131.146 C 73.848 131.2 73.491 131.202 72.189 132.007 C 68.778 134.115 68.658 138.82 71.955 141.168 L 73.122 141.999 L 230.661 142.099 L 388.2 142.2 L 388.2 200 L 388.2 257.8 L 368.256 257.904 C 348.991 258.004 348.274 258.035 347.181 258.814 C 344.288 260.874 343.924 264.891 346.417 267.262 L 348.034 268.8 L 354.443 268.8 C 362.924 268.8 362.4 268.396 362.4 274.934 C 362.4 278.528 362.245 280.395 361.92 280.72 C 361.22 281.42 38.78 281.42 38.08 280.72 C 37.414 280.054 37.414 269.946 38.08 269.28 C 38.452 268.908 71.129 268.8 182.718 268.8 C 326.822 268.8 326.877 268.8 328.014 267.99 C 330.958 265.893 330.78 258.8 327.783 258.8 C 327.462 258.8 327.2 258.62 327.2 258.401 C 327.2 258.135 274.167 257.967 169.5 257.901 L 11.8 257.8 L 11.551 253.6 C 11.182 247.387 10.753 245.009 8.085 244.278 C 6.92 243.959 6.662 244.163 5.2 243.757 C 4.584 243.586 4.379 243.629 3.8 243.6 C 3.542 243.587 3.276 244 2.937 244 C 2.598 244 1.799 244.559 1.16 245.242 L 0 246.485 L 0 256.6 L 0 266.715 L 1.16 267.958 C 1.799 268.641 2.609 269.2 2.96 269.2 C 3.312 269.2 3.6 269.38 3.6 269.6 C 3.6 269.857 7.467 270 14.4 270 L 25.2 270 L 25.2 278.826 C 25.2 288.065 25.822 291.6 27.449 291.6 C 27.752 291.6 28.001 291.735 28.003 291.9 C 28.017 293.201 27.925 293.2 200 293.2 C 372.075 293.2 371.983 293.201 371.997 291.9 C 371.999 291.735 372.234 291.6 372.52 291.6 C 374.216 291.6 374.8 288.367 374.8 278.989 L 374.8 270 L 385.6 270 C 392.533 270 396.4 269.857 396.4 269.6 C 396.4 269.38 396.688 269.2 397.04 269.2 C 397.391 269.2 398.201 268.641 398.84 267.958 L 400 266.715 L 400 200 L 400 133.285 L 398.84 132.042 C 398.201 131.359 397.391 130.8 397.04 130.8 C 396.688 130.8 396.4 130.62 396.4 130.4 C 396.4 130.143 392.533 130 385.6 130 L 374.8 130 L 374.8 121.011 C 374.8 111.633 374.216 108.4 372.52 108.4 C 372.234 108.4 371.999 108.265 371.997 108.1 C 371.983 106.798 372.113 106.799 199.82 106.849 C 75.737 106.885 29.557 107.019 28.9 107.344 M 97.575 170.297 C 94.724 172.03 94.8 171.406 94.8 193.205 L 94.8 212.821 L 96.589 214.611 L 98.379 216.4 L 101.589 216.4 L 104.8 216.4 L 104.806 220.5 C 104.821 230.601 104.37 230.4 127.018 230.4 C 149.416 230.4 148.048 230.95 148.4 221.8 L 148.6 216.6 L 152 216.4 C 154.551 216.25 155.668 216 156.475 215.4 C 158.638 213.791 158.6 214.19 158.6 193 C 158.6 171.547 158.662 172.143 156.26 170.497 L 154.95 169.6 L 126.775 169.637 C 102.004 169.669 98.476 169.748 97.575 170.297 M 169.652 170.671 C 167.187 172.613 167.2 172.495 167.2 193 C 167.2 216.249 167.191 216.221 174.214 216.482 L 177.4 216.6 L 177.6 221.6 C 177.969 230.836 176.879 230.4 199.632 230.4 L 217.6 230.4 L 219.2 228.8 L 220.8 227.2 L 220.8 222.433 C 220.8 216.137 220.648 216.4 224.296 216.4 C 227.581 216.4 229.336 215.674 230.559 213.807 C 231.531 212.323 231.531 173.677 230.559 172.193 C 228.773 169.468 230.373 169.6 199.153 169.604 L 171 169.609 L 169.652 170.671 M 242.18 170.487 C 239.786 172.13 239.828 171.784 239.681 191.2 C 239.494 216.059 239.542 216.24 246.484 216.484 L 249.8 216.6 L 250.018 221.6 C 250.422 230.875 249.244 230.4 271.857 230.4 L 289.724 230.4 L 291.067 229.376 C 293.111 227.817 293.6 226.191 293.6 220.951 L 293.6 216.4 L 296.653 216.4 C 303.719 216.4 303.6 216.799 303.6 193 C 303.6 171.545 303.645 171.947 301.081 170.384 C 299.006 169.119 244.033 169.215 242.18 170.487 M 314.759 170.515 C 312.144 172.276 312.2 171.78 312.2 193 C 312.2 216.572 312.029 215.979 318.927 216.4 L 322.2 216.6 L 322.439 221.808 C 322.856 230.886 321.624 230.4 344.233 230.4 C 366.588 230.4 365.509 230.835 365.956 221.629 L 366.2 216.6 L 369.386 216.482 C 376.393 216.221 376.4 216.199 376.4 193 C 376.4 172.533 376.403 172.558 373.867 170.624 L 372.524 169.6 L 344.321 169.6 L 316.118 169.6 L 314.759 170.515 M 31.176 170.863 C 26.391 172.142 25.313 178.613 29.512 180.86 C 31 181.656 77.801 181.656 79.289 180.86 C 83.601 178.552 82.356 172.09 77.357 170.831 C 75.188 170.285 33.232 170.314 31.176 170.863 M 146.967 181.043 C 147.524 181.257 147.6 182.687 147.6 193 C 147.6 206.262 147.908 205.2 144.067 205.201 C 138.893 205.202 137.452 207.029 137.259 213.832 C 137.088 219.85 138.344 219.261 126 219.113 L 116.6 219 L 116.4 213.927 C 116.123 206.89 114.718 205.2 109.149 205.2 C 105.764 205.2 106 206.113 106 193 C 106 186.986 106.109 181.781 106.243 181.433 C 106.491 180.785 145.327 180.414 146.967 181.043 M 219.367 181.043 C 219.924 181.257 220 182.687 220 193 C 220 206.264 220.309 205.2 216.461 205.2 C 211.426 205.2 209.904 207.198 209.605 214.199 L 209.4 219 L 199.3 219.107 L 189.2 219.214 L 189.19 215.507 C 189.169 207.617 187.795 205.65 182 205.222 L 179 205 L 178.894 193.405 C 178.835 187.028 178.875 181.583 178.981 181.305 C 179.185 180.773 218.008 180.521 219.367 181.043 M 292.2 193 L 292.2 205 L 288.992 205.239 C 283.381 205.657 282.298 207.044 282 214.2 L 281.8 219 L 271.8 219 L 261.8 219 L 261.55 214.4 C 261.16 207.213 260.045 205.633 255.124 205.297 C 250.408 204.975 250.8 206.083 250.8 193.066 C 250.8 184.759 250.928 181.632 251.284 181.276 C 251.652 180.908 256.593 180.817 271.984 180.896 L 292.2 181 L 292.2 193 M 364.6 193 L 364.6 205 L 361.378 205.24 C 355.77 205.657 354.782 206.931 354.432 214.2 L 354.2 219 L 344.45 219.107 C 332.69 219.237 333.6 219.686 333.6 213.745 C 333.6 207.004 332.553 205.652 327.008 205.239 L 323.8 205 L 323.694 192.896 L 323.588 180.793 L 344.094 180.896 L 364.6 181 L 364.6 193 M 29.12 187.632 C 25.892 190.041 26.183 194.66 29.696 196.802 C 31.731 198.042 77.069 198.042 79.104 196.802 C 82.59 194.677 82.871 189.929 79.647 187.633 C 77.841 186.347 30.843 186.346 29.12 187.632 M 30.008 203.101 C 26.123 205.052 25.751 209.941 29.294 212.468 L 30.6 213.4 L 54.4 213.4 L 78.2 213.4 L 79.545 212.441 C 83.013 209.968 82.614 205.021 78.792 203.101 C 76.657 202.028 32.143 202.028 30.008 203.101 M 30.24 218.991 C 28.651 219.557 28.416 219.779 27.385 221.68 C 25.852 224.51 27.429 227.91 30.828 229.1 C 33.115 229.9 76.193 229.813 78.129 229.004 C 83.2 226.885 83.164 220.227 78.074 218.814 C 75.632 218.136 32.189 218.297 30.24 218.991" stroke="none" fill="#040404" fill-rule="evenodd">
      <title>Black</title>
    </path>
  </g>
</svg>