<?xml version="1.0" encoding="utf-8"?>
<svg id="svg" version="1.1" width="400" height="400" viewBox="0, 0, 400,400" xmlns="http://www.w3.org/2000/svg">
  <g id="svgg">
    <path id="path1" d="M 382.5 59.725 C 383.105 60.295 383.6 60.98 383.6 61.248 C 383.6 61.515 383.705 61.629 383.832 61.501 C 384.213 61.121 383.249 59.654 382.291 59.153 C 381.553 58.769 381.589 58.867 382.5 59.725 M 384.19 93.4 C 384.191 110.78 384.24 117.832 384.3 109.07 C 384.36 100.309 384.36 86.089 384.3 77.47 C 384.24 68.852 384.19 76.02 384.19 93.4 M 384.196 228.6 C 384.196 277 384.243 296.741 384.3 272.468 C 384.357 248.195 384.357 208.595 384.3 184.468 C 384.243 160.341 384.196 180.2 384.196 228.6 M 15.792 177 C 15.792 196.8 15.84 204.841 15.9 194.87 C 15.959 184.898 15.959 168.698 15.9 158.87 C 15.84 149.041 15.792 157.2 15.792 177 M 265.609 168.82 C 262.991 169.256 260.166 170.15 259.725 170.56 C 259.516 170.754 259.618 171.512 259.219 171.512 C 258.82 171.512 255.787 172.272 255.405 172.469 C 255.023 172.666 253.885 175.149 251.779 176.157 C 238.926 182.312 224.89 196.165 219.203 209.898 C 218.007 212.785 220.406 223.35 220.406 224.853 C 220.406 225.285 223.088 226.033 227.446 226.152 C 235.27 226.367 233.216 226.242 233.216 231.879 C 233.216 237.541 234.905 234.413 226.719 234.413 C 223.77 234.413 220.447 241.137 220.607 241.396 C 220.743 241.617 221.306 245.046 221.491 246.09 C 222.002 248.961 220.162 255.535 220.56 255.963 C 220.754 256.172 223.307 257.473 223.307 257.758 C 223.307 258.043 222.741 259.643 223.512 261.312 C 227.728 270.439 233.834 276.655 242.455 283.587 C 248.36 288.335 262.65 289.178 270.399 290.305 L 271.102 291.48 L 274.693 284.026 C 274.693 275.227 277.604 270.951 283.6 274.535 C 287.118 276.637 285.029 277.686 285.234 283.895 C 285.378 288.276 285.793 292.287 286.353 292.286 C 287.709 292.285 304.59 289.058 307.63 287.886 C 312.101 286.162 313.832 283.447 314.81 282.268 C 315.075 281.949 317.021 281.987 317.306 281.987 C 317.59 281.987 317.584 280.356 317.658 280.191 C 317.731 280.026 320.277 276.696 321.487 275.716 C 331.16 267.881 336.416 254.169 339.569 241.638 C 340.786 236.804 342.324 234.498 336.687 234.346 C 328.794 234.132 337.696 235.819 337.749 230.206 C 337.802 224.538 335.19 223.704 343.347 223.7 C 348.655 223.698 340.579 219.224 339.632 214.59 C 338.018 206.692 335.224 196.019 332.008 193.206 C 331.882 193.096 326.515 186.392 325.932 185.622 C 319.996 177.788 307.328 168.895 298.197 166.506 C 297.537 166.334 294.511 163.23 293.301 162.9 C 292.091 162.57 288.286 167.027 287.406 166.953 L 282.216 168.015 C 274.098 159.221 284.607 176.097 284.997 176.519 C 284.7 184.707 285.741 183.475 279.999 183.511 C 274.28 183.547 278.284 187.055 278.284 179.306 C 278.284 174.662 276.562 169.887 276.344 169.363 C 275.581 167.528 268.633 165.479 268.602 168.52 M 229.775 176.1 L 228.6 177.4 L 229.9 176.225 C 230.615 175.579 231.2 174.994 231.2 174.925 C 231.2 174.616 230.87 174.888 229.775 176.1 M 332.783 178.9 C 333.764 179.945 334.619 180.8 334.683 180.8 C 334.984 180.8 334.666 180.441 332.9 178.783 L 331 177 L 332.783 178.9 M 225.775 180.1 L 224.6 181.4 L 225.9 180.225 C 226.615 179.579 227.2 178.994 227.2 178.925 C 227.2 178.616 226.87 178.888 225.775 180.1 M 304.665 202.136 C 307.812 203.719 301.203 204.874 300.247 208.425 C 299.722 210.372 305.623 208.01 298.299 215.897 C 296.863 217.442 292.008 219.58 289.704 222.11 C 285.849 226.343 286.066 228.066 282.794 231.605 C 279.844 234.797 279.943 234.994 276.861 232.402 C 273.346 229.446 268.859 222.788 267.83 221.809 C 262.642 216.87 259.263 217.714 266.099 215.67 C 269.059 214.784 268.967 215.177 274.705 220.379 C 277.391 222.813 284.501 222.82 286.792 220.291 C 288.549 218.351 286.949 217.107 296.07 207.199 C 301.358 201.454 298.357 201.812 302.57 203.931 M 206.153 230.2 C 206.153 232.84 206.218 233.868 206.297 232.484 C 206.375 231.101 206.374 228.941 206.295 227.684 C 206.216 226.428 206.152 227.56 206.153 230.2 M 353.75 230.2 C 353.751 232.62 353.816 233.558 353.896 232.285 C 353.976 231.012 353.975 229.032 353.894 227.885 C 353.814 226.738 353.749 227.78 353.75 230.2 M 17.169 230.369 C 16.526 231.012 16.007 231.777 16.016 232.069 C 16.025 232.361 16.299 232.109 16.624 231.508 C 16.95 230.908 17.708 230.15 18.308 229.824 C 18.909 229.499 19.161 229.225 18.869 229.216 C 18.577 229.207 17.812 229.726 17.169 230.369 M 139.633 229.321 C 139.725 229.388 140.34 229.758 141 230.145 L 142.2 230.847 L 141.256 230.024 C 140.736 229.571 140.121 229.2 139.889 229.2 C 139.657 229.2 139.542 229.254 139.633 229.321 M 27.529 245.1 C 33.979 245.162 44.419 245.162 50.729 245.1 C 57.038 245.038 51.76 244.987 39 244.987 C 26.24 244.987 21.078 245.038 27.529 245.1 M 66.924 247.35 C 67.717 248.143 68.582 249.515 68.847 250.399 C 69.112 251.282 69.407 251.926 69.504 251.829 C 70.165 251.168 67.831 247.166 66.31 246.352 C 65.848 246.104 66.119 246.545 66.924 247.35 M 91.4 246.719 C 90.96 247.099 90.338 247.768 90.017 248.205 C 89.697 248.642 90.102 248.38 90.917 247.622 C 92.25 246.382 92.602 245.973 92.3 246.013 C 92.245 246.021 91.84 246.338 91.4 246.719 M 101.556 246.753 C 102.082 247.157 102.843 247.918 103.247 248.444 C 103.651 248.97 103.986 249.271 103.991 249.114 C 104.007 248.615 101.537 246 101.059 246.009 C 100.806 246.014 101.03 246.349 101.556 246.753 M 88.501 253 C 88.505 253.88 88.587 254.193 88.683 253.695 C 88.779 253.198 88.775 252.478 88.675 252.095 C 88.575 251.713 88.496 252.12 88.501 253 M 69.029 255.029 C 68.881 255.615 68.838 256.172 68.932 256.266 C 69.027 256.36 69.224 255.958 69.371 255.371 C 69.519 254.785 69.562 254.228 69.468 254.134 C 69.373 254.04 69.176 254.442 69.029 255.029 M 104.2 255.2 C 104.05 255.673 104.017 256.15 104.127 256.26 C 104.237 256.37 104.45 256.073 104.6 255.6 C 104.75 255.127 104.783 254.65 104.673 254.54 C 104.563 254.43 104.35 254.727 104.2 255.2 M 67.426 258.3 C 66.562 259.405 66.493 259.59 67.163 259.004 C 67.965 258.304 69.023 256.8 68.714 256.8 C 68.651 256.8 68.072 257.475 67.426 258.3 M 102.626 258.3 C 101.762 259.405 101.693 259.59 102.363 259.004 C 103.165 258.304 104.223 256.8 103.914 256.8 C 103.851 256.8 103.272 257.475 102.626 258.3 M 16 274.332 C 16 274.917 17.572 276.668 17.587 276.1 C 17.594 275.825 17.42 275.6 17.2 275.6 C 16.98 275.6 16.8 275.341 16.8 275.024 C 16.8 274.707 16.62 274.336 16.4 274.2 C 16.18 274.064 16 274.123 16 274.332 M 18.464 276.598 C 18.727 276.861 140.065 276.868 140.328 276.605 C 140.441 276.492 113.023 276.4 79.4 276.4 C 45.777 276.4 18.356 276.489 18.464 276.598 M 14.497 291.892 L 10.159 295.153 L 14.476 316.149 C 14.476 337.678 12.988 340.491 14.518 341.665 C 15.011 342.043 31.124 344.44 78.468 344.45 L 138.483 343.447 L 142.654 342.775 L 144.793 338.802 C 150.238 340.163 146.067 316.314 146.063 316.313 L 145.047 292.554 L 141.154 292.115 L 137.007 290.408 L 79.698 289.645 L 19.087 288.375 L 13.481 290.622 M 124.84 312.642 C 130.605 314.478 130.483 316.213 125.93 319.022 C 122.81 320.947 117.885 325.383 117.885 316.442 C 117.885 312.819 118.932 312.264 121.602 312.241 C 121.99 312.238 122.07 312.314 122.4 312.101 C 123.157 311.612 122.186 311.612 123.824 312.134 M 180.5 319.5 C 192.545 319.559 212.255 319.559 224.3 319.5 C 236.345 319.441 226.49 319.393 202.4 319.393 C 178.31 319.393 168.455 319.441 180.5 319.5 M 330.7 319.5 C 339.995 319.56 355.205 319.56 364.5 319.5 C 373.795 319.44 366.19 319.391 347.6 319.391 C 329.01 319.391 321.405 319.44 330.7 319.5" stroke="none" fill-rule="evenodd" style="fill: rgb(67, 152, 209);">
      <title>Dark</title>
    </path>
    <path id="path3" d="M 13.859 55.032 C 11.968 56.465 12.732 62.688 12.732 95.988 L 13.821 129.521 L 200.363 129.521 L 389.013 129.186 L 392.146 92.121 C 392.146 59.307 386.526 55.3 384.759 53.869 C 383.57 52.906 14.767 55.16 13.496 56.122 M 55.91 88.374 C 61.374 90.63 61.769 88.334 58.807 93.234 C 55.586 98.563 56.754 99.367 54.31 93.518 C 51.62 87.08 51.319 84.206 57.52 86.765 M 87.404 88.235 C 89.557 88.87 92.021 88.703 92.021 90.127 C 92.021 90.675 88.268 92.416 88.509 92.565 C 88.933 92.826 91.049 91.347 90.434 93.907 C 90.275 94.567 96.176 96.519 88.881 94.137 C 81.586 91.755 88.18 93.963 88.789 94.698 C 91.653 98.156 88.163 98.042 84.457 94.462 C 78.718 88.918 81.136 84.636 88.867 86.918 M 120.874 88.134 C 120.976 88.183 121.716 88.02 121.816 88.072 C 123.409 88.901 120.575 88.194 121.249 89.63 C 121.54 90.25 121.297 90.645 121.492 91.027 C 121.972 91.971 121.674 93.015 121.179 93.321 C 120.959 93.457 121.791 93.172 121.791 93.599 C 121.791 94.026 121.921 94.641 121.753 94.641 C 121.585 94.641 119.778 94.819 119.561 95.296 C 117.156 100.587 114.529 99.432 114.529 93.83 C 114.529 93.51 113.284 92.444 113.064 92.308 C 112.379 91.885 113.584 91.381 114.463 89.51 C 116.622 84.917 115.636 84.584 119.861 86.589 M 107.9 141.1 C 158.555 141.156 241.445 141.156 292.1 141.1 C 342.755 141.044 301.31 140.998 200 140.998 C 98.69 140.998 57.245 141.044 107.9 141.1 M 277.5 156.296 C 278.875 156.374 281.125 156.374 282.5 156.296 C 283.875 156.218 282.75 156.154 280 156.154 C 277.25 156.154 276.125 156.218 277.5 156.296 M 267.6 157.218 C 267.162 157.515 267.324 157.552 268.2 157.356 C 269.671 157.027 269.99 156.798 268.967 156.806 C 268.545 156.809 267.93 156.995 267.6 157.218 M 243.8 165.6 C 243.14 166.037 242.78 166.392 243 166.388 C 243.401 166.382 245.576 164.823 245.2 164.812 C 245.09 164.808 244.46 165.163 243.8 165.6 M 318.374 167.124 C 318.909 167.559 319.899 168.219 320.574 168.591 L 321.8 169.267 L 320.826 168.476 C 320.291 168.041 319.301 167.381 318.626 167.009 L 317.4 166.333 L 318.374 167.124 M 214.6 195.2 C 214.259 195.86 214.069 196.4 214.179 196.4 C 214.289 196.4 214.659 195.86 215 195.2 C 215.341 194.54 215.531 194 215.421 194 C 215.311 194 214.941 194.54 214.6 195.2 M 48.7 213.1 C 65.475 213.158 92.925 213.158 109.7 213.1 C 126.475 213.042 112.75 212.995 79.2 212.995 C 45.65 212.995 31.925 213.042 48.7 213.1 M 151.6 217.325 C 151.6 217.394 152.185 217.979 152.9 218.625 L 154.2 219.8 L 153.025 218.5 C 151.93 217.288 151.6 217.016 151.6 217.325 M 353.309 221.6 C 353.309 222.59 353.387 222.995 353.482 222.5 C 353.578 222.005 353.578 221.195 353.482 220.7 C 353.387 220.205 353.309 220.61 353.309 221.6 M 206.109 224 C 206.109 224.99 206.187 225.395 206.282 224.9 C 206.378 224.405 206.378 223.595 206.282 223.1 C 206.187 222.605 206.109 223.01 206.109 224 M 12.545 226.626 C 10.565 227.7 12.16 232.801 12.16 239.4 C 11.951 239.713 8.139 254.471 12.48 247.96 L 40.1 247.12 L 59.4 249.48 L 61.84 249.723 C 65.155 251.938 66.417 253.938 62.446 253.08 C 52.207 250.869 59.48 256.844 58.627 256.88 C 58.308 256.894 58.576 256.74 58.44 256.96 C 58.28 257.219 56.169 256.72 40.616 256.72 L 14.08 258 L 11.52 270.285 C 11.52 276.384 14.245 277.976 15.551 279.405 C 15.932 279.821 28.161 279.92 77.8 279.92 C 143.202 279.92 143.92 281.919 143.92 280.069 C 143.92 279.723 146.02 274 146.24 274 C 146.501 274 147.6 262.087 147.6 248.661 C 147.6 226.096 142.816 226.889 140.387 225.633 C 138.651 224.736 14.841 224.127 13.185 225.026 M 206.028 236.433 C 206.044 237.405 206.206 238.56 206.39 239 C 206.592 239.483 206.638 238.849 206.507 237.4 C 206.245 234.51 205.989 233.993 206.028 236.433 M 353.309 238.8 C 353.309 239.79 353.387 240.195 353.482 239.7 C 353.578 239.205 353.578 238.395 353.482 237.9 C 353.387 237.405 353.309 237.81 353.309 238.8 M 99.719 248.668 C 104.604 250.876 104.791 254.365 100.544 258.14 C 99.863 258.745 98.909 258.968 98.59 258.968 C 98.271 258.968 96.808 257.647 96.672 257.867 C 96.213 258.61 97.537 259.421 95.987 258.55 C 86.398 253.164 90.367 242.974 100.401 247.508 M 332.189 282.5 L 329.4 285.4 L 332.3 282.611 C 334.994 280.02 335.383 279.6 335.089 279.6 C 335.028 279.6 333.723 280.905 332.189 282.5 M 158.578 306.8 C 158.578 313.73 158.633 316.565 158.699 313.1 C 158.766 309.635 158.766 303.965 158.699 300.5 C 158.633 297.035 158.578 299.87 158.578 306.8 M 257.2 300.782 C 257.53 301.005 258.145 301.191 258.567 301.194 C 259.59 301.202 259.271 300.973 257.8 300.644 C 256.924 300.448 256.762 300.485 257.2 300.782 M 268.5 303.476 C 268.885 303.576 269.515 303.576 269.9 303.476 C 270.285 303.375 269.97 303.293 269.2 303.293 C 268.43 303.293 268.115 303.375 268.5 303.476 M 290.1 303.476 C 290.485 303.576 291.115 303.576 291.5 303.476 C 291.885 303.375 291.57 303.293 290.8 303.293 C 290.03 303.293 289.715 303.375 290.1 303.476 M 252.456 324.8 C 252.456 325.13 252.611 325.76 252.8 326.2 C 253.017 326.704 253.144 326.778 253.144 326.4 C 253.144 326.07 252.989 325.44 252.8 325 C 252.583 324.496 252.456 324.422 252.456 324.8 M 271.754 325.377 C 271.632 325.694 271.603 326.279 271.689 326.677 C 271.787 327.128 271.924 326.912 272.054 326.1 C 272.271 324.738 272.13 324.396 271.754 325.377 M 287.656 325.2 C 287.656 325.53 287.811 326.16 288 326.6 C 288.217 327.104 288.344 327.178 288.344 326.8 C 288.344 326.47 288.189 325.84 288 325.4 C 287.783 324.896 287.656 324.822 287.656 325.2" stroke="none" fill-rule="evenodd" style="fill: rgb(135, 206, 217);">
      <title>Light</title>
    </path>
    <path id="path0" d="M 15 42.273 C 13.69 42.442 13.146 42.644 10.3 44.012 C 9.255 44.515 8.4 45.077 8.4 45.263 C 8.4 45.448 8.142 45.6 7.826 45.6 C 7.079 45.6 2.8 49.879 2.8 50.626 C 2.8 50.942 2.665 51.201 2.5 51.203 C 2.149 51.207 1.2 53.137 1.2 53.846 C 1.2 54.114 0.975 54.408 0.7 54.5 C 0.301 54.633 0.2 83.981 0.2 199.461 L 0.2 344.256 L 1.163 346.128 C 1.692 347.158 2.277 348 2.463 348 C 2.648 348 2.8 348.28 2.8 348.622 C 2.8 349.264 7.374 354 7.994 354 C 8.186 354 8.581 354.225 8.871 354.5 C 9.162 354.775 9.94 355.246 10.6 355.547 C 11.26 355.847 12.113 356.252 12.495 356.447 C 12.877 356.641 13.507 356.787 13.895 356.772 C 14.55 356.746 14.551 356.724 13.915 356.472 C 13.538 356.322 42.428 356.2 78.115 356.2 L 143 356.2 L 145.6 355.06 C 147.03 354.432 149.01 353.622 150 353.26 C 150.99 352.897 151.86 352.465 151.933 352.3 C 152.007 352.135 152.322 352 152.633 352 C 152.945 352 153.2 351.826 153.2 351.613 C 153.2 351.401 153.83 350.597 154.6 349.827 C 155.37 349.057 156 348.151 156 347.813 C 156 347.476 156.18 347.2 156.4 347.2 C 156.62 347.2 156.8 346.84 156.8 346.4 C 156.8 345.96 156.98 345.6 157.2 345.6 C 157.42 345.6 157.6 345.276 157.6 344.88 C 157.6 344.484 157.776 343.984 157.991 343.769 C 158.206 343.554 158.502 341.808 158.65 339.889 L 158.918 336.4 L 202.259 336.4 C 230.886 336.4 245.6 336.264 245.6 336 C 245.6 335.78 246.32 335.6 247.2 335.6 C 248.08 335.6 248.8 335.42 248.8 335.2 C 248.8 334.98 249.078 334.8 249.418 334.8 C 250.218 334.8 252 333.018 252 332.218 C 252 331.878 252.18 331.6 252.4 331.6 C 252.62 331.6 252.8 331.24 252.8 330.8 C 252.8 330.36 252.98 330 253.2 330 C 253.791 330 253.686 328.543 253.049 327.906 C 252.746 327.603 252.369 326.735 252.212 325.977 C 251.737 323.682 250.124 321.614 248.071 320.665 L 246.2 319.8 L 202 319.6 L 157.8 319.4 L 157.591 305.8 C 157.372 291.545 157.348 291.353 155.337 287.381 C 154.248 285.23 154.239 285.161 154.936 284.092 C 156.1 282.307 157.215 279.709 157.826 277.363 C 158.693 274.036 158.667 231.867 157.797 228.52 C 155.867 221.1 150.242 215.668 142.8 214.038 C 141.123 213.671 125.74 213.585 78.1 213.678 L 15.6 213.8 L 15.6 177.1 L 15.6 140.4 L 199.957 140.4 C 367.698 140.4 384.336 140.457 384.557 141.033 C 384.879 141.87 384.873 314.737 384.551 316.344 C 384.414 317.029 383.85 318.041 383.297 318.594 L 382.291 319.6 L 348.818 319.6 C 319.394 319.6 315.086 319.677 313.205 320.236 C 310.514 321.035 308.577 322.944 307.956 325.409 C 307.706 326.401 307.344 327.311 307.151 327.43 C 306.663 327.732 306.708 330.8 307.2 330.8 C 307.42 330.8 307.6 331.106 307.6 331.481 C 307.6 332.734 311.076 335.6 312.597 335.6 C 313.343 335.6 314.064 335.78 314.2 336 C 314.542 336.553 381.6 336.553 381.6 336 C 381.6 335.778 382.667 335.6 384 335.6 C 385.333 335.6 386.4 335.422 386.4 335.2 C 386.4 334.98 386.94 334.8 387.6 334.8 C 388.26 334.8 388.8 334.62 388.8 334.4 C 388.8 334.18 389.16 334 389.6 334 C 390.04 334 390.4 333.82 390.4 333.6 C 390.4 333.38 390.63 333.2 390.912 333.2 C 391.193 333.2 391.683 332.84 392 332.4 C 392.317 331.96 392.813 331.6 393.102 331.6 C 393.784 331.6 396.4 328.984 396.4 328.302 C 396.4 328.013 396.76 327.517 397.2 327.2 C 397.64 326.883 398 326.303 398 325.912 C 398 325.52 398.136 325.2 398.302 325.2 C 398.469 325.2 398.874 324.615 399.202 323.9 C 400.025 322.111 400.122 54.774 399.3 54.5 C 399.025 54.408 398.8 54.114 398.8 53.846 C 398.8 53.137 397.851 51.207 397.5 51.203 C 397.335 51.201 397.2 50.954 397.2 50.654 C 397.2 49.878 392.997 45.6 392.235 45.6 C 391.886 45.6 391.6 45.448 391.6 45.263 C 391.6 45.077 390.745 44.518 389.7 44.019 C 388.655 43.52 387.44 42.907 387 42.656 C 386.244 42.225 18.293 41.845 15 42.273 M 383.345 59.455 L 384.4 60.509 L 384.4 92.855 L 384.4 125.2 L 200 125.2 L 15.6 125.2 L 15.6 92.922 L 15.6 60.644 L 16.675 59.522 L 17.75 58.4 L 200.02 58.4 L 382.291 58.4 L 383.345 59.455 M 51.989 85.237 C 48.268 87.395 47.166 93.197 49.866 96.406 C 55.445 103.036 65.983 96.716 62.633 88.749 C 60.983 84.827 55.7 83.084 51.989 85.237 M 82.944 85.541 C 75.629 90.841 81.753 102.122 90.051 98.633 C 95.402 96.383 96.007 88.658 91.083 85.465 C 88.68 83.907 85.155 83.94 82.944 85.541 M 114.698 85.228 C 108.143 88.688 110.848 99.2 118.293 99.2 C 124.226 99.2 127.823 92.542 124.557 87.607 C 122.528 84.541 118.048 83.46 114.698 85.228 M 269.4 157.679 C 264.638 158.556 262.939 158.905 262 159.196 C 261.45 159.367 260.19 159.729 259.2 159.999 C 258.21 160.27 257.04 160.639 256.6 160.819 C 256.16 161 255.08 161.379 254.2 161.663 C 250.114 162.982 239.23 168.974 235.437 171.993 C 224.823 180.44 217.078 190.658 211.933 203 C 205.569 218.266 205.06 237.285 210.573 253.8 C 212.846 260.609 219.167 271.983 223.311 276.718 C 228.966 283.181 235.895 289.308 240.535 291.947 C 241.451 292.468 242.29 293.019 242.4 293.173 C 242.699 293.589 252.574 298.4 253.13 298.4 C 253.395 298.4 253.923 298.559 254.305 298.753 C 266.154 304.781 287.944 304.94 305 299.125 C 308.109 298.065 317.913 293.287 318.8 292.4 C 318.91 292.29 320.17 291.402 321.6 290.426 C 331.976 283.347 340.108 273.841 345.934 261.98 C 347.29 259.22 348.4 256.691 348.4 256.36 C 348.4 256.03 348.549 255.589 348.73 255.38 C 348.912 255.171 349.293 254.19 349.577 253.2 C 349.861 252.21 350.24 250.95 350.419 250.4 C 353.677 240.416 353.921 222.906 350.952 212.068 C 350.61 210.821 350.189 209.26 350.017 208.6 C 349.742 207.551 349.118 205.81 348.01 203 C 347.498 201.703 343.441 193.418 343.21 193.2 C 343.094 193.09 342.755 192.526 342.457 191.948 C 336.775 180.904 320.399 167.239 306.6 162.028 C 305.28 161.53 303.84 160.98 303.4 160.807 C 302.96 160.633 301.79 160.27 300.8 159.999 C 299.81 159.729 298.55 159.367 298 159.196 C 297.02 158.892 295.032 158.494 290.176 157.631 C 287.293 157.118 272.253 157.153 269.4 157.679 M 272.409 179.043 C 272.695 187.321 274.339 189.595 280.04 189.599 C 285.646 189.602 287.6 186.661 287.6 178.222 L 287.6 172.697 L 289.668 172.971 C 290.805 173.122 292.74 173.521 293.968 173.857 C 295.196 174.194 296.74 174.61 297.4 174.782 C 314.974 179.369 331.39 196.842 336.312 216.2 C 338.222 223.71 338.617 223.052 332.055 223.288 C 323.968 223.578 321.2 225.512 321.2 230.874 C 321.2 236.435 324.025 238.4 332.017 238.4 C 338.032 238.4 337.813 238.119 336.378 244 C 332.921 258.17 323.791 270.957 311.333 279.078 C 306.443 282.265 300.69 284.814 295 286.315 C 294.12 286.547 292.659 286.931 291.754 287.168 C 290.848 287.406 289.543 287.6 288.854 287.6 L 287.6 287.6 L 287.6 282.78 C 287.6 275.471 285.153 272 280 272 C 274.74 272 272.413 275.466 272.404 283.313 C 272.399 287.91 272.326 287.986 268.637 287.243 C 256.351 284.769 243.765 277.453 236.332 268.466 C 232.958 264.388 231.2 262.102 231.2 261.796 C 231.2 261.657 230.694 260.792 230.075 259.872 C 229.456 258.952 228.485 257.21 227.918 256 C 227.007 254.058 226.541 253.003 225.178 249.8 C 224.378 247.919 223.18 243.127 222.943 240.856 L 222.686 238.4 L 227.756 238.4 C 236.055 238.4 239.138 236.142 238.72 230.369 C 238.351 225.264 235.892 223.622 228.067 223.256 L 222.6 223 L 222.713 221.2 C 223.586 207.245 236.684 187.744 250.103 180.419 C 254.503 178.017 255.973 177.295 258.2 176.442 C 259.52 175.936 260.96 175.364 261.4 175.17 C 263.375 174.302 269.703 172.866 271.2 172.946 L 272.2 173 L 272.409 179.043 M 301.2 198.008 C 298.624 198.457 299.013 198.088 285.602 212.8 C 278.628 220.45 279.771 220.025 275.714 216.477 C 271.323 212.638 270.29 211.997 268.069 211.734 C 263.399 211.18 259.6 214.411 259.6 218.935 C 259.6 222.452 260.241 223.262 269 230.805 C 271.42 232.889 273.76 234.922 274.2 235.323 C 278.083 238.865 282.89 238.479 286.6 234.329 C 287.45 233.378 289.799 230.8 291.82 228.6 C 310.372 208.401 310.118 208.72 310.158 205.648 C 310.226 200.512 306.256 197.126 301.2 198.008 M 141.969 230.031 L 143.2 231.262 L 143.2 252.931 L 143.199 274.6 L 142.266 275.685 C 141.753 276.281 140.842 276.956 140.241 277.185 C 138.296 277.924 19.444 277.747 18.004 277.002 C 15.747 275.835 15.6 275.268 15.6 267.711 L 15.6 260.8 L 38.9 260.77 C 63.054 260.738 63.065 260.737 65.867 259.036 C 69.319 256.939 69.886 251.446 67 248.062 C 65.019 245.739 65.885 245.817 39.8 245.6 L 15.8 245.4 L 15.691 238.279 L 15.581 231.157 L 16.76 229.979 L 17.938 228.8 L 79.338 228.8 L 140.738 228.8 L 141.969 230.031 M 92.905 246.623 C 86.144 250.676 90.342 262.796 97.737 260.571 C 102.015 259.283 103.962 256.947 103.986 253.074 C 104.022 247.144 97.942 243.604 92.905 246.623 M 141.326 293.835 C 142.819 295.328 142.858 296.015 142.722 318.491 L 142.6 338.782 L 141.491 339.891 L 140.382 341 L 80.291 341.115 C 15.812 341.238 18.198 341.289 16.645 339.736 L 15.6 338.691 L 15.6 316.915 L 15.6 295.138 L 16.769 293.969 L 17.938 292.8 L 79.115 292.8 L 140.291 292.8 L 141.326 293.835 M 121.813 309.487 C 119.731 309.808 117.466 311.665 116.585 313.773 C 112.772 322.9 125.765 328.782 130.273 319.969 C 133.114 314.415 128.325 308.482 121.813 309.487 M 277 320.412 C 274.717 321.526 273.679 323.693 272.8 325.438 C 272.477 326.079 272.214 326.877 272.2 327.343 C 272.161 328.638 271.772 330.071 272.4 331.413 C 272.737 332.134 274.052 334.386 276.4 335.2 C 279.731 336.355 283.361 335.682 284.308 334.8 C 284.78 334.36 285.348 334 285.569 334 C 285.791 334 286.157 333.654 286.383 333.231 C 286.61 332.808 287.021 332.223 287.297 331.931 C 288.354 330.815 288.083 329.207 288.198 327.998 C 288.244 327.518 287.492 326.729 287.348 325.974 C 286.403 321.02 281.337 318.297 277 320.412" stroke="none" fill="#050506" fill-rule="evenodd">
      <title>Black</title>
    </path>
    <path id="path2" d="M16.000 177.100 L 16.000 213.000 79.300 213.000 C 150.624 213.000,144.550 212.735,149.870 216.081 C 153.720 218.502,156.079 221.627,158.353 227.319 C 158.666 228.101,158.798 235.802,158.794 252.919 C 158.788 277.125,158.677 279.456,157.474 280.659 C 157.323 280.810,157.200 281.177,157.200 281.475 C 157.200 281.773,156.741 282.710,156.181 283.557 L 155.162 285.097 156.222 287.449 C 157.784 290.912,157.918 291.268,158.235 292.800 C 158.395 293.570,158.592 299.825,158.674 306.700 L 158.822 319.200 202.965 319.200 C 250.718 319.200,247.857 319.071,250.407 321.343 C 251.806 322.590,252.601 324.055,253.227 326.540 L 253.695 328.400 262.647 328.400 L 271.600 328.400 271.600 326.824 C 271.600 325.957,271.780 325.136,272.000 325.000 C 272.220 324.864,272.400 324.476,272.400 324.138 C 272.400 321.709,276.316 319.129,280.003 319.129 C 284.395 319.129,286.763 321.145,288.193 326.100 L 288.857 328.400 297.828 328.400 L 306.800 328.400 306.800 326.824 C 306.800 325.957,306.980 325.136,307.200 325.000 C 307.420 324.864,307.600 324.403,307.600 323.976 C 307.600 323.549,307.780 323.200,308.000 323.200 C 308.220 323.200,308.400 323.012,308.400 322.783 C 308.400 322.142,309.641 320.974,311.312 320.043 C 312.817 319.204,312.995 319.200,346.832 319.200 C 383.762 319.200,382.490 319.276,383.522 317.011 C 383.888 316.208,384.000 295.476,384.000 228.581 L 384.000 141.200 200.000 141.200 L 16.000 141.200 16.000 177.100 M289.000 156.642 C 290.540 156.765,291.971 157.030,292.180 157.232 C 292.389 157.435,293.323 157.600,294.256 157.600 C 295.189 157.600,296.064 157.780,296.200 158.000 C 296.336 158.220,297.056 158.400,297.800 158.400 C 298.544 158.400,299.264 158.580,299.400 158.800 C 299.536 159.020,300.166 159.200,300.800 159.200 C 301.434 159.200,302.064 159.380,302.200 159.600 C 302.336 159.820,302.799 160.000,303.229 160.000 C 303.659 160.000,304.323 160.159,304.705 160.353 C 305.087 160.548,305.850 160.884,306.400 161.100 C 308.796 162.042,309.609 162.404,313.262 164.161 C 316.677 165.803,323.056 169.637,323.600 170.375 C 323.710 170.524,324.210 170.927,324.712 171.269 C 330.124 174.966,342.400 188.501,342.400 190.772 C 342.400 191.007,342.535 191.200,342.701 191.200 C 342.866 191.200,343.447 192.055,343.991 193.100 C 344.535 194.145,345.075 195.090,345.190 195.200 C 345.647 195.636,347.200 198.910,347.200 199.438 C 347.200 199.747,347.380 200.000,347.600 200.000 C 347.820 200.000,348.000 200.272,348.000 200.605 C 348.000 200.938,348.159 201.523,348.353 201.905 C 351.923 208.922,353.792 218.754,353.770 230.400 C 353.748 241.907,351.891 251.540,348.353 258.495 C 348.159 258.877,348.000 259.462,348.000 259.795 C 348.000 260.128,347.820 260.400,347.600 260.400 C 347.380 260.400,347.200 260.652,347.200 260.959 C 347.200 262.219,341.293 272.334,340.323 272.733 C 340.145 272.807,339.998 273.077,339.995 273.333 C 339.990 273.828,338.892 275.237,334.984 279.768 C 332.135 283.071,325.773 288.717,323.100 290.315 C 322.495 290.677,322.000 291.114,322.000 291.286 C 322.000 291.459,321.764 291.600,321.475 291.600 C 321.187 291.600,320.602 291.924,320.175 292.320 C 319.749 292.716,319.130 293.162,318.800 293.311 C 318.470 293.460,317.300 294.122,316.200 294.782 C 314.265 295.944,310.748 297.707,308.900 298.442 C 308.405 298.639,307.595 298.974,307.100 299.187 C 294.589 304.567,272.801 305.634,259.600 301.512 C 255.579 300.256,252.854 299.243,251.105 298.353 C 250.723 298.159,250.138 298.000,249.805 298.000 C 249.472 298.000,249.200 297.820,249.200 297.600 C 249.200 297.380,248.966 297.200,248.680 297.200 C 247.944 297.200,246.007 296.259,246.003 295.900 C 246.001 295.735,245.640 295.600,245.200 295.600 C 244.760 295.600,244.400 295.441,244.400 295.247 C 244.400 295.052,244.085 294.793,243.700 294.671 C 242.764 294.375,240.634 293.076,240.467 292.700 C 240.393 292.535,240.078 292.400,239.767 292.400 C 239.455 292.400,239.200 292.220,239.200 292.000 C 239.200 291.780,239.022 291.600,238.805 291.600 C 238.587 291.600,238.092 291.340,237.705 291.022 C 237.317 290.705,235.830 289.580,234.400 288.524 C 231.525 286.401,224.455 279.499,222.595 277.000 C 221.940 276.120,221.294 275.310,221.158 275.200 C 220.372 274.562,215.326 266.506,214.018 263.800 C 211.408 258.402,210.000 254.949,210.000 253.951 C 210.000 253.538,209.820 253.200,209.600 253.200 C 209.380 253.200,209.200 252.671,209.200 252.024 C 209.200 251.377,209.020 250.736,208.800 250.600 C 208.580 250.464,208.400 249.859,208.400 249.256 C 208.400 248.653,208.238 247.989,208.041 247.780 C 207.844 247.571,207.580 246.680,207.456 245.800 C 207.332 244.920,207.011 242.940,206.744 241.400 C 205.719 235.497,206.183 220.958,207.599 214.600 C 207.844 213.500,208.144 212.013,208.266 211.296 C 208.388 210.579,208.649 209.894,208.844 209.773 C 209.040 209.652,209.200 209.124,209.200 208.600 C 209.200 208.076,209.380 207.536,209.600 207.400 C 209.820 207.264,210.000 206.801,210.000 206.372 C 210.000 205.943,210.378 204.738,210.840 203.696 C 211.302 202.653,211.824 201.440,212.001 201.000 C 212.655 199.374,215.253 194.156,216.085 192.800 C 217.552 190.408,220.862 185.482,221.343 184.976 C 221.594 184.711,222.430 183.712,223.200 182.757 C 225.345 180.094,231.179 174.410,233.828 172.401 C 235.133 171.412,236.290 170.490,236.400 170.353 C 237.762 168.655,252.705 160.800,254.572 160.800 C 254.891 160.800,255.264 160.620,255.400 160.400 C 255.536 160.180,256.076 160.000,256.600 160.000 C 257.124 160.000,257.664 159.820,257.800 159.600 C 257.936 159.380,258.566 159.200,259.200 159.200 C 259.834 159.200,260.464 159.020,260.600 158.800 C 260.736 158.580,261.431 158.400,262.144 158.400 C 262.857 158.400,263.611 158.238,263.820 158.041 C 264.231 157.652,265.848 157.389,271.345 156.814 C 273.295 156.610,275.005 156.326,275.145 156.182 C 275.393 155.929,283.328 156.192,289.000 156.642 " stroke="none" fill="#fbfbfb" fill-rule="evenodd">
      <title>White</title>
    </path>
  </g>
</svg>