<svg id="Capa_1" enable-background="new 0 0 511.999 511.999" height="512" viewBox="0 0 511.999 511.999" width="512" xmlns="http://www.w3.org/2000/svg"><g><g><path d="m255.956 7.833c-90.89 0-164.57 73.68-164.57 164.569v240.809l6.362 6.835h317l5.778-6.835v-240.809c0-90.889-73.68-164.569-164.57-164.569z" fill="#e4f6ff"/><path d="m137.733 172.402c0-83.022 61.481-151.673 141.396-162.938-7.572-1.067-15.306-1.632-23.173-1.632-90.89 0-164.57 73.68-164.57 164.569v240.809l6.362 6.835h46.346l-6.362-6.835v-240.808z" fill="#d3effb"/><path d="m375.298 347.111h-11.304c-6.6 0-12 5.4-12 12v9.333c0 6.6 5.4 12 12 12h11.304c6.6 0 12-5.4 12-12v-9.333c0-6.6-5.4-12-12-12z" fill="#b1e4f9"/><path d="m307.955 347.111h-11.304c-6.6 0-12 5.4-12 12v9.333c0 6.6 5.4 12 12 12h11.304c6.6 0 12-5.4 12-12v-9.333c0-6.6-5.4-12-12-12z" fill="#b1e4f9"/><path d="m369.646 368.444v-9.333c0-5.501 3.756-10.155 8.826-11.557-1.013-.28-2.074-.443-3.174-.443h-11.304c-6.6 0-12 5.4-12 12v9.333c0 6.6 5.4 12 12 12h11.304c1.1 0 2.161-.162 3.174-.443-5.07-1.402-8.826-6.057-8.826-11.557z" fill="#90d8f9"/><path d="m302.303 368.444v-9.333c0-5.501 3.756-10.155 8.826-11.557-1.014-.28-2.075-.443-3.174-.443h-11.304c-6.6 0-12 5.4-12 12v9.333c0 6.6 5.4 12 12 12h11.304c1.1 0 2.161-.162 3.174-.443-5.071-1.402-8.826-6.057-8.826-11.557z" fill="#90d8f9"/><ellipse cx="255.956" cy="172.402" fill="#3f6d8e" rx="131.342" ry="131.342" transform="matrix(.924 -.383 .383 .924 -46.492 111.073)"/><path d="m172.961 172.402c0-64.166 46.254-117.724 107.168-129.104-7.838-1.464-15.917-2.238-24.173-2.238-72.422 0-131.342 58.92-131.342 131.342s58.92 131.342 131.342 131.342c8.257 0 16.335-.774 24.173-2.238-60.914-11.38-107.168-64.938-107.168-129.104z" fill="#365e7d"/><ellipse cx="255.956" cy="172.402" fill="#365e7d" rx="86.662" ry="86.662" transform="matrix(.924 -.383 .383 .924 -46.492 111.073)"/><path d="m217.641 172.402c0-39.399 26.429-72.737 62.489-83.227-7.676-2.233-15.786-3.435-24.173-3.435-47.785 0-86.662 38.876-86.662 86.662s38.876 86.662 86.662 86.662c8.387 0 16.498-1.202 24.173-3.435-36.06-10.49-62.489-43.828-62.489-83.227z" fill="#294b64"/><path d="m295.176 170.76-4.927-1.214-15.643-26.667v-5.018c-5.551-3.009-11.904-4.72-18.649-4.72-21.648 0-39.261 17.612-39.261 39.261s17.612 39.261 39.261 39.261 39.261-17.613 39.261-39.261c-.001-.55-.02-1.097-.042-1.642z" fill="#90d8f9"/><path d="m250.042 172.402c0-15.69 9.255-29.254 22.589-35.535-5.064-2.386-10.715-3.726-16.675-3.726-21.648 0-39.261 17.612-39.261 39.261s17.612 39.261 39.261 39.261c5.959 0 11.609-1.341 16.673-3.727-13.333-6.281-22.587-19.844-22.587-35.534z" fill="#75cef9"/><ellipse cx="287.341" cy="152.772" fill="#e4f6ff" rx="19.63" ry="19.631" transform="matrix(.924 -.383 .383 .924 -36.591 121.589)"/><path d="m422.171 413.211h-332.429c-19.289 0-35.071 15.782-35.071 35.071v9.954l6.077 4.811h389l7.493-4.811v-9.954c0-19.29-15.782-35.071-35.07-35.071z" fill="#d3effb"/><path d="m101.018 448.281c0-19.289 15.782-35.071 35.071-35.071h-46.347c-19.289 0-35.071 15.782-35.071 35.071v9.954l6.077 4.811h46.346l-6.077-4.811v-9.954z" fill="#b1e4f9"/><path d="m468.229 458.235h-424.545c-7.406 0-13.41 6.004-13.41 13.41v19.777c0 7.406 6.004 13.41 13.41 13.41h424.546c7.406 0 13.41-6.004 13.41-13.41v-19.777c-.001-7.406-6.005-13.41-13.411-13.41z" fill="#b1e4f9"/><path d="m76.62 491.422v-19.777c0-7.406 6.004-13.41 13.41-13.41h-46.347c-7.406 0-13.41 6.004-13.41 13.41v19.777c0 7.406 6.004 13.41 13.41 13.41h46.347c-7.406 0-13.41-6.004-13.41-13.41z" fill="#90d8f9"/></g><g><path d="m255.999 0c-94.879 0-172.069 77.19-172.069 172.069v233.721c-20.711 2.863-36.716 20.672-36.716 42.158v2.454h-3.487c-11.53 0-20.91 9.38-20.91 20.91v19.777c0 11.53 9.38 20.91 20.91 20.91h194.772c4.143 0 7.5-3.358 7.5-7.5s-3.357-7.5-7.5-7.5h-194.772c-3.259 0-5.91-2.651-5.91-5.91v-19.777c0-3.259 2.651-5.91 5.91-5.91h424.546c3.259 0 5.91 2.651 5.91 5.91v19.777c0 3.259-2.651 5.91-5.91 5.91h-194.774c-4.143 0-7.5 3.358-7.5 7.5s3.357 7.5 7.5 7.5h194.773c11.53 0 20.91-9.38 20.91-20.91v-19.777c0-11.53-9.38-20.91-20.91-20.91h-3.488v-2.454c0-21.486-16.003-39.295-36.715-42.158v-233.721c0-94.879-77.19-172.069-172.07-172.069zm-157.069 370.944h157.069c4.143 0 7.5-3.358 7.5-7.5s-3.357-7.5-7.5-7.5h-157.069v-183.875c0-86.608 70.461-157.069 157.069-157.069s157.07 70.461 157.07 157.069v233.309h-314.139zm350.854 77.005v2.454h-387.57v-2.454c0-13.925 10.535-27.571 29.216-27.571h329.14c18.627 0 29.214 13.628 29.214 27.571z"/><path d="m255.999 33.228c-76.558 0-138.842 62.284-138.842 138.842s62.284 138.842 138.842 138.842 138.842-62.284 138.842-138.842-62.284-138.842-138.842-138.842zm0 262.684c-68.286 0-123.842-55.555-123.842-123.842s55.556-123.842 123.842-123.842 123.842 55.555 123.842 123.842c0 68.286-55.556 123.842-123.842 123.842z"/><path d="m287.384 125.309c-4.9 0-9.497 1.313-13.469 3.595-5.656-2.349-11.762-3.595-17.915-3.595-25.784 0-46.761 20.977-46.761 46.761s20.977 46.761 46.761 46.761c24.854 0 45.235-19.493 46.673-43.993 7.144-4.891 11.842-13.105 11.842-22.398-.001-14.961-12.171-27.131-27.131-27.131zm-31.385 78.522c-17.513 0-31.761-14.248-31.761-31.761s14.248-31.761 31.761-31.761c2.282 0 4.554.248 6.773.733-8.231 17.693 4.527 38.153 24.095 38.523-3.378 13.907-15.936 24.266-30.868 24.266zm31.385-39.262c-6.689 0-12.131-5.442-12.131-12.13 0-6.587 5.367-12.13 12.131-12.13 6.688 0 12.13 5.442 12.13 12.13 0 6.77-5.549 12.13-12.13 12.13z"/><path d="m375.341 339.278h-11.304c-10.752 0-19.5 8.748-19.5 19.5v9.333c0 10.752 8.748 19.5 19.5 19.5h11.304c10.752 0 19.5-8.748 19.5-19.5v-9.333c0-10.753-8.748-19.5-19.5-19.5zm4.5 28.833c0 2.439-2.061 4.5-4.5 4.5h-11.304c-2.439 0-4.5-2.061-4.5-4.5v-9.333c0-2.439 2.061-4.5 4.5-4.5h11.304c2.439 0 4.5 2.061 4.5 4.5z"/><path d="m307.998 339.278h-11.304c-10.752 0-19.5 8.748-19.5 19.5v9.333c0 10.752 8.748 19.5 19.5 19.5h11.304c10.752 0 19.5-8.748 19.5-19.5v-9.333c0-10.753-8.748-19.5-19.5-19.5zm4.5 28.833c0 2.439-2.061 4.5-4.5 4.5h-11.304c-2.439 0-4.5-2.061-4.5-4.5v-9.333c0-2.439 2.061-4.5 4.5-4.5h11.304c2.439 0 4.5 2.061 4.5 4.5z"/><path d="m255.999 77.908c-51.921 0-94.162 42.241-94.162 94.162s42.241 94.162 94.162 94.162c45.227 0 84.139-32.241 92.525-76.661.769-4.07-1.908-7.993-5.979-8.761-4.074-.766-7.993 1.908-8.762 5.978-7.05 37.341-39.763 64.444-77.785 64.444-43.65 0-79.162-35.512-79.162-79.162s35.512-79.162 79.162-79.162c36.764 0 69.257 26.035 77.263 61.906.903 4.042 4.915 6.588 8.954 5.686 4.043-.902 6.589-4.911 5.687-8.954-9.442-42.301-47.3-73.638-91.903-73.638z"/></g></g></svg>