<?xml version="1.0" encoding="utf-8"?>
<svg id="svg" version="1.1" width="400" height="400" viewBox="0, 0, 400,400" xmlns="http://www.w3.org/2000/svg">
  <g id="svgg">
    <path id="path6" d="M 88.827 50.051 C 88.725 52.501 91.285 55.171 94.477 55.945 C 95.858 56.28 127.413 56.4 213.849 56.4 C 305.183 56.4 331.661 56.509 332.772 56.887 C 337.17 58.388 341.095 62.576 342.252 67 C 342.822 69.182 342.912 327.482 342.343 330 C 341.745 332.651 341.15 333.772 338.461 337.321 C 336.173 340.342 335.873 341.904 336.988 345 C 337.678 346.914 337.797 345.749 337.136 343.545 C 336.577 341.677 337.159 339.509 338.694 337.744 C 340.785 335.341 341.531 334.123 342.352 331.773 L 343.2 329.347 L 343.194 198.773 C 343.189 83.269 343.119 68 342.583 66.463 C 341.16 62.377 339.045 59.691 335.706 57.727 C 331.881 55.478 339.587 55.61 212.026 55.605 L 94.253 55.6 L 92.563 54.782 C 91.466 54.251 90.675 53.515 90.305 52.682 C 89.992 51.977 89.537 50.95 89.295 50.4 C 89.013 49.76 88.844 49.635 88.827 50.051 M 77.246 50.52 C 77.08 53.096 74.755 55 71.054 55.591 C 64.213 56.684 59.61 60.255 57.461 66.137 C 57.118 67.076 56.949 98.919 56.8 190.431 L 56.6 313.462 L 55.489 314.918 C 54.737 315.905 53.834 316.529 52.689 316.855 C 50.401 317.505 49.886 318.03 52.004 317.555 C 54.109 317.082 55.01 316.465 56.24 314.656 L 57.2 313.242 L 57.2 191.281 C 57.2 121.853 57.352 68.82 57.553 68.16 C 57.748 67.522 58.136 66.235 58.417 65.3 C 58.698 64.365 59.079 63.6 59.264 63.6 C 59.449 63.6 59.6 63.365 59.6 63.078 C 59.6 60.982 66.585 56.4 69.782 56.4 C 73.894 56.4 78.159 53.144 77.48 50.524 C 77.301 49.832 77.291 49.831 77.246 50.52 M 143.732 69.9 C 174.935 69.957 225.875 69.957 256.932 69.9 C 287.99 69.843 262.46 69.797 200.2 69.797 C 137.94 69.797 112.53 69.843 143.732 69.9 M 69.797 200.2 C 69.797 262.46 69.843 287.87 69.9 256.668 C 69.957 225.465 69.957 174.525 69.9 143.468 C 69.843 112.41 69.797 137.94 69.797 200.2 M 117.435 112.412 C 113.298 114.478 113.051 115.199 112.871 125.716 C 112.788 130.509 112.832 134.874 112.968 135.416 L 113.215 136.4 L 130.959 136.4 C 144.672 136.4 148.794 136.286 149.105 135.9 C 149.577 135.314 150.232 132.467 149.8 132.88 C 149.639 133.034 149.386 133.754 149.237 134.48 L 148.967 135.8 L 131.284 135.904 L 113.6 136.008 L 113.617 126.504 C 113.635 116.149 113.772 115.425 116.045 113.646 C 118.101 112.038 118.806 112.02 181.305 112.01 L 242.01 112 L 241.905 142.78 C 241.847 159.709 241.936 173.424 242.103 173.258 C 242.269 173.091 242.359 159.195 242.303 142.377 L 242.2 111.8 L 180.6 111.715 C 120.193 111.632 118.97 111.646 117.435 112.412 M 253.784 112.1 C 253.679 112.375 253.641 126.37 253.699 143.2 L 253.805 173.8 L 253.903 142.877 L 254 111.953 L 268.163 112.077 C 275.952 112.144 282.117 112.068 281.863 111.906 C 280.995 111.355 253.997 111.541 253.784 112.1 M 283.909 113.44 C 284.629 114.008 285.566 115.131 285.991 115.936 C 286.417 116.741 286.773 117.158 286.782 116.862 C 286.819 115.737 284.003 112.425 283 112.413 C 282.78 112.411 283.189 112.873 283.909 113.44 M 170 116.805 C 168.633 117.014 169.203 117.094 172.367 117.14 C 174.658 117.173 176.458 117.135 176.367 117.056 C 175.98 116.721 171.661 116.551 170 116.805 M 164.875 117.873 C 162.328 118.774 163.052 118.887 165.817 118.02 C 167.128 117.609 167.84 117.271 167.4 117.268 C 166.96 117.265 165.824 117.538 164.875 117.873 M 177.8 117.6 C 178.996 118.114 179.995 118.114 179.2 117.6 C 178.87 117.387 178.24 117.222 177.8 117.234 L 177 117.256 L 177.8 117.6 M 180.4 118.4 C 180.73 118.613 181.27 118.788 181.6 118.788 C 182.133 118.788 182.133 118.745 181.6 118.4 C 181.27 118.187 180.73 118.012 180.4 118.012 C 179.867 118.012 179.867 118.055 180.4 118.4 M 286.899 183.102 L 286.8 248.404 L 246.7 248.302 L 206.6 248.2 L 206.496 227.845 C 206.421 213.147 206.518 207.339 206.845 206.945 C 207.193 206.527 208.753 206.401 213.549 206.406 C 219.863 206.412 220.495 206.515 220.908 207.6 C 221.093 208.085 221.143 208.068 221.168 207.514 C 221.242 205.908 208.147 205.11 206.629 206.629 C 205.803 207.454 205.66 247.5 206.48 248.32 C 207.195 249.035 286.743 249.015 287.015 248.3 C 287.12 248.025 287.159 218.55 287.101 182.8 L 286.998 117.8 L 286.899 183.102 M 182.4 118.962 C 182.4 119.051 183.345 119.678 184.5 120.355 C 185.655 121.032 187.23 122.06 188 122.638 C 189.293 123.61 189.28 123.58 187.823 122.237 C 186.02 120.573 182.4 118.388 182.4 118.962 M 158.7 121.014 C 156.102 122.92 156.301 123.14 159 121.347 C 160.21 120.544 161.2 119.822 161.2 119.743 C 161.2 119.354 160.427 119.747 158.7 121.014 M 189.6 123.776 C 189.6 123.925 190.183 124.801 190.896 125.723 C 191.609 126.646 192.239 127.475 192.296 127.567 C 192.353 127.658 192.474 127.658 192.564 127.567 C 192.655 127.475 192.025 126.524 191.164 125.453 C 190.304 124.382 189.6 123.627 189.6 123.776 M 151.536 128.9 C 150.511 130.561 149.864 131.997 150.055 132.188 C 150.159 132.292 150.727 131.393 151.318 130.189 C 152.417 127.947 152.528 127.293 151.536 128.9 M 179.44 130.746 C 181.462 132.231 182.515 133.427 183.536 135.4 C 183.992 136.28 184.373 136.858 184.382 136.684 C 184.462 135.261 179.599 129.6 178.297 129.6 C 178.068 129.6 178.582 130.116 179.44 130.746 M 193.6 129.729 C 193.6 130.171 195.171 132.9 195.184 132.48 C 195.202 131.902 194.087 129.6 193.79 129.6 C 193.685 129.6 193.6 129.658 193.6 129.729 M 195.212 133.6 C 195.212 133.93 195.387 134.47 195.6 134.8 C 195.945 135.333 195.988 135.333 195.988 134.8 C 195.988 134.47 195.813 133.93 195.6 133.6 C 195.255 133.067 195.212 133.067 195.212 133.6 M 196.153 140.8 C 196.158 143.55 196.284 145.26 196.434 144.6 C 196.808 142.947 196.816 139.326 196.449 137.4 C 196.242 136.312 196.148 137.399 196.153 140.8 M 184.6 140.8 C 184.6 142.518 184.732 143.716 184.894 143.462 C 185.056 143.208 185.188 142.01 185.188 140.8 C 185.188 139.59 185.056 138.392 184.894 138.138 C 184.732 137.884 184.6 139.082 184.6 140.8 M 195.473 146.953 C 195.323 147.345 195.211 147.966 195.225 148.333 C 195.242 148.775 195.381 148.674 195.637 148.034 C 195.849 147.503 195.961 146.882 195.885 146.654 C 195.809 146.427 195.624 146.561 195.473 146.953 M 182.226 148.3 C 181.362 149.405 181.293 149.59 181.963 149.004 C 182.765 148.304 183.823 146.8 183.514 146.8 C 183.451 146.8 182.872 147.475 182.226 148.3 M 112.996 148.496 C 112.336 151.195 113.005 280.609 113.686 281.852 C 114.616 283.552 116.516 285.083 118.312 285.582 C 120.97 286.321 143.464 286.13 143.757 285.367 C 144.766 282.739 143.876 260 142.764 260 C 140.738 260 134.621 253.988 132.529 249.941 C 131.807 248.543 131.051 247.692 131.208 247.951 C 132.398 249.915 136.774 256.566 140.831 259.392 L 143.612 261.225 L 143.506 273.312 L 143.4 285.4 L 130.8 285.4 L 118.2 285.4 L 116.719 284.4 C 113.287 282.083 113.6 289.133 113.6 214.246 L 113.6 148 L 131.32 148 C 144.947 148 149.162 148.116 149.57 148.5 C 149.998 148.904 150.065 148.884 149.917 148.4 C 149.758 147.88 147.296 147.786 131.475 147.696 L 113.217 147.592 L 112.996 148.496 M 150 149.353 C 150 149.782 151.19 152 151.421 152 C 151.531 152 151.323 151.415 150.959 150.7 C 150.217 149.24 150 148.936 150 149.353 M 194.159 150.668 C 192.886 153.421 190.512 156.617 188.134 158.78 C 186.85 159.947 186.173 160.71 186.629 160.475 C 189.027 159.24 195.904 150.171 195.073 149.339 C 194.96 149.227 194.549 149.825 194.159 150.668 M 175 152.8 L 174.2 153.144 L 175 153.166 C 175.44 153.178 176.07 153.013 176.4 152.8 C 177.195 152.286 176.196 152.286 175 152.8 M 154.051 156.384 C 155.357 158.15 160.798 162.394 161.762 162.398 C 161.961 162.399 161.061 161.709 159.762 160.863 C 158.463 160.018 156.538 158.398 155.484 157.263 C 153.353 154.969 152.716 154.577 154.051 156.384 M 164.711 163.823 L 165.6 164.445 L 165.6 183.633 L 165.6 202.821 L 167.389 204.611 L 169.179 206.4 L 181.747 206.4 C 192.838 206.4 194.343 206.474 194.557 207.033 C 194.875 207.86 194.875 284.14 194.557 284.967 C 194.34 285.532 192.24 285.6 174.965 285.6 L 155.615 285.6 L 155.392 284.7 C 155.269 284.205 155.221 279.002 155.284 273.138 C 155.348 267.274 155.265 262.559 155.1 262.661 C 154.744 262.882 154.69 284.448 155.043 285.367 C 155.26 285.932 157.392 286 174.996 286 L 194.707 286 L 194.948 285.1 C 195.39 283.45 195.233 207.61 194.786 206.774 C 194.39 206.034 193.822 206 181.948 206 C 164.318 206 166 208.384 166 183.394 C 166 164.447 165.907 163.2 164.497 163.2 C 163.955 163.2 163.998 163.323 164.711 163.823 M 179.4 163.6 C 179.108 164.073 179.499 164.073 180.6 163.6 C 181.371 163.269 181.369 163.255 180.524 163.228 C 180.042 163.213 179.536 163.38 179.4 163.6 M 239.8 174 C 239.029 174.331 239.031 174.345 239.876 174.372 C 240.358 174.387 240.864 174.22 241 174 C 241.292 173.527 240.901 173.527 239.8 174 M 254.6 174 C 254.736 174.22 255.242 174.387 255.724 174.372 C 256.569 174.345 256.571 174.331 255.8 174 C 254.699 173.527 254.308 173.527 254.6 174 M 235.8 175.544 C 231.753 177.473 223.745 184.4 225.563 184.4 C 225.803 184.4 226 184.251 226 184.068 C 226 182.779 231.883 177.962 235.899 175.963 C 237.605 175.115 238.82 174.416 238.6 174.41 C 238.38 174.405 237.12 174.915 235.8 175.544 M 259.207 175.49 C 259.211 175.66 260.066 176.203 261.107 176.695 C 263.166 177.668 268 181.401 268 182.018 C 268 182.228 268.214 182.4 268.475 182.4 C 268.736 182.4 268.421 181.842 267.775 181.159 C 265.698 178.966 259.188 174.658 259.207 175.49 M 270.613 185.356 C 271.596 186.761 272.4 187.999 272.4 188.107 C 272.4 188.609 273.668 191.265 273.831 191.103 C 274.282 190.652 269.826 182.812 269.113 182.803 C 268.956 182.802 269.631 183.95 270.613 185.356 M 245.633 184.545 C 245.725 184.625 247.24 184.787 249 184.905 C 250.851 185.029 251.863 184.979 251.4 184.788 C 250.633 184.47 245.29 184.246 245.633 184.545 M 223.787 186.587 C 223.191 187.604 222.81 188.544 222.942 188.675 C 223.074 188.807 223.305 188.574 223.456 188.157 C 223.607 187.741 224.081 186.895 224.509 186.277 C 224.937 185.659 225.194 185.06 225.079 184.946 C 224.964 184.831 224.383 185.569 223.787 186.587 M 254.8 186.176 C 254.8 186.288 255.38 186.679 256.088 187.046 C 256.797 187.412 258.364 188.722 259.57 189.956 C 261.449 191.879 261.573 191.955 260.437 190.487 C 258.846 188.431 254.8 185.336 254.8 186.176 M 221.4 191.6 C 221.25 192.073 221.217 192.55 221.327 192.66 C 221.437 192.77 221.65 192.473 221.8 192 C 221.95 191.527 221.983 191.05 221.873 190.94 C 221.763 190.83 221.55 191.127 221.4 191.6 M 274.006 192.233 C 274.009 192.655 274.195 193.27 274.418 193.6 C 274.715 194.038 274.752 193.876 274.556 193 C 274.227 191.529 273.998 191.21 274.006 192.233 M 220.832 193.692 C 220.781 194.798 220.06 194.831 198.138 194.713 C 186.664 194.651 177.36 194.735 177.462 194.9 C 177.564 195.065 187.142 195.2 198.747 195.2 C 220.669 195.2 221.703 195.124 221.087 193.565 C 220.921 193.145 220.855 193.178 220.832 193.692 M 274.897 196 C 274.896 196.99 275.032 198.34 275.2 199 L 275.505 200.2 L 275.523 199 C 275.533 198.34 275.397 196.99 275.22 196 L 274.9 194.2 L 274.897 196 M 263.287 196.6 C 263.291 197.04 263.432 197.94 263.6 198.6 C 263.874 199.678 263.906 199.698 263.913 198.8 C 263.917 198.25 263.776 197.35 263.6 196.8 C 263.349 196.016 263.281 195.973 263.287 196.6 M 274.993 203.314 C 274.844 204.513 274.795 205.833 274.885 206.247 C 274.975 206.661 275.189 205.771 275.36 204.269 C 275.531 202.766 275.579 201.446 275.468 201.335 C 275.357 201.224 275.143 202.114 274.993 203.314 M 263.44 203.24 C 263.293 204.157 263.252 204.985 263.347 205.08 C 263.442 205.176 263.646 204.51 263.8 203.6 C 263.954 202.69 263.996 201.862 263.893 201.76 C 263.79 201.657 263.587 202.323 263.44 203.24 M 273.762 209.478 C 272.088 214.827 266.574 221.751 262.192 224.004 C 261.182 224.524 260.249 225.121 260.119 225.331 C 259.989 225.542 260.854 225.193 262.041 224.557 C 264.067 223.471 271.2 216.809 271.2 216.002 C 271.2 215.8 271.703 214.772 272.318 213.718 C 273.431 211.808 274.955 207.622 274.649 207.316 C 274.561 207.228 274.162 208.2 273.762 209.478 M 221.212 208.8 C 221.212 209.13 221.387 209.67 221.6 210 C 221.945 210.533 221.988 210.533 221.988 210 C 221.988 209.67 221.813 209.13 221.6 208.8 C 221.255 208.267 221.212 208.267 221.212 208.8 M 222 211.013 C 222 211.468 224.063 215.27 224.223 215.11 C 224.316 215.017 223.928 214.009 223.36 212.871 C 222.428 211 222 210.415 222 211.013 M 258.8 212.111 C 258.03 212.82 256.95 213.723 256.4 214.117 C 255.435 214.81 255.446 214.81 256.712 214.124 C 257.852 213.507 260.868 210.781 260.378 210.811 C 260.28 210.817 259.57 211.402 258.8 212.111 M 225.629 217.295 C 227.349 219.803 234 225.647 234 224.65 C 234 224.526 233.036 223.713 231.858 222.843 C 229.84 221.352 227.764 219.354 225.371 216.6 C 224.618 215.733 224.69 215.926 225.629 217.295 M 247.1 216.689 C 247.815 216.778 248.985 216.778 249.7 216.689 C 250.415 216.601 249.83 216.528 248.4 216.528 C 246.97 216.528 246.385 216.601 247.1 216.689 M 151.091 217.089 C 151.801 217.177 153.061 217.179 153.891 217.092 C 154.721 217.005 154.14 216.933 152.6 216.931 C 151.06 216.929 150.381 217 151.091 217.089 M 146.4 217.6 C 145.636 218.094 146.458 218.094 148 217.6 L 149 217.28 L 148 217.246 C 147.45 217.227 146.73 217.387 146.4 217.6 M 157.2 217.6 C 158.742 218.094 159.564 218.094 158.8 217.6 C 158.47 217.387 157.75 217.227 157.2 217.246 L 156.2 217.28 L 157.2 217.6 M 144 218.4 C 143.467 218.745 143.467 218.788 144 218.788 C 144.33 218.788 144.87 218.613 145.2 218.4 C 145.733 218.055 145.733 218.012 145.2 218.012 C 144.87 218.012 144.33 218.187 144 218.4 M 160 218.4 C 160.33 218.613 160.87 218.788 161.2 218.788 C 161.733 218.788 161.733 218.745 161.2 218.4 C 160.87 218.187 160.33 218.012 160 218.012 C 159.467 218.012 159.467 218.055 160 218.4 M 141.6 219.6 C 141.05 220.03 140.78 220.382 141 220.382 C 141.22 220.382 141.85 220.03 142.4 219.6 C 142.95 219.17 143.22 218.818 143 218.818 C 142.78 218.818 142.15 219.17 141.6 219.6 M 162 218.979 C 162 219.089 162.54 219.459 163.2 219.8 C 163.86 220.141 164.4 220.331 164.4 220.221 C 164.4 220.111 163.86 219.741 163.2 219.4 C 162.54 219.059 162 218.869 162 218.979 M 138.654 221.433 C 137.037 222.855 137.507 222.968 139.185 221.561 C 139.947 220.922 140.397 220.406 140.185 220.413 C 139.973 220.42 139.284 220.879 138.654 221.433 M 166 221.491 C 168.97 223.787 171.696 227.213 173.09 230.402 C 174.667 234.01 174.928 235.391 174.937 240.2 C 174.945 244.151 175.007 244.646 175.286 243 C 176.031 238.601 175.075 233.232 172.75 228.766 C 171.455 226.277 166.046 220.395 165.061 220.404 C 164.807 220.407 165.23 220.896 166 221.491 M 135.269 224.718 C 133.599 226.712 131.2 230.771 131.2 231.603 C 131.2 231.866 131.752 231.028 132.426 229.741 C 133.1 228.453 134.462 226.365 135.453 225.1 C 137.633 222.314 137.505 222.047 135.269 224.718 M 236.721 226.078 C 238.108 226.745 239.349 227.185 239.479 227.055 C 239.608 226.925 239.374 226.71 238.957 226.576 C 238.541 226.443 237.508 225.989 236.662 225.567 C 235.816 225.145 234.916 224.815 234.662 224.833 C 234.408 224.851 235.335 225.411 236.721 226.078 M 256 226.818 C 255.562 227.115 255.724 227.152 256.6 226.956 C 258.071 226.627 258.39 226.398 257.367 226.406 C 256.945 226.409 256.33 226.595 256 226.818 M 241 227.6 C 242.196 228.114 243.195 228.114 242.4 227.6 C 242.07 227.387 241.44 227.222 241 227.234 L 240.2 227.256 L 241 227.6 M 253 227.6 L 252.2 227.944 L 253 227.944 C 253.44 227.944 254.16 227.789 254.6 227.6 L 255.4 227.256 L 254.6 227.256 C 254.16 227.256 253.44 227.411 253 227.6 M 245.712 228.295 C 246.764 228.377 248.384 228.376 249.312 228.292 C 250.24 228.208 249.38 228.141 247.4 228.142 C 245.42 228.143 244.66 228.212 245.712 228.295 M 151.9 228.682 C 152.395 228.778 153.205 228.778 153.7 228.682 C 154.195 228.587 153.79 228.509 152.8 228.509 C 151.81 228.509 151.405 228.587 151.9 228.682 M 158.456 230.366 C 158.975 230.787 159.477 231.055 159.571 230.961 C 159.776 230.757 158.344 229.631 157.856 229.613 C 157.666 229.606 157.936 229.945 158.456 230.366 M 130.402 233.862 C 129.289 237.619 129.673 245.806 131.026 247.16 C 131.291 247.424 131.169 245.639 130.6 243.84 C 130.072 242.171 129.93 238.211 130.566 235.2 C 131.184 232.274 131.093 231.533 130.402 233.862 M 163.494 238.4 C 163.614 239.83 163.777 241.075 163.856 241.167 C 164.135 241.489 163.916 237.788 163.598 236.8 C 163.405 236.2 163.363 236.84 163.494 238.4 M 174.249 245.815 C 174.112 246.173 174.015 246.766 174.034 247.133 C 174.053 247.5 174.227 247.269 174.421 246.62 C 174.798 245.358 174.665 244.733 174.249 245.815 M 158.818 248.65 C 157.109 249.863 156.97 250 157.448 250 C 157.658 250 158.453 249.467 159.215 248.816 C 160.888 247.387 160.705 247.31 158.818 248.65 M 172.612 250.14 C 170.541 254.372 165.533 258.917 161.091 260.595 C 160.041 260.991 159.254 261.387 159.341 261.474 C 159.624 261.757 162.946 260.281 165 258.959 C 168.868 256.471 172.35 252.371 173.715 248.7 C 174.252 247.253 173.621 248.078 172.612 250.14 M 206.269 260.265 C 205.884 260.649 205.947 284.898 206.335 285.508 C 206.959 286.492 281.854 286.009 283.506 285.01 C 284.847 284.199 286.814 281.616 286.782 280.709 C 286.773 280.429 286.413 280.865 285.984 281.679 C 285.554 282.492 284.541 283.662 283.733 284.279 L 282.263 285.4 L 244.431 285.4 L 206.6 285.4 L 206.494 272.9 L 206.389 260.4 L 246.587 260.4 L 286.786 260.4 L 286.904 269.9 L 287.021 279.4 L 287.011 269.8 L 287 260.2 L 246.769 260.098 C 224.641 260.042 206.416 260.117 206.269 260.265 M 156.4 262 C 155.636 262.494 156.458 262.494 158 262 L 159 261.68 L 158 261.646 C 157.45 261.627 156.73 261.787 156.4 262 M 50.657 328.893 C 50.762 329.062 51.484 329.2 52.263 329.2 C 54.829 329.2 56.309 330.269 58.585 333.764 C 61.084 337.604 62.203 338.705 65.4 340.473 L 67.8 341.8 L 195.063 342 L 322.326 342.2 L 323.862 343.444 C 324.794 344.198 325.556 345.247 325.799 346.111 C 326.25 347.712 326.8 348.468 326.8 347.485 C 326.8 345.12 324.134 342.353 321.203 341.676 C 319.63 341.313 289.315 341.2 193.744 341.2 L 68.35 341.2 L 65.875 339.992 C 63.434 338.799 60.4 336.363 60.4 335.595 C 60.4 335.378 60.241 335.2 60.047 335.2 C 59.852 335.2 59.593 334.885 59.471 334.5 C 58.795 332.368 56.118 329.32 54.653 329.013 C 52.99 328.666 50.47 328.59 50.657 328.893" stroke="none" fill="#68c0a2" fill-rule="evenodd"/>
    <path id="path3" d="M 77.6 50.139 C 77.6 53.625 70.478 53.705 66.124 53.705 C 62.927 53.705 59.6 60.982 59.6 63.078 C 59.6 63.365 55.021 62.445 54.836 62.445 C 54.651 62.445 58.698 64.365 58.417 65.3 C 58.136 66.235 57.748 67.522 57.553 68.16 C 57.352 68.82 52.844 122.719 52.844 192.139 L 52.002 311.677 L 50.797 313.208 C 49.685 314.888 54.008 317.136 51.952 317.556 L 50.6 317.833 L 50.6 323.216 L 50.6 328.6 L 52.2 328.707 C 53.08 328.765 52.451 330.438 52.92 330.543 C 54.395 330.87 58.798 332.376 59.471 334.5 C 59.593 334.885 59.852 335.2 60.047 335.2 C 60.241 335.2 57.705 337.111 57.705 337.328 C 57.705 338.096 63.049 341.494 65.49 342.687 L 70.468 345.05 L 193.744 343.318 C 289.315 343.318 317.705 343.816 319.278 344.179 C 322.392 344.898 326.8 345.12 326.8 347.819 C 326.8 348.642 326.993 348.8 328 348.8 C 328.66 348.8 329.2 348.62 329.2 348.4 C 329.2 348.179 330.24 348 331.52 348 C 332.796 348 334.011 347.834 334.22 347.631 C 334.429 347.428 337.028 346.834 337.688 346.762 C 339.006 346.618 337.627 347.064 337.087 342.083 C 336.874 340.113 338.041 341.191 340.069 338.514 C 342.793 334.919 341.743 332.657 342.343 330 C 342.912 327.482 345.551 67.233 344.981 65.051 C 343.824 60.627 337.95 55.269 333.552 53.768 C 332.441 53.39 305.414 53.241 214.08 53.241 C 127.644 53.241 97.783 53.97 96.402 53.635 C 93.064 52.826 88.8 52.584 88.8 49.751 L 88.8 48.8 L 83.2 48.8 L 77.6 48.8 L 77.6 50.139 M 274.459 81.122 C 282.196 82.76 315.94 81.185 317.121 88.709 C 317.692 92.346 315.736 310.05 315.165 313.63 C 313.924 321.413 315.176 323.67 307.393 324.911 C 303.813 325.482 97.024 319.252 93.387 318.681 C 87.92 317.823 83.929 316.556 81.618 311.814 C 79.189 306.83 86.344 321.952 86.458 197.533 L 86.173 118.916 L 85.128 92.474 C 87.352 85.928 98.711 88.746 105.777 87.556 C 109.652 86.904 304.488 84.751 307.596 85.41 M 122.316 112.297 C 123.699 112.375 125.859 112.374 127.116 112.295 C 128.372 112.216 127.24 112.152 124.6 112.153 C 121.96 112.153 120.932 112.218 122.316 112.297 M 241.505 142.473 C 241.588 166.653 241.506 173.02 241.105 173.304 C 240.727 173.571 240.751 173.62 241.2 173.497 C 241.853 173.319 242.354 112 241.702 112 C 241.536 112 241.447 125.713 241.505 142.473 M 169.7 116.676 C 170.085 116.776 170.715 116.776 171.1 116.676 C 171.485 116.575 171.17 116.493 170.4 116.493 C 169.63 116.493 169.315 116.575 169.7 116.676 M 155.781 123.3 L 154.2 125 L 155.9 123.419 C 157.481 121.948 157.784 121.6 157.481 121.6 C 157.416 121.6 156.651 122.365 155.781 123.3 M 116.88 135.898 C 118.794 135.971 122.034 135.971 124.08 135.898 C 126.126 135.826 124.56 135.766 120.6 135.765 C 116.64 135.765 114.966 135.824 116.88 135.898 M 116.88 148.298 C 118.794 148.371 122.034 148.371 124.08 148.298 C 126.126 148.226 124.56 148.166 120.6 148.165 C 116.64 148.165 114.966 148.224 116.88 148.298 M 189.6 157.8 C 188.628 158.79 187.923 159.6 188.033 159.6 C 188.143 159.6 189.028 158.79 190 157.8 C 190.972 156.81 191.677 156 191.567 156 C 191.457 156 190.572 156.81 189.6 157.8 M 185.3 161.246 C 183.937 162.119 183.495 162.706 184.7 162.043 C 185.618 161.539 187.056 160.427 186.8 160.419 C 186.69 160.416 186.015 160.788 185.3 161.246 M 162.4 163 C 162.95 163.314 163.58 163.572 163.8 163.572 C 164.02 163.572 163.75 163.314 163.2 163 C 162.65 162.686 162.02 162.428 161.8 162.428 C 161.58 162.428 161.85 162.686 162.4 163 M 164.696 164.036 C 165.07 164.516 165.218 169.173 165.3 183.036 L 165.408 201.4 L 165.504 182.949 C 165.593 165.786 165.551 164.46 164.9 163.949 C 164.281 163.463 164.257 163.473 164.696 164.036 M 177.382 164.902 C 177.276 165.178 177.237 171.973 177.295 180.002 L 177.4 194.6 L 198.6 194.605 L 219.8 194.611 L 198.691 194.502 L 177.581 194.393 L 177.691 179.396 C 177.751 171.148 177.749 164.4 177.687 164.4 C 177.626 164.4 177.488 164.626 177.382 164.902 M 225.601 183.398 C 225.086 183.948 224.739 184.464 224.832 184.546 C 224.924 184.628 225.419 184.178 225.93 183.547 C 227.076 182.135 226.874 182.044 225.601 183.398 M 275.734 200.4 C 275.734 202.05 275.805 202.725 275.891 201.9 C 275.978 201.075 275.978 199.725 275.891 198.9 C 275.805 198.075 275.734 198.75 275.734 200.4 M 176.9 206.699 C 180.145 206.766 185.455 206.766 188.7 206.699 C 191.945 206.632 189.29 206.577 182.8 206.577 C 176.31 206.577 173.655 206.632 176.9 206.699 M 206.88 206.88 C 206.336 207.424 206.16 247.804 206.7 248.138 C 206.865 248.24 207 239.026 207 227.662 L 207 207 L 213.863 207 C 217.638 207 220.518 206.868 220.263 206.706 C 219.447 206.188 207.415 206.345 206.88 206.88 M 194.592 246 C 194.592 267.45 194.641 276.225 194.7 265.5 C 194.759 254.775 194.759 237.225 194.7 226.5 C 194.641 215.775 194.592 224.55 194.592 246 M 151.705 216.687 C 152.314 216.779 153.214 216.777 153.705 216.682 C 154.197 216.587 153.7 216.511 152.6 216.514 C 151.5 216.517 151.097 216.595 151.705 216.687 M 251.505 228.283 C 252.002 228.379 252.722 228.375 253.105 228.275 C 253.487 228.175 253.08 228.096 252.2 228.101 C 251.32 228.105 251.007 228.187 251.505 228.283 M 247.105 228.683 C 247.602 228.779 248.322 228.775 248.705 228.675 C 249.087 228.575 248.68 228.496 247.8 228.501 C 246.92 228.505 246.607 228.587 247.105 228.683 M 175.701 239.8 C 175.705 240.68 175.787 240.993 175.883 240.495 C 175.979 239.998 175.975 239.278 175.875 238.895 C 175.775 238.513 175.696 238.92 175.701 239.8 M 136.2 256 C 137.283 257.1 138.26 258 138.37 258 C 138.48 258 137.683 257.1 136.6 256 C 135.517 254.9 134.54 254 134.43 254 C 134.32 254 135.117 254.9 136.2 256 M 206.591 272.767 C 206.599 283.593 206.683 285.356 207.2 285.497 C 207.638 285.617 207.667 285.566 207.306 285.31 C 206.936 285.048 206.783 281.84 206.697 272.58 L 206.582 260.2 L 206.591 272.767 M 143 273.2 C 143 279.978 143.135 285.44 143.3 285.338 C 143.465 285.236 143.6 279.774 143.6 273.2 C 143.6 266.626 143.465 261.164 143.3 261.062 C 143.135 260.96 143 266.422 143 273.2 M 155.381 262.906 C 155.274 263.184 155.238 268.269 155.3 274.206 L 155.414 285 L 155.507 273.933 C 155.578 265.526 155.72 262.818 156.1 262.665 C 156.492 262.507 156.489 262.456 156.087 262.432 C 155.806 262.414 155.488 262.628 155.381 262.906 M 122.7 285.496 C 124.075 285.574 126.325 285.574 127.7 285.496 C 129.075 285.418 127.95 285.354 125.2 285.354 C 122.45 285.354 121.325 285.418 122.7 285.496" stroke="none" fill-rule="evenodd" style="fill: rgb(166, 196, 255);"/>
    <path id="path0" d="M 110.8 0.276 C 109.925 0.64 108.782 2.047 109.032 2.452 C 109.15 2.643 109.057 2.8 108.824 2.8 C 108.531 2.8 108.4 9.05 108.4 23 L 108.4 43.2 L 100.464 43.2 L 92.527 43.2 L 90.664 44.96 C 87.99 47.486 88.483 51.512 91.795 54.2 L 93.274 55.4 L 212.537 55.6 C 314.199 55.77 332.007 55.884 333.2 56.367 C 337.771 58.218 340.631 61.259 342.749 66.519 C 343.394 68.119 343.395 329.478 342.75 331.081 C 341.68 333.743 341.361 334.315 339.781 336.4 C 337.485 339.431 336.685 341.108 336.938 342.353 C 337.929 347.224 338.373 348 340.171 348 C 340.737 348 341.2 348.18 341.2 348.4 C 341.2 348.62 341.83 348.8 342.6 348.8 C 343.37 348.8 344 348.62 344 348.4 C 344 348.18 344.454 348 345.009 348 C 346.051 348 350.4 344.092 350.4 343.156 C 350.4 342.902 350.729 342.403 351.13 342.047 C 351.532 341.691 352.116 340.815 352.428 340.1 C 352.74 339.385 353.131 338.8 353.298 338.8 C 353.464 338.8 353.6 338.26 353.6 337.6 C 353.6 336.94 353.78 336.4 354 336.4 C 354.22 336.4 354.4 335.86 354.4 335.2 C 354.4 334.54 354.58 334 354.8 334 C 355.025 334 355.2 332.875 355.2 331.424 C 355.2 330.007 355.38 328.736 355.6 328.6 C 355.857 328.441 356 321.796 356 309.976 L 356 291.6 L 376.426 291.6 C 401.387 291.6 399.8 292.024 399.8 285.362 C 399.8 280.882 399.303 279.88 396.826 279.365 C 396.262 279.248 395.487 278.983 395.105 278.776 C 394.7 278.556 386.426 278.4 375.205 278.4 L 356 278.4 L 356 264 L 356 249.6 L 375.8 249.6 C 388.733 249.6 395.6 249.461 395.6 249.2 C 395.6 248.98 396.068 248.8 396.64 248.8 C 400.206 248.8 401.694 238.994 398.353 237.515 C 397.719 237.234 397.2 236.869 397.2 236.702 C 397.2 236.536 387.93 236.4 376.6 236.4 L 356 236.4 L 356 221.6 L 356 206.8 L 376.2 206.8 C 389.4 206.8 396.4 206.661 396.4 206.4 C 396.4 206.18 396.688 206 397.04 206 C 397.391 206 398.201 205.441 398.84 204.758 C 401.34 202.081 399.988 194 397.04 194 C 396.688 194 396.4 193.812 396.4 193.582 C 396.4 193.353 396.175 193.194 395.9 193.23 C 395.625 193.266 386.535 193.273 375.7 193.247 L 356 193.2 L 356 178.4 L 356 163.6 L 376.6 163.6 C 387.93 163.6 397.2 163.464 397.2 163.298 C 397.2 163.131 397.719 162.766 398.353 162.485 C 401.694 161.006 400.206 151.2 396.64 151.2 C 396.068 151.2 395.6 151.02 395.6 150.8 C 395.6 150.539 388.733 150.4 375.8 150.4 L 356 150.4 L 356 136 L 356 121.6 L 375.205 121.6 C 386.426 121.6 394.7 121.444 395.105 121.224 C 395.487 121.017 396.262 120.752 396.826 120.635 C 397.391 120.518 398.291 120.042 398.826 119.577 C 400.97 117.718 399.752 107.67 397.548 109.032 C 397.357 109.15 397.2 109.057 397.2 108.824 C 397.2 108.531 390.832 108.4 376.6 108.4 L 356 108.4 L 356 88.824 C 356 76.204 355.858 69.159 355.6 69 C 355.38 68.864 355.2 67.593 355.2 66.176 C 355.2 64.725 355.025 63.6 354.8 63.6 C 354.58 63.6 354.4 63.071 354.4 62.424 C 354.4 61.777 354.22 61.136 354 61 C 353.78 60.864 353.6 60.403 353.6 59.976 C 353.6 59.549 353.42 59.2 353.2 59.2 C 352.98 59.2 352.8 58.84 352.8 58.4 C 352.8 57.96 352.62 57.6 352.4 57.6 C 352.18 57.6 352 57.24 352 56.8 C 352 56.36 351.85 56 351.668 56 C 351.485 56 351.08 55.505 350.768 54.9 C 350.024 53.459 344.479 48 343.759 48 C 343.452 48 343.2 47.841 343.2 47.647 C 343.2 47.452 342.885 47.193 342.5 47.071 C 341.564 46.775 339.434 45.476 339.267 45.1 C 339.193 44.935 338.619 44.8 337.99 44.8 C 337.362 44.8 336.736 44.62 336.6 44.4 C 336.464 44.18 335.834 44 335.2 44 C 334.566 44 333.933 43.815 333.793 43.589 C 333.654 43.364 333.328 43.205 333.07 43.237 C 332.811 43.269 323.375 43.273 312.1 43.247 L 291.6 43.2 L 291.6 23.174 C 291.6 -1.331 292.016 0.2 285.362 0.2 C 280.882 0.2 279.88 0.697 279.365 3.174 C 279.248 3.738 278.983 4.513 278.776 4.895 C 278.557 5.3 278.4 13.423 278.4 24.395 L 278.4 43.2 L 264 43.2 L 249.6 43.2 L 249.6 23.8 C 249.6 11.133 249.461 4.4 249.2 4.4 C 248.98 4.4 248.8 3.932 248.8 3.36 C 248.8 -0.206 238.994 -1.694 237.515 1.647 C 237.234 2.281 236.869 2.8 236.702 2.8 C 236.536 2.8 236.4 11.89 236.4 23 L 236.4 43.2 L 221.6 43.2 L 206.8 43.2 L 206.8 23.4 C 206.8 10.467 206.661 3.6 206.4 3.6 C 206.18 3.6 206 3.312 206 2.96 C 206 2.609 205.441 1.799 204.758 1.16 C 202.081 -1.34 194 0.012 194 2.96 C 194 3.312 193.812 3.6 193.582 3.6 C 193.353 3.6 193.194 3.825 193.23 4.1 C 193.266 4.375 193.273 13.285 193.247 23.9 L 193.2 43.2 L 178.4 43.2 L 163.6 43.2 L 163.6 23 C 163.6 11.89 163.464 2.8 163.298 2.8 C 163.131 2.8 162.766 2.281 162.485 1.647 C 161.006 -1.694 151.2 -0.206 151.2 3.36 C 151.2 3.932 151.02 4.4 150.8 4.4 C 150.539 4.4 150.4 11.133 150.4 23.8 L 150.4 43.2 L 136 43.2 L 121.6 43.2 L 121.6 24.395 C 121.6 13.423 121.443 5.3 121.224 4.895 C 121.017 4.513 120.752 3.738 120.635 3.174 C 120.098 0.592 114.212 -1.143 110.8 0.276 M 66.171 43.647 C 66.051 43.841 65.434 44 64.8 44 C 64.166 44 63.536 44.18 63.4 44.4 C 63.264 44.62 62.82 44.8 62.414 44.8 C 61.525 44.8 58.4 46.415 58.4 46.874 C 58.4 47.053 58.04 47.2 57.6 47.2 C 57.16 47.2 56.8 47.38 56.8 47.6 C 56.8 47.82 56.548 48 56.241 48 C 55.517 48 49.6 53.777 49.6 54.484 C 49.6 54.781 49.24 55.283 48.8 55.6 C 48.36 55.917 48 56.497 48 56.888 C 48 57.28 47.82 57.6 47.6 57.6 C 47.38 57.6 47.2 57.96 47.2 58.4 C 47.2 58.84 47.02 59.2 46.8 59.2 C 46.58 59.2 46.4 59.549 46.4 59.976 C 46.4 60.403 46.22 60.864 46 61 C 45.78 61.136 45.6 61.777 45.6 62.424 C 45.6 63.071 45.42 63.6 45.2 63.6 C 44.975 63.6 44.8 64.725 44.8 66.176 C 44.8 67.593 44.62 68.864 44.4 69 C 44.142 69.159 44 76.204 44 88.824 L 44 108.4 L 23.4 108.4 C 9.168 108.4 2.8 108.531 2.8 108.824 C 2.8 109.057 2.643 109.15 2.452 109.032 C 0.248 107.67 -0.97 117.718 1.174 119.577 C 1.709 120.042 2.609 120.518 3.174 120.635 C 3.738 120.752 4.513 121.017 4.895 121.224 C 5.3 121.444 13.574 121.6 24.795 121.6 L 44 121.6 L 44 136 L 44 150.4 L 24.2 150.4 C 11.267 150.4 4.4 150.539 4.4 150.8 C 4.4 151.02 3.932 151.2 3.36 151.2 C -0.206 151.2 -1.694 161.006 1.647 162.485 C 2.281 162.766 2.8 163.131 2.8 163.298 C 2.8 163.464 12.07 163.6 23.4 163.6 L 44 163.6 L 44 178.4 L 44 193.2 L 24.3 193.247 C 13.465 193.273 4.375 193.266 4.1 193.23 C 3.825 193.194 3.6 193.353 3.6 193.582 C 3.6 193.812 3.312 194 2.96 194 C 0.012 194 -1.34 202.081 1.16 204.758 C 1.799 205.441 2.609 206 2.96 206 C 3.312 206 3.6 206.18 3.6 206.4 C 3.6 206.661 10.6 206.8 23.8 206.8 L 44 206.8 L 44 221.6 L 44 236.4 L 23.4 236.4 C 12.07 236.4 2.8 236.536 2.8 236.702 C 2.8 236.869 2.281 237.234 1.647 237.515 C -1.694 238.994 -0.206 248.8 3.36 248.8 C 3.932 248.8 4.4 248.98 4.4 249.2 C 4.4 249.461 11.267 249.6 24.2 249.6 L 44 249.6 L 44 264 L 44 278.4 L 24.795 278.4 C 13.574 278.4 5.3 278.556 4.895 278.776 C 4.513 278.983 3.738 279.248 3.174 279.365 C 0.697 279.88 0.2 280.882 0.2 285.362 C 0.2 292.024 -1.387 291.6 23.574 291.6 L 44 291.6 L 44 301.976 C 44 308.463 44.15 312.445 44.4 312.6 C 44.62 312.736 44.8 313.293 44.8 313.837 C 44.8 315.143 47.251 317.6 48.553 317.6 C 49.092 317.6 49.618 317.825 49.721 318.1 C 49.86 318.471 50.049 318.436 50.454 317.964 C 50.754 317.614 51.853 317.015 52.895 316.633 C 54.065 316.203 55.136 315.453 55.695 314.669 L 56.6 313.4 L 56.8 190.4 C 56.945 101.273 57.123 67.066 57.447 66.189 C 59.763 59.907 63.742 56.786 71 55.559 C 74.602 54.949 76.064 53.865 76.94 51.153 C 77.677 48.871 77.812 46.4 77.2 46.4 C 76.98 46.4 76.8 46.122 76.8 45.781 C 76.8 45.441 76.261 44.856 75.603 44.481 C 74.944 44.107 74.404 43.658 74.403 43.484 C 74.399 43.05 66.443 43.207 66.171 43.647 M 49.6 328.8 C 49.6 329.02 49.306 329.2 48.947 329.2 C 48.056 329.2 46.401 331.199 46.4 332.276 C 46.4 332.758 46.22 333.264 46 333.4 C 45.78 333.536 45.6 334.166 45.6 334.8 C 45.6 335.434 45.78 336.064 46 336.2 C 46.22 336.336 46.4 336.78 46.4 337.186 C 46.4 338.124 47.981 341.197 48.9 342.047 C 49.285 342.403 49.6 342.906 49.6 343.166 C 49.6 343.821 54.993 349.08 55.989 349.396 C 56.435 349.538 56.8 349.822 56.8 350.027 C 56.8 350.232 57.12 350.4 57.512 350.4 C 57.903 350.4 58.483 350.76 58.8 351.2 C 59.117 351.64 59.787 352 60.288 352 C 60.79 352 61.2 352.18 61.2 352.4 C 61.2 352.62 61.549 352.8 61.976 352.8 C 62.403 352.8 62.864 352.98 63 353.2 C 63.136 353.42 63.946 353.6 64.8 353.6 C 65.654 353.6 66.464 353.78 66.6 354 C 66.76 354.258 74.204 354.4 87.624 354.4 L 108.4 354.4 L 108.4 375.8 C 108.4 390.595 108.531 397.2 108.824 397.2 C 109.057 397.2 109.15 397.357 109.032 397.548 C 107.67 399.752 117.718 400.97 119.577 398.826 C 120.042 398.291 120.518 397.391 120.635 396.826 C 120.752 396.262 121.017 395.487 121.224 395.105 C 121.444 394.699 121.6 386.126 121.6 374.405 L 121.6 354.4 L 136 354.4 L 150.4 354.4 L 150.4 375 C 150.4 388.467 150.539 395.6 150.8 395.6 C 151.02 395.6 151.2 396.068 151.2 396.64 C 151.2 400.206 161.006 401.694 162.485 398.353 C 162.766 397.719 163.131 397.2 163.298 397.2 C 163.464 397.2 163.6 387.57 163.6 375.8 L 163.6 354.4 L 178.4 354.4 L 193.2 354.4 L 193.247 374.9 C 193.273 386.175 193.266 395.625 193.23 395.9 C 193.194 396.175 193.353 396.4 193.582 396.4 C 193.812 396.4 194 396.688 194 397.04 C 194 397.391 194.559 398.201 195.242 398.84 C 197.919 401.34 206 399.988 206 397.04 C 206 396.688 206.18 396.4 206.4 396.4 C 206.662 396.4 206.8 389.133 206.8 375.4 L 206.8 354.4 L 221.6 354.4 L 236.4 354.4 L 236.4 375.8 C 236.4 387.57 236.536 397.2 236.702 397.2 C 236.869 397.2 237.234 397.719 237.515 398.353 C 238.994 401.694 248.8 400.206 248.8 396.64 C 248.8 396.068 248.98 395.6 249.2 395.6 C 249.461 395.6 249.6 388.467 249.6 375 L 249.6 354.4 L 264 354.4 L 278.4 354.4 L 278.4 374.405 C 278.4 386.126 278.556 394.699 278.776 395.105 C 278.983 395.487 279.248 396.262 279.365 396.826 C 279.88 399.303 280.882 399.8 285.362 399.8 C 292.039 399.8 291.6 401.5 291.6 375.626 L 291.6 354.4 L 306.954 354.4 C 323.821 354.4 323.516 354.44 325.669 351.921 C 326.805 350.592 327.18 348.552 326.431 347.78 C 326.229 347.571 325.906 346.783 325.714 346.03 C 325.5 345.191 324.776 344.183 323.845 343.43 L 322.326 342.2 L 195.063 342 L 67.8 341.8 L 65.4 340.529 C 62.315 338.895 61.074 337.673 58.466 333.701 C 56.179 330.217 54.777 329.2 52.263 329.2 C 51.484 329.2 50.736 329.02 50.6 328.8 C 50.464 328.58 50.183 328.4 49.976 328.4 C 49.769 328.4 49.6 328.58 49.6 328.8" stroke="none" fill="#444c54" fill-rule="evenodd">
      <title>Black Outline</title>
    </path>
    <path id="path5" d="M 169.8 128.772 C 164.112 130.148 158.857 133.647 158.359 139.484 C 157.439 150.273 163.483 165.473 180.675 150.596 C 190.705 141.916 183.107 124.703 170.234 127.817 M 243 185.358 C 229.189 189.709 227.54 209.083 240.758 215.073 C 243.706 216.409 249.891 217.552 252.281 216.589 C 262.246 212.577 266.571 202.426 262.404 193.48 C 259.237 186.68 250.588 182.781 243.426 185.038 M 147.797 229.741 C 142.424 232.242 139.634 239.891 142.148 245.138 C 147.803 256.938 164.168 253.03 163.826 239.465 C 163.622 231.361 155.46 226.122 148.063 229.567" stroke="none" fill="#fac135" fill-rule="evenodd">
      <title>Yellow Points</title>
    </path>
    <path id="path2" d="M 84.033 70.434 C 77.47 71.722 71.373 77.639 70.103 84.355 C 69.538 87.341 69.538 312.659 70.103 315.645 C 71.588 323.499 77.843 328.786 86.529 329.973 C 90.915 330.572 309.085 330.572 313.471 329.973 C 323.194 328.645 328.645 323.194 329.973 313.471 C 330.572 309.085 330.572 90.61 329.973 86.224 C 328.786 77.538 323.194 71.588 315.34 70.103 C 312.649 69.594 86.63 69.315 84.033 69.824 M 283.28 100.442 C 291.232 102.1 294.873 110.666 295.765 118.362 C 296.209 122.199 296.589 277.681 296.145 281.518 C 295.234 289.38 291.103 295.668 283.017 297.163 C 279.701 297.776 120.328 297.779 116.973 297.166 C 109.965 295.886 103.894 290.32 101.959 283.4 C 101.117 280.389 106.387 118.23 107.229 115.253 C 109.113 108.59 114.305 108.109 121.05 106.473 C 123.854 105.793 277.38 102.806 280.62 103.482 M 253.384 112.1 C 253.279 112.375 253.24 126.28 253.297 143 L 253.4 173.4 L 253.6 142.5 C 253.71 125.505 253.749 111.6 253.687 111.6 C 253.626 111.6 253.489 111.825 253.384 112.1 M 175.105 117.483 C 175.602 117.579 176.322 117.575 176.705 117.475 C 177.087 117.375 176.68 117.296 175.8 117.301 C 174.92 117.305 174.607 117.387 175.105 117.483 M 287.395 183.6 C 287.395 219.13 287.442 233.665 287.5 215.9 C 287.558 198.135 287.558 169.065 287.5 151.3 C 287.442 133.535 287.395 148.07 287.395 183.6 M 122.327 136.7 C 127.237 136.763 135.157 136.763 139.927 136.7 C 144.697 136.636 140.68 136.584 131 136.584 C 121.32 136.584 117.417 136.636 122.327 136.7 M 196.101 141 C 196.105 141.88 196.187 142.193 196.283 141.695 C 196.379 141.198 196.375 140.478 196.275 140.095 C 196.175 139.713 196.096 140.12 196.101 141 M 176.981 179.6 C 176.981 187.85 177.034 191.225 177.099 187.1 C 177.164 182.975 177.164 176.225 177.099 172.1 C 177.034 167.975 176.981 171.35 176.981 179.6 M 149.505 217.483 C 150.002 217.579 150.722 217.575 151.105 217.475 C 151.487 217.375 151.08 217.296 150.2 217.301 C 149.32 217.305 149.007 217.387 149.505 217.483 M 154.305 217.483 C 154.802 217.579 155.522 217.575 155.905 217.475 C 156.287 217.375 155.88 217.296 155 217.301 C 154.12 217.305 153.807 217.387 154.305 217.483 M 174.901 239.8 C 174.905 240.68 174.987 240.993 175.083 240.495 C 175.179 239.998 175.175 239.278 175.075 238.895 C 174.975 238.513 174.896 238.92 174.901 239.8 M 287.199 269.519 L 287.399 279 L 287.507 269.828 C 287.567 264.783 287.477 260.517 287.308 260.347 C 287.138 260.177 287.09 264.305 287.199 269.519" stroke="none" fill-rule="evenodd" style="fill: rgb(138, 170, 234);"/>
    <path id="path1" d="M 123.8 112.42 C 120.72 112.575 118.35 111.333 118.107 111.36 C 117.299 111.45 114.821 115.176 114.207 116.646 C 113.728 117.792 113.6 119.926 113.6 126.785 L 113.6 135.472 L 125.029 136.045 C 148.747 136.64 149.196 135.723 149.958 133.353 C 155.843 115.053 179.47 111.292 191.78 127.046 C 201.608 139.623 194.498 159.36 178.89 163.267 L 176.974 164.754 L 177.075 179.736 L 177.59 194.407 L 199.042 194.303 L 220.494 194.2 L 221.232 191.8 C 221.637 190.48 222.971 188.83 223.75 187.539 C 224.528 186.247 225.287 185.073 225.287 184.93 C 225.287 183.619 233.024 176.352 236 175.209 C 236.77 174.914 237.571 174.521 237.78 174.336 C 237.989 174.151 238.476 174 238.861 174 C 239.247 174 240.022 173.791 240.584 173.535 L 241.605 173.069 L 241.573 142.21 L 242.25 111.917 L 185.4 112.169 C 154.6 112.151 126.88 111.917 123.8 112.072 M 253.701 112.267 C 253.554 112.413 253.434 126.154 253.434 142.802 L 254 173.072 L 255.019 173.536 C 255.579 173.791 256.308 174 256.638 174 C 257.645 174 261.747 176.735 264.252 178.592 C 267.27 180.831 271.685 186.117 273.111 189.322 C 273.38 189.927 273.959 189.961 273.995 190.5 C 274.412 196.779 275.785 206.382 274.055 208.317 C 273.868 208.526 274.4 208.886 274.4 209.284 C 274.4 212.796 265.298 222.594 260.372 225.386 C 257.014 227.289 257.809 226.942 256.115 227.439 C 255.125 227.729 250.249 227.878 249.632 228.104 C 248.022 228.694 242.753 228.209 240.838 227.59 C 235.294 225.798 233.651 224.98 230.533 222.112 C 226.252 218.174 221.749 211.502 220.957 207.28 C 220.637 205.574 218.964 206.471 211.63 206.611 L 206.452 206.726 L 207 227.6 L 207 248.2 L 246.8 248.2 L 286.6 248.2 L 286.6 182.987 C 286.6 120.387 286.57 116.646 285.86 115.07 C 284.965 113.086 283.298 112.243 280.985 111.71 C 279.08 111.27 254.268 111.486 253.842 111.913 M 116.672 147.986 L 113.6 148.418 L 113.6 214.014 C 112.723 287.961 112.189 280.585 113.465 282.994 C 115.412 286.669 128.672 286.231 139 285.513 L 143 285.4 L 143.112 273.8 C 143.225 262.12 143.13 260.4 142.37 260.4 C 141.482 260.4 137.452 257.567 135.525 255.455 C 127.841 247.034 127.327 231.679 136.43 223.973 C 147.583 214.531 164.589 215.046 172.367 228.321 C 174.07 231.227 173.576 232.057 174.507 236.75 C 176.36 246.096 170.073 256.785 160.916 260.874 C 160.256 261.169 160.687 261.452 160.305 261.647 C 159.923 261.841 159.383 262.001 159.105 262.002 C 158.827 262.003 157.922 262.193 157.094 262.423 L 155.588 262.841 L 155.694 274.121 L 155.8 285.4 L 175 285.4 L 194.2 285.4 L 194.302 246.13 L 194.404 206.86 L 181.902 206.73 C 165.006 205.817 166.031 208.528 165.2 183.444 L 165.62 163.977 L 161.755 161.714 C 156.346 158.574 153.885 155.769 150.493 151.04 L 149.095 147.993 L 137.776 147.774 C 131.948 147.767 124.295 147.816 120.39 147.883 M 206.8 272.79 L 206.8 285.185 L 207.7 285.408 C 208.195 285.532 225.07 285.58 245.2 285.516 L 281.8 285.4 L 283.448 284.282 C 286.374 282.295 286.6 281.287 286.6 270.215 L 286.6 260.6 L 246.7 260.498 L 206.8 260.396 L 206.8 272.79" stroke="none" fill="#f6f8f9" fill-rule="evenodd"/>
    <rect x="107.185" y="110.668" width="21.529" height="177.617" style="fill-opacity: 0.51; fill: rgb(171, 160, 160);"/>
    <path id="path4" d="M 116.139 100.568 C 109.394 102.204 103.85 107.537 101.966 114.2 C 101.124 117.177 101.117 280.389 101.959 283.4 C 103.894 290.32 109.965 295.886 116.973 297.166 C 120.328 297.779 279.701 297.776 283.017 297.163 C 291.103 295.668 297.514 289 298.425 281.138 C 298.869 277.301 298.869 120.299 298.425 116.462 C 297.533 108.766 291.232 102.1 283.28 100.442 C 280.04 99.766 118.943 99.888 116.139 100.568 M 242.4 142.532 L 242.4 173.465 L 241.5 173.899 C 241.005 174.138 239.745 174.567 238.7 174.854 C 237.655 175.14 236.8 175.515 236.8 175.687 C 236.8 175.859 236.52 176 236.178 176 C 232.271 176 223.743 185.822 221.589 192.8 C 221.284 193.79 220.846 194.732 220.617 194.894 C 219.668 195.563 177.303 195.246 177.043 194.567 C 176.726 193.741 176.726 165.459 177.043 164.633 C 177.176 164.285 177.616 164 178.019 164 C 178.423 164 178.864 163.82 179 163.6 C 179.136 163.38 179.578 163.2 179.983 163.2 C 183.281 163.2 193.6 154.459 193.6 151.666 C 193.6 151.451 193.936 150.584 194.348 149.738 C 196.506 145.3 196.712 136.587 194.751 132.705 C 194.558 132.323 194.4 131.738 194.4 131.405 C 194.4 131.072 194.22 130.8 194 130.8 C 193.78 130.8 193.6 130.44 193.6 130 C 193.6 129.56 193.42 129.2 193.2 129.2 C 192.98 129.2 192.8 128.975 192.8 128.7 C 192.799 128.219 191.988 127.16 189.662 124.6 C 177.572 111.301 153.199 117.507 149.747 134.764 C 149.608 135.46 149.17 136.202 148.773 136.414 C 147.491 137.1 113.795 136.917 113.217 136.221 C 112.864 135.795 112.771 133.116 112.868 126.121 L 113 116.6 L 114.067 114.96 C 114.718 113.96 115.811 112.992 116.867 112.48 L 118.6 111.64 L 180.5 111.62 L 242.4 111.6 L 242.4 142.532 M 283.827 112.9 C 287.771 115.574 287.385 108.266 287.507 182.645 C 287.597 237.629 287.527 247.962 287.064 248.347 C 286.657 248.684 275.996 248.777 246.357 248.702 L 206.2 248.6 L 206.2 227.4 L 206.2 206.2 L 213.553 206.2 L 220.906 206.2 L 221.634 208.5 C 223.156 213.305 224.927 216.2 228.565 219.83 C 231.702 222.959 235.568 225.6 237.012 225.6 C 237.335 225.6 237.6 225.78 237.6 226 C 237.6 226.22 238.039 226.4 238.576 226.4 C 239.113 226.4 239.652 226.56 239.773 226.756 C 240.579 228.061 255.026 228.053 255.833 226.747 C 255.951 226.556 256.378 226.4 256.783 226.4 C 257.563 226.4 261.209 224.589 263.332 223.148 C 265.126 221.93 270.194 216.69 270.888 215.335 C 271.208 214.711 271.822 213.57 272.253 212.8 C 272.684 212.03 273.271 210.59 273.558 209.6 C 273.844 208.61 274.257 207.46 274.476 207.045 C 275.031 205.996 274.997 194.837 274.438 194.278 C 274.197 194.037 274 193.424 274 192.915 C 274 192.406 273.841 191.677 273.647 191.295 C 273.452 190.913 273.052 190.06 272.756 189.4 C 271.149 185.808 267.528 181.386 263.671 178.304 C 261.813 176.819 256.62 174.421 255.231 174.406 C 253.12 174.384 253.2 175.637 253.2 142.605 C 253.2 125.845 253.32 112.013 253.467 111.867 C 253.613 111.72 260.073 111.6 267.821 111.6 L 281.91 111.6 L 283.827 112.9 M 178.209 129.592 C 185.976 133.89 187.508 143.739 181.333 149.673 C 169.822 160.734 152.728 144.265 163.428 132.422 C 166.937 128.538 173.897 127.206 178.209 129.592 M 149.92 148.08 C 150.184 148.344 150.4 148.77 150.4 149.027 C 150.4 150.845 157.313 160 158.686 160 C 158.886 160 159.398 160.315 159.825 160.7 C 160.649 161.444 161.732 161.998 164 162.837 C 166.068 163.602 165.987 162.786 165.994 182.92 C 166.002 208.259 164.355 205.96 182.6 206.103 L 195 206.2 L 195 246 L 195 285.8 L 175 285.8 L 155 285.8 L 154.894 274.249 C 154.776 261.43 154.734 261.641 157.425 261.613 C 158.099 261.606 159.395 261.24 160.306 260.8 C 161.216 260.36 162.24 260 162.581 260 C 162.921 260 163.2 259.82 163.2 259.6 C 163.2 259.38 163.47 259.2 163.8 259.2 C 164.13 259.2 164.4 259.02 164.4 258.8 C 164.4 258.58 164.67 258.4 165 258.4 C 165.33 258.4 165.6 258.22 165.6 258 C 165.6 257.78 165.789 257.6 166.019 257.6 C 167.795 257.6 172.822 250.336 174.344 245.572 C 174.909 243.801 174.955 234.543 174.4 234.2 C 174.18 234.064 174 233.601 174 233.171 C 174 232.741 173.832 232.077 173.626 231.695 C 173.421 231.313 173.017 230.415 172.729 229.7 C 172.44 228.985 172.069 228.4 171.902 228.4 C 171.736 228.4 171.6 228.124 171.6 227.787 C 171.6 226.8 166.004 221.467 163.516 220.082 C 151.438 213.361 134.572 220.033 131.079 233 C 129.354 239.406 129.049 240.516 130.721 246.333 C 131.268 248.236 132.926 251.06 134.598 253.401 C 136.595 256.197 139.203 258.456 140.208 258.733 C 140.934 258.933 141.869 259.707 142.511 260.164 L 144.011 260.863 L 143.906 273.331 L 143.8 285.8 L 131.238 285.906 C 116.83 286.027 116.192 285.906 114.075 282.652 L 113 281 L 112.893 214.807 C 112.834 178.4 112.874 148.385 112.98 148.107 C 113.255 147.39 149.204 147.364 149.92 148.08 M 252.124 184.992 C 264.196 188.655 267.986 203.35 259.117 212.11 C 245.731 225.33 224.123 207.929 234.305 192.128 C 238.221 186.052 245.719 183.049 252.124 184.992 M 157.351 229.405 C 162.745 231.659 165.437 239.085 162.825 244.504 C 161.811 246.609 158.038 249.238 157.18 250 C 155.542 251.454 147.838 251.012 145.495 248.316 C 137.112 238.67 145.471 224.441 157.351 229.405 M 287.4 270.2 C 287.4 281.488 287.258 282.131 284.235 284.579 L 282.726 285.8 L 244.463 285.8 L 206.2 285.8 L 206.094 273.404 C 206.036 266.586 206.076 260.78 206.182 260.502 C 206.337 260.098 214.525 260.017 246.888 260.098 L 287.4 260.2 L 287.4 270.2" stroke="none" fill="#04ac7c" fill-rule="evenodd"/>
  </g>
</svg>