<?xml version="1.0" encoding="utf-8"?>
<svg width="512" height="512" xmlns="http://www.w3.org/2000/svg">
  <path style="stroke: none; fill: rgb(135, 206, 217);" d="M 273 376 L 290 376 C 290 363.373 291.806 350.2 295.57 338.088 C 297.046 333.338 295.394 330.808 299.093 327.475 C 301.235 325.545 304.415 321.176 305.972 318.679 C 307.486 316.253 310.601 312.782 310.602 310.058 L 308.029 286.369 L 278.398 286.883 C 278.398 301.176 281.863 318.562 270.727 329.698 C 263.141 337.284 255.853 338.633 245.802 338.633 L 185 338.434 C 173.292 338.33 152.77 335.192 153.608 331.322 C 156.975 315.78 146.458 301.948 146.458 287.475 C 125.662 287.475 91.763 296.155 85.529 269 C 83.394 259.698 85.792 246.937 85.792 237.415 C 70.479 237.415 52.651 240.184 41.909 226.533 C 33.061 215.29 37.029 201.403 37.029 188 L 38.556 92 C 38.556 78.335 31.076 61.931 41.185 51.043 C 49.576 42.005 59.701 55.394 73.387 46.16 L 115.821 46.952 L 305.85 45.367 L 354.208 44.377 C 364.526 44.377 375.712 42.084 383.826 49.468 C 394.312 59.009 389.434 73.72 389.434 86.585 L 389.831 163.981 L 413.754 164.179 L 414.546 71.406 C 414.546 57.153 411.422 42.074 402.239 30.015 C 389.261 12.972 360.989 13.048 342.227 13.048 L 179.907 10.671 L 62.217 13.444 C 55.382 13.444 46.57 15.215 39.831 16.487 C 28.494 18.625 16.383 30.115 13.382 41.198 C 11.106 49.599 16.613 60.744 16.613 69.387 L 11.859 323.179 C 11.859 340.382 18.154 354.481 36 363.179 C 42.972 366.577 47.097 370.556 54.633 370.556 L 92.981 372.537 L 215.604 369.566 C 229.922 369.566 244.688 368.215 259 368.59 C 265.952 368.772 271.542 368.793 273 376 Z"/>
  <path style="stroke: none;" d="M 410 163 C 405.683 163 398.044 164.459 394.318 161.972 C 391.729 160.245 392.02 156.725 392.001 154 C 391.95 146.667 392 139.333 392 132 L 392 76 C 392 64.235 391.538 52.992 380 46.367 C 371.654 41.574 361.233 43 352 43 L 295 43 L 130 43 L 79 43 C 70.728 43 61.042 41.634 53 43.764 C 45.056 45.869 37.188 52.75 35.39 61 C 33.498 69.688 35 80.123 35 89 L 35 145 L 35 205 C 35 216.49 34.527 226.792 45.004 234.2 C 52.727 239.661 63.048 239.039 72 239.039 C 75.503 239.039 80.835 238.1 84.397 239.603 C 86.279 240.397 84.13 247.727 84.131 250.831 C 84.133 258.15 84.747 265.979 87.105 273 C 94.961 296.394 126.868 290 146 290 C 146 303.559 142.058 323.035 152.468 333.535 C 160.954 342.096 171.938 341 183 341 L 246 341 C 256.039 341 266.197 341.593 273.895 333.895 C 284.713 323.077 281 303.922 281 290 L 308 290 L 308 307 C 307.999 309.799 308.456 313.267 306.972 315.787 C 305.443 318.383 302.273 319.556 300.015 321.39 C 296.346 324.368 293.178 328.431 291.8 333 C 289.944 339.153 291 346.636 291 353 C 291 361.411 289.602 370.723 290.415 379 C 290.973 384.685 293.868 390.604 295.667 396 L 318.333 464 C 322.021 475.062 324.677 487.616 329.996 498 C 337.306 512.268 350.113 512 364 512 L 436 512 C 448.485 512 459.778 513.381 468.786 502.985 C 472.92 498.215 474.38 491.859 476.333 486 L 486 457 L 503 406 C 505.911 397.266 510.159 388.091 511.674 379 C 512.748 372.561 512 365.515 512 359 C 512 351.469 512.758 343.477 511.815 336 C 511.071 330.107 507.366 325.041 502.985 321.213 C 500.644 319.167 496.9 317.774 495.603 314.787 C 494.051 311.212 495 305.821 495 302 L 495 273 L 495 203 C 495 192.198 496.885 180.036 489.61 171.015 C 482.145 161.76 471.784 162 461 162 L 427 162 L 427 68 C 427 46.278 426.748 25.441 408 10.669 C 393.898 -0.443 379.017 0 362 0 L 316 0 L 88 0 C 60.301 0 28.609 -5.337 9.761 20 C 6.804 23.975 4.367 28.333 2.698 33 C -0.89 43.04 0 53.508 0 64 L 0 113 L 0 282 L 0 320 C 0 336.977 -0.21 352.174 11.326 366 C 28.197 386.221 51.274 384 75 384 L 210 384 L 256 384 C 261.202 384 268.991 385.441 271.971 379.941 C 274.932 374.478 270.565 368.248 264.999 367.228 C 259.912 366.296 254.16 367 249 367 L 218 367 L 80 367 C 60.605 367 38.64 370.815 24.819 353.961 C 16.449 343.752 17 332.431 17 320 L 17 275 L 17 117 L 17 69 C 17 60.673 15.68 51.055 18.043 43 C 28.208 8.348 71.357 17 99 17 L 311 17 L 363 17 C 373.825 17 384.701 16.162 394 22.789 C 410.592 34.613 410 51.753 410 70 L 410 163 Z"/>
  <path style="fill:#79868e; stroke:none;" d="M379 17C380.248 17.6848 380.548 17.7488 382 18C380.752 17.3152 380.452 17.2512 379 17z"/>
  <path style="fill:#99acb8; stroke:none;" d="M41.6667 18.3333C41.2222 18.7778 42.2778 18.7222 42.3333 18.6667C42.7778 18.2222 41.7222 18.2778 41.6667 18.3333z"/>
  <path style="fill:#6c767d; stroke:none;" d="M384.667 18.3333C384.222 18.7778 385.278 18.7221 385.333 18.6667C385.778 18.2222 384.722 18.2779 384.667 18.3333z"/>
  <path style="fill:#727e85; stroke:none;" d="M38 19L39 20L38 19z"/>
  <path style="fill:#90a2ad; stroke:none;" d="M387 19L388 20L387 19z"/>
  <path style="fill:#626a6f; stroke:none;" d="M388 19L389 20L388 19z"/>
  <path style="fill:#7e8c95; stroke:none;" d="M36 20L37 21L36 20z"/>
  <path style="fill:#6d787e; stroke:none;" d="M390 20L391 21L390 20z"/>
  <path style="fill:#7e8c95; stroke:none;" d="M34 21L35 22L34 21z"/>
  <path style="fill:#636c71; stroke:none;" d="M392 21L393 22L392 21M32 22L33 23L32 22z"/>
  <path style="fill:#8999a3; stroke:none;" d="M31 23L32 24L31 23z"/>
  <path style="fill:#6d787e; stroke:none;" d="M395 23L396 24L395 23z"/>
  <path style="fill:#8898a2; stroke:none;" d="M396 24L397 25L396 24z"/>
  <path style="fill:#626b70; stroke:none;" d="M27 26L28 27L27 26M26 27L27 28L26 27z"/>
  <path style="fill:#7d8b93; stroke:none;" d="M402 30L403 31L402 30z"/>
  <path style="fill:#8a9aa4; stroke:none;" d="M23 31L24 32L23 31z"/>
  <path style="fill:#5f676b; stroke:none;" d="M403 31L404 32L403 31z"/>
  <path style="fill:#636c71; stroke:none;" d="M22 32L23 33L22 32z"/>
  <path style="fill:#84939c; stroke:none;" d="M404 33L405 34L404 33z"/>
  <path style="fill:#7e8c95; stroke:none;" d="M21 34L22 35L21 34z"/>
  <path style="fill:#808f97; stroke:none;" d="M20 36L21 37L20 36z"/>
  <path style="fill:#737f86; stroke:none;" d="M19 38L20 39L19 38z"/>
  <path style="fill:#758289; stroke:none;" d="M407 39L408 40L407 39z"/>
  <path style="fill:#99acb8; stroke:none;" d="M18.3333 41.6667C18.2778 41.7222 18.2222 42.7778 18.6667 42.3333C18.7223 42.2777 18.7778 41.2222 18.3333 41.6667z"/>
  <path style="fill:#7c8991; stroke:none;" d="M372.667 43.3333C372.222 43.7777 373.278 43.7222 373.333 43.6667C373.778 43.2222 372.722 43.2778 372.667 43.3333z"/>
  <path style="fill:#6d777e; stroke:none;" d="M17.3333 44.6667C17.2779 44.7221 17.2222 45.7778 17.6667 45.3333C17.7223 45.2777 17.7777 44.2222 17.3333 44.6667z"/>
  <path style="fill:#6b757b; stroke:none;" d="M50 44L51 45L50 44z"/>
  <path style="fill:#7b8890; stroke:none;" d="M376 44L377 45L376 44z"/>
  <path style="fill:#6f7a81; stroke:none;" d="M378 45L379 46L378 45z"/>
  <path style="fill:#6d787e; stroke:none;" d="M46 46L47 47L46 46z"/>
  <path style="fill:#7e8c95; stroke:none;" d="M380 46L381 47L380 46z"/>
  <path style="fill:#91a3ae; stroke:none;" d="M44 47L45 48L44 47z"/>
  <path style="fill:#737f87; stroke:none;" d="M43 48L44 49L43 48z"/>
  <path style="fill:#687278; stroke:none;" d="M42 49L43 50L42 49z"/>
  <path style="fill:#8b9ca5; stroke:none;" d="M384 49L385 50L384 49z"/>
  <path style="fill:#616a6f; stroke:none;" d="M41 50L42 51L41 50z"/>
  <path style="fill:#8a9aa4; stroke:none;" d="M385 50L386 51L385 50z"/>
  <path style="fill:#6b757b; stroke:none;" d="M40 51L41 52L40 51z"/>
  <path style="fill:#808f97; stroke:none;" d="M39 52L40 53L39 52z"/>
  <path style="fill:#77848c; stroke:none;" d="M388 54L389 55L388 54z"/>
  <path style="fill:#7d8b93; stroke:none;" d="M37 55L38 56L37 55z"/>
  <path style="fill:#636c71; stroke:none;" d="M389 56L390 57L389 56z"/>
  <path style="fill:#78858d; stroke:none;" d="M36 57L37 58L36 57z"/>
  <path style="fill:#6b757b; stroke:none;" d="M390 58L391 59L390 58z"/>
  <path style="fill:#8fa1ab; stroke:none;" d="M35 59L36 60L35 59z"/>
  <path style="stroke: none; fill: rgb(67, 152, 209);" d="M307 273L307 201C307 186.824 307.036 173.471 321 165.363C327.621 161.52 334.628 162 342 162L375 162L375 89C375 83.0004 375.04 76.9994 374.999 71C374.978 67.9338 375.057 64.7359 372.682 62.4337C368.568 58.4449 360.226 60 355 60L309 60L124 60L72 60C66.8673 60 57.517 58.2165 53.7423 62.5725C51.3881 65.2892 52.0013 69.6793 52 73L52 98L52 186L52 209C52.0014 212.2 51.5165 216.068 53.6034 218.772C56.8706 223.004 63.3099 222 68 222C78.0471 222 90.1742 219.982 97.7863 228.105C104.945 235.745 103 247.406 103 257C103 261.268 101.932 267.284 105.318 270.566C108.77 273.913 114.619 273 119 273C128.975 273 144.187 270.141 152.985 275.483C164.317 282.364 162 295.654 162 307C162 312.211 160.98 319.492 166.214 322.682C171.005 325.602 179.592 324 185 324L239 324C245.062 324 255.711 326.02 260.852 322.258C264.236 319.781 263.992 315.758 264 312C264.016 304.355 262.753 295.467 264.532 288C269.131 268.698 292.151 273 307 273z"/>
  <path style="fill:#8d9ea8; stroke:none;" d="M391 60L392 61L391 60z"/>
  <path style="stroke: none;" d="M72.1481 87.0278C68.1208 89.4102 69.0003 95.0352 69 99C68.9994 108.672 66.7207 121.659 69.4336 130.956C70.8131 135.684 76.7987 137.234 80.9414 134.972C84.7835 132.875 84.9725 128.885 84.9992 125C85.052 117.334 85 109.666 85 102C85 98.5724 85.6524 94.2779 84.3966 91.0193C82.6405 86.4623 76.3611 84.5356 72.1481 87.0278M107.109 86.7423C102.288 88.8063 103.002 94.6823 103 99C102.996 108.839 101.373 120.295 103.228 129.96C104.163 134.827 109.44 137.115 113.981 135.396C118.975 133.505 118.991 128.519 119 124C119.02 114.048 121.357 100.608 118.566 91.044C117.187 86.3159 111.351 84.9259 107.109 86.7423M141.109 86.7423C136.288 88.8063 137.002 94.6823 137 99C136.996 108.539 134.956 120.75 137.318 129.995C138.595 134.993 144.23 137.251 148.891 135.258C153.712 133.196 152.998 127.316 153 123C153.004 113.33 155.279 100.339 152.566 91.044C151.187 86.316 145.351 84.9259 141.109 86.7423M175.059 87.0278C171.216 89.125 171.027 93.1148 171.001 97C170.948 104.666 171 112.334 171 120C171 123.428 170.348 127.722 171.603 130.981C173.383 135.6 179.567 137.389 183.772 134.821C187.72 132.409 186.998 126.957 187 123C187.004 113.25 189.201 100.464 186.682 91.044C185.404 86.265 179.138 84.801 175.059 87.0278M209.059 87.0278C205.218 89.1295 205.028 93.1115 205.001 97C204.95 104.333 205 111.667 205 119C205 122.764 204.317 127.412 205.742 130.981C207.619 135.68 213.533 137.312 217.867 134.821C221.407 132.786 221.887 128.695 221.985 125C222.18 117.677 222 110.326 222 103C222 99.236 222.683 94.588 221.258 91.0193C219.396 86.3574 213.416 84.6436 209.059 87.0278M243.059 87.0278C239.218 89.1295 239.028 93.1115 239.001 97C238.95 104.333 239 111.667 239 119C239 122.764 238.317 127.412 239.742 130.981C241.619 135.68 247.533 137.312 251.867 134.821C255.407 132.786 255.887 128.695 255.985 125C256.18 117.677 256 110.326 256 103C256 99.236 256.683 94.588 255.258 91.0193C253.396 86.3574 247.416 84.6436 243.059 87.0278M277.109 87.0278C273.413 89.1063 273.057 93.2037 273.004 97C272.865 106.954 270.739 120.416 273.573 129.985C275.069 135.038 281.157 137.628 285.891 134.972C289.588 132.898 289.943 128.793 289.996 125C290.103 117.336 290 109.664 290 102C290 98.5723 290.652 94.2779 289.397 91.0193C287.608 86.3779 281.378 84.6269 277.109 87.0278M311.148 87.0278C307.121 89.4102 308 95.0353 308 99C307.999 108.672 305.721 121.659 308.434 130.956C309.798 135.633 315.78 137.279 319.891 134.972C323.588 132.898 323.943 128.793 323.996 125C324.103 117.336 324 109.664 324 102C324 98.5723 324.652 94.2779 323.397 91.0193C321.64 86.4623 315.361 84.5356 311.148 87.0278M346.109 86.7423C341.288 88.8064 342.002 94.6821 342 99C341.996 108.867 340.404 120.286 342.228 129.985C343.164 134.96 348.342 137.158 352.981 135.396C357.974 133.499 357.991 128.523 358 124C358.021 113.941 359.823 101.854 357.721 92.0154C356.599 86.7628 350.901 84.6902 346.109 86.7423z"/>
  <path style="fill:#858b91; stroke:none;" d="M330 179L331 180L330 179z"/>
  <path style="fill:#8b9198; stroke:none;" d="M471 179L472 180L471 179z"/>
  <path style="fill:#a1a8b1; stroke:none;" d="M328 180L329 181L328 180z"/>
  <path style="fill:#e4f1ff; stroke:none;" d="M325 315L375 315L375 296C374.999 293.297 375.501 289.788 373.972 287.39C370.181 281.444 362.09 280.513 359.148 273C354.101 260.109 361.319 244.239 357.682 231.104C356.766 227.795 353.494 226.487 351.039 224.471C347.942 221.928 345.425 218.602 343.67 215C338.724 204.854 341 190.974 341 180C336.943 180 330.765 178.909 327.434 181.742C324.77 184.008 325.017 187.837 325.001 191C324.96 198.666 325 206.334 325 214L325 315z"/>
  <path style="fill:#e3cb5b; stroke:none;" d="M359 180L359 201C359.008 204.758 358.764 208.781 362.148 211.258C365.638 213.812 370.928 213 375 213L375 180L359 180M393 180L393 213L409 213L409 180L393 180M427 180L427 213C431.072 213 436.362 213.812 439.852 211.258C443.236 208.781 442.992 204.758 443 201L443 180L427 180z"/>
  <path style="fill:#e4f1ff; stroke:none;" d="M461 180C461 191.378 463.349 205.563 458.004 216C456.304 219.319 453.888 222.144 450.986 224.471C448.511 226.457 445.233 227.8 444.318 231.104C440.681 244.238 447.899 260.109 442.852 273C439.91 280.513 431.819 281.444 428.028 287.39C426.499 289.788 427.001 293.297 427 296L427 315L477 315L477 214C477 206.334 477.04 198.666 476.999 191C476.983 187.837 477.23 184.008 474.566 181.742C471.235 178.909 465.057 180 461 180z"/>
  <path style="fill:#acb5be; stroke:none;" d="M473 180L474 181L473 180z"/>
  <path style="fill:#9ba3ab; stroke:none;" d="M325 183L326 184L325 183z"/>
  <path style="fill:#b0b9c3; stroke:none;" d="M476 183L477 184L476 183z"/>
  <path style="fill:#a3abb4; stroke:none;" d="M341.333 207.667C341.278 207.722 341.222 208.778 341.667 208.333C341.722 208.278 341.778 207.222 341.333 207.667z"/>
  <path style="fill:#786f45; stroke:none;" d="M360 210L361 211L360 210z"/>
  <path style="fill:#8d8149; stroke:none;" d="M441 210L442 211L441 210z"/>
  <path style="fill:#65686c; stroke:none;" d="M342 211L343 212L342 211z"/>
  <path style="fill:#716943; stroke:none;" d="M361 211L362 212L361 211z"/>
  <path style="fill:#807646; stroke:none;" d="M440 211L441 212L440 211z"/>
  <path style="fill:#989fa7; stroke:none;" d="M342 212L343 213L342 212z"/>
  <path style="fill:#9b8d4c; stroke:none;" d="M363 212L364 213L363 212z"/>
  <path style="fill:#a3944d; stroke:none;" d="M438 212L439 213L438 212z"/>
  <path style="fill:#83898f; stroke:none;" d="M459 212L460 213L459 212z"/>
  <path style="fill:#767b80; stroke:none;" d="M343 214L344 215L343 214z"/>
  <path style="fill:#616568; stroke:none;" d="M458 214L459 215L458 214z"/>
  <path style="fill:#bdc7d2; stroke:none;" d="M343 215L344 216L343 215z"/>
  <path style="fill:#a7b0b9; stroke:none;" d="M458 215L459 216L458 215z"/>
  <path style="fill:#626569; stroke:none;" d="M344 216L345 217L344 216z"/>
  <path style="fill:#8b9ca5; stroke:none;" d="M34.3333 217.667C34.2778 217.722 34.2223 218.778 34.6667 218.333C34.7222 218.278 34.7778 217.222 34.3333 217.667z"/>
  <path style="fill:#b2bbc5; stroke:none;" d="M457 217L458 218L457 217z"/>
  <path style="fill:#848a90; stroke:none;" d="M345 218L346 219L345 218z"/>
  <path style="fill:#6e7277; stroke:none;" d="M456 218L457 219L456 218z"/>
  <path style="fill:#b6c0ca; stroke:none;" d="M455 220L456 221L455 220z"/>
  <path style="fill:#737f87; stroke:none;" d="M35 221L36 222L35 221z"/>
  <path style="fill:#afb8c2; stroke:none;" d="M347 221L348 222L347 221z"/>
  <path style="fill:#9ca4ac; stroke:none;" d="M454 221L455 222L454 221z"/>
  <path style="fill:#9aa1a9; stroke:none;" d="M348 222L349 223L348 222z"/>
  <path style="fill:#868c92; stroke:none;" d="M453 222L454 223L453 222z"/>
  <path style="fill:#a6aeb7; stroke:none;" d="M349 223L350 224L349 223z"/>
  <path style="fill:#949ba3; stroke:none;" d="M452 223L453 224L452 223z"/>
  <path style="fill:#b6c0ca; stroke:none;" d="M350 224L351 225L350 224z"/>
  <path style="fill:#a7afb8; stroke:none;" d="M451 224L452 225L451 224z"/>
  <path style="fill:#949ba2; stroke:none;" d="M353 226L354 227L353 226z"/>
  <path style="fill:#888e94; stroke:none;" d="M448 226L449 227L448 226z"/>
  <path style="fill:#6d777e; stroke:none;" d="M38 227L39 228L38 227z"/>
  <path style="fill:#81868c; stroke:none;" d="M355 227L356 228L355 227z"/>
  <path style="fill:#767b80; stroke:none;" d="M446 227L447 228L446 227z"/>
  <path style="fill:#939aa1; stroke:none;" d="M357 228L358 229L357 228z"/>
  <path style="fill:#8a9097; stroke:none;" d="M444 228L445 229L444 228z"/>
  <path style="fill:#8e9faa; stroke:none;" d="M41 231L42 232L41 231z"/>
  <path style="stroke: none; fill: rgb(135, 206, 217);" d="M376 231L376 255C376 258.552 375.156 263.46 376.603 266.787C378.029 270.063 382.207 271.16 384.91 273.105C388.623 275.777 391.241 279.548 392.316 284C393.847 290.34 393 297.52 393 304L393 341L409 341L409 304C409 297.877 408.143 290.996 409.529 285C410.698 279.946 413.845 275.67 418.004 272.637C420.475 270.835 424.09 269.791 425.397 266.787C426.844 263.46 426 258.552 426 255L426 231L376 231z"/>
  <path style="fill:#6a747a; stroke:none;" d="M45 234L46 235L45 234z"/>
  <path style="fill:#8fa0aa; stroke:none;" d="M48 236L49 237L48 236z"/>
  <path style="fill:#6f7a81; stroke:none;" d="M51 237L52 238L51 237z"/>
  <path style="fill:#5c6368; stroke:none;" d="M376 268L377 269L376 268z"/>
  <path style="fill:#6f7981; stroke:none;" d="M425 268L426 269L425 268z"/>
  <path style="fill:#61696e; stroke:none;" d="M378 269L379 270L378 269z"/>
  <path style="fill:#6c757c; stroke:none;" d="M423 269L424 270L423 269z"/>
  <path style="fill:#c6d0dc; stroke:none;" d="M358.333 270.667C358.278 270.722 358.222 271.778 358.667 271.333C358.722 271.278 358.778 270.222 358.333 270.667z"/>
  <path style="fill:#61686e; stroke:none;" d="M380 270L381 271L380 270z"/>
  <path style="fill:#6c757c; stroke:none;" d="M421 270L422 271L421 270z"/>
  <path style="fill:#5f676b; stroke:none;" d="M86 271L87 272L86 271z"/>
  <path style="fill:#5f666c; stroke:none;" d="M382 271L383 272L382 271z"/>
  <path style="fill:#6c757c; stroke:none;" d="M419 271L420 272L419 271z"/>
  <path style="fill:#84939c; stroke:none;" d="M86 272L87 273L86 272z"/>
  <path style="fill:#717b83; stroke:none;" d="M384 272L385 273L384 272z"/>
  <path style="fill:#7d8a93; stroke:none;" d="M417 272L418 273L417 272z"/>
  <path style="fill:#7b8086; stroke:none;" d="M359 273L360 274L359 273z"/>
  <path style="fill:#676b6f; stroke:none;" d="M442 273L443 274L442 273z"/>
  <path style="fill:#646d72; stroke:none;" d="M87 274L88 275L87 274z"/>
  <path style="fill:#bbc5d0; stroke:none;" d="M359 274L360 275L359 274z"/>
  <path style="fill:#9eb0be; stroke:none;" d="M387 274L388 275L387 274z"/>
  <path style="fill:#a7b0b9; stroke:none;" d="M442 274L443 275L442 274z"/>
  <path style="fill:#626569; stroke:none;" d="M360 275L361 276L360 275z"/>
  <path style="fill:#5d656a; stroke:none;" d="M88 276L89 277L88 276z"/>
  <path style="fill:#bdc7d2; stroke:none;" d="M360 276L361 277L360 276z"/>
  <path style="fill:#aab3bc; stroke:none;" d="M441 276L442 277L441 276z"/>
  <path style="fill:#82888e; stroke:none;" d="M361 277L362 278L361 277z"/>
  <path style="fill:#5d6469; stroke:none;" d="M389 277L390 278L389 277z"/>
  <path style="fill:#717b83; stroke:none;" d="M412 277L413 278L412 277z"/>
  <path style="fill:#707479; stroke:none;" d="M440 277L441 278L440 277z"/>
  <path style="fill:#758289; stroke:none;" d="M89 278L90 279L89 278z"/>
  <path style="fill:#95a5b2; stroke:none;" d="M390 278L391 279L390 278z"/>
  <path style="fill:#5e656a; stroke:none;" d="M411 279L412 280L411 279z"/>
  <path style="fill:#9aacb9; stroke:none;" d="M391 280L392 281L391 280z"/>
  <path style="fill:#74787d; stroke:none;" d="M365 281L366 282L365 281z"/>
  <path style="fill:#687178; stroke:none;" d="M391 281L392 282L391 281z"/>
  <path style="fill:#7b8790; stroke:none;" d="M410 281L411 282L410 281z"/>
  <path style="fill:#686c70; stroke:none;" d="M436 281L437 282L436 281z"/>
  <path style="fill:#8fa1ab; stroke:none;" d="M92 282L93 283L92 282z"/>
  <path style="fill:#b1bac4; stroke:none;" d="M366 282L367 283L366 282z"/>
  <path style="fill:#a7b0b9; stroke:none;" d="M435 282L436 283L435 282z"/>
  <path style="fill:#9ca4ac; stroke:none;" d="M368 283L369 284L368 283z"/>
  <path style="fill:#959ca4; stroke:none;" d="M433 283L434 284L433 283z"/>
  <path style="fill:#9da5ad; stroke:none;" d="M370 284L371 285L370 284z"/>
  <path style="fill:#949ba3; stroke:none;" d="M431 284L432 285L431 284z"/>
  <path style="fill:#626a6f; stroke:none;" d="M96 285L97 286L96 285z"/>
  <path style="fill:#9fa7af; stroke:none;" d="M372 285L373 286L372 285z"/>
  <path style="fill:#949ba3; stroke:none;" d="M429 285L430 286L429 285z"/>
  <path style="fill:#90a1ac; stroke:none;" d="M97 286L98 287L97 286z"/>
  <path style="fill:#a0a8b0; stroke:none;" d="M374 286L375 287L374 286z"/>
  <path style="fill:#949ba3; stroke:none;" d="M427 286L428 287L427 286z"/>
  <path style="fill:#819099; stroke:none;" d="M99 287L100 288L99 287z"/>
  <path style="fill:#8d9ea9; stroke:none;" d="M101 288L102 289L101 288z"/>
  <path style="fill:#5f676c; stroke:none;" d="M102 288L103 289L102 288z"/>
  <path style="fill:#808f97; stroke:none;" d="M306 317L307 318L306 317z"/>
  <path style="fill:#6f7a81; stroke:none;" d="M304 318L305 319L304 318z"/>
  <path style="fill:#7b8890; stroke:none;" d="M302 319L303 320L302 319z"/>
  <path style="fill:#8fa0aa; stroke:none;" d="M299 321L300 322L299 321z"/>
  <path style="fill:#61696f; stroke:none;" d="M280 322L281 323L280 322z"/>
  <path style="fill:#819099; stroke:none;" d="M298 322L299 323L298 322z"/>
  <path style="fill:#85959e; stroke:none;" d="M280 323L281 324L280 323z"/>
  <path style="fill:#76838a; stroke:none;" d="M297 323L298 324L297 323z"/>
  <path style="fill:#8797a0; stroke:none;" d="M146 324L147 325L146 324z"/>
  <path style="fill:#84939c; stroke:none;" d="M296 324L297 325L296 324z"/>
  <path style="fill:#636c71; stroke:none;" d="M279 325L280 326L279 325z"/>
  <path style="fill:#727d84; stroke:none;" d="M147 326L148 327L147 326z"/>
  <path style="fill:#5c6367; stroke:none;" d="M278 327L279 328L278 327z"/>
  <path style="fill:#60686d; stroke:none;" d="M294 327L295 328L294 327z"/>
  <path style="fill:#758289; stroke:none;" d="M148 328L149 329L148 328z"/>
  <path style="fill:#707b82; stroke:none;" d="M277 329L278 330L277 329z"/>
  <path style="fill:#86959f; stroke:none;" d="M292 330L293 331L292 330z"/>
  <path style="fill:#79868e; stroke:none;" d="M150 331L151 332L150 331z"/>
  <path style="fill:#646d72; stroke:none;" d="M151 332L152 333L151 332z"/>
  <path style="fill:#8d9ea9; stroke:none;" d="M275 332L276 333L275 332z"/>
  <path style="fill:#83929b; stroke:none;" d="M274 333L275 334L274 333z"/>
  <path style="fill:#6a747a; stroke:none;" d="M291 333L292 334L291 333z"/>
  <path style="stroke: none; fill: rgb(67, 152, 209);" d="M427 333C427 339.877 427.012 346.251 422.292 351.815C413.221 362.505 389.376 362.188 380.214 351.957C375.258 346.422 375.001 340.023 375 333L328 333C322.882 333 314.287 331.349 310.318 335.318C307.128 338.508 308 343.9 308 348C308 358.524 306.234 370.863 309.348 381C310.719 385.461 311.557 391.433 317.044 391.941C330.453 393.185 344.529 392 358 392L439 392L473 392C477.14 392 483.787 393.255 487.581 391.397C491.017 389.713 491.917 383.295 492.999 380C496.418 369.59 495.005 357.847 495 347C494.998 342.364 495.393 337.048 490.811 334.318C485.953 331.423 477.458 333 472 333L427 333z"/>
  <path style="fill:#60686d; stroke:none;" d="M153 334L154 335L153 334z"/>
  <path style="fill:#86959f; stroke:none;" d="M273 334L274 335L273 334z"/>
  <path style="fill:#6e7980; stroke:none;" d="M154 335L155 336L154 335z"/>
  <path style="fill:#91a3ae; stroke:none;" d="M272 335L273 336L272 335z"/>
  <path style="fill:#8d9ea8; stroke:none;" d="M155 336L156 337L155 336z"/>
  <path style="fill:#636c71; stroke:none;" d="M157 337L158 338L157 337z"/>
  <path style="fill:#7d8b93; stroke:none;" d="M269 337L270 338L269 337z"/>
  <path style="fill:#6c777d; stroke:none;" d="M267 338L268 339L267 338z"/>
  <path style="fill:#687278; stroke:none;" d="M161 339L162 340L161 339z"/>
  <path style="fill:#78858d; stroke:none;" d="M265 339L266 340L265 339z"/>
  <path style="fill:#78858d; stroke:none;" d="M18 342L19 343L18 342z"/>
  <path style="fill:#446b80; stroke:none;" d="M426.333 343.667C426.278 343.722 426.222 344.778 426.667 344.333C426.722 344.278 426.778 343.222 426.333 343.667z"/>
  <path style="fill:#727e85; stroke:none;" d="M19 345L20 346L19 345z"/>
  <path style="fill:#808e97; stroke:none;" d="M20 347L21 348L20 347z"/>
  <path style="fill:#7d8b93; stroke:none;" d="M21 349L22 350L21 349z"/>
  <path style="fill:#61696f; stroke:none;" d="M22 351L23 352L22 351z"/>
  <path style="fill:#8898a2; stroke:none;" d="M23 352L24 353L23 352z"/>
  <path style="fill:#626a6f; stroke:none;" d="M26 356L27 357L26 356M27 357L28 358L27 357z"/>
  <path style="fill:#8898a2; stroke:none;" d="M31 360L32 361L31 360z"/>
  <path style="fill:#626a6f; stroke:none;" d="M32 361L33 362L32 361z"/>
  <path style="fill:#7d8b93; stroke:none;" d="M34 362L35 363L34 362z"/>
  <path style="fill:#7b8890; stroke:none;" d="M36 363L37 364L36 363z"/>
  <path style="fill:#717d84; stroke:none;" d="M38 364L39 365L38 364z"/>
  <path style="fill:#758289; stroke:none;" d="M267 367L268 368L267 367z"/>
  <path style="fill:#7d8c94; stroke:none;" d="M269 368L270 369L269 368z"/>
  <path style="fill:#6b757b; stroke:none;" d="M270 369L271 370L270 369z"/>
  <path style="fill:#7f8d96; stroke:none;" d="M271 370L272 371L271 370z"/>
  <path style="fill:#76828a; stroke:none;" d="M272 372L273 373L272 372z"/>
  <path style="stroke: none; fill: rgb(67, 152, 209);" d="M320 410C320.485 415.553 322.751 420.602 324 426L478 426C479.26 420.553 481.271 415.312 483 410L320 410z"/>
  <path style="stroke: none; fill: rgb(67, 152, 209);" d="M331 444C331.622 448.214 332.953 457.398 337.278 459.397C340.269 460.779 344.787 460 348 460L371 460L435 460C443.708 460 455.495 462.093 463.867 459.682C468.936 458.222 470.339 448.473 471 444L331 444z"/>
  <path style="stroke: none; fill: rgb(67, 152, 209);" d="M342 478C343.319 483.703 344.915 491.853 351.015 494.258C357.407 496.777 367.201 495 374 495L425 495C432.61 495 443.845 497.072 450.985 494.258C457.085 491.853 458.681 483.703 460 478L342 478z"/>
</svg>