<?xml version="1.0" standalone="no"?>
<!DOCTYPE svg PUBLIC "-//W3C//DTD SVG 20010904//EN"
 "http://www.w3.org/TR/2001/REC-SVG-20010904/DTD/svg10.dtd">
<svg version="1.0" xmlns="http://www.w3.org/2000/svg"
 width="512.000000pt" height="512.000000pt" viewBox="0 0 512.000000 512.000000"
 preserveAspectRatio="xMidYMid meet">

<g transform="translate(0.000000,512.000000) scale(0.100000,-0.100000)"
fill="#000000" stroke="none">
<path d="M0 4825 l0 -85 213 -2 212 -3 3 -297 2 -298 -135 0 c-141 0 -185 -10
-199 -45 -3 -9 -6 -184 -6 -389 l0 -373 23 -21 c21 -20 35 -22 167 -24 l145
-3 3 -42 3 -43 -136 0 c-141 0 -185 -10 -199 -45 -3 -9 -6 -184 -6 -389 0
-366 0 -373 21 -392 18 -16 42 -20 168 -24 l146 -5 3 -1068 2 -1068 83 3 82 3
3 467 2 468 2163 2 c2058 3 2164 4 2202 21 50 23 100 70 128 122 l22 40 3
1420 c3 1561 6 1469 -58 1547 -17 20 -53 48 -82 62 l-52 26 -2163 0 -2163 0 0
215 c0 245 -6 275 -60 294 -21 7 -123 11 -286 11 l-254 0 0 -85z m4920 -625
c11 -11 22 -30 25 -42 3 -13 4 -645 3 -1405 l-3 -1382 -23 -23 -23 -23 -2149
-3 -2150 -2 0 1450 0 1450 2150 0 c2127 0 2150 0 2170 -20z m-4490 -485 l0
-255 -85 0 -85 0 0 255 0 255 85 0 85 0 0 -255z m0 -940 l0 -255 -85 0 -85 0
0 255 0 255 85 0 85 0 0 -255z"/>
<path d="M795 4025 l-25 -24 0 -288 c1 -302 1 -307 47 -331 31 -17 895 -17
926 0 46 24 46 29 47 331 l0 288 -25 24 -24 25 -461 0 -461 0 -24 -25z m825
-315 l0 -170 -340 0 -340 0 0 170 0 170 340 0 340 0 0 -170z"/>
<path d="M1110 3715 l0 -85 170 0 170 0 0 85 0 85 -170 0 -170 0 0 -85z"/>
<path d="M2132 3968 l3 -83 83 -3 82 -3 0 86 0 85 -85 0 -86 0 3 -82z"/>
<path d="M1880 3800 l0 -170 85 0 85 0 0 170 0 170 -85 0 -85 0 0 -170z"/>
<path d="M2130 3625 l0 -85 85 0 85 0 0 85 0 85 -85 0 -85 0 0 -85z"/>
<path d="M2623 3623 c-13 -2 -32 -16 -43 -30 -20 -25 -20 -38 -20 -820 l0
-795 29 -29 29 -29 1051 0 1050 0 28 24 28 24 3 789 c2 592 -1 795 -10 817
-24 58 15 56 -1100 55 -563 -1 -1033 -4 -1045 -6z m1985 -850 l2 -683 -940 0
-940 0 0 685 0 685 938 -2 937 -3 3 -682z"/>
<path d="M3028 3280 c-27 -5 -64 -18 -83 -30 -48 -30 -103 -96 -115 -139 -6
-20 -10 -171 -10 -344 0 -331 1 -341 54 -410 14 -19 50 -47 78 -63 51 -28 58
-29 216 -32 l163 -4 -3 276 c-4 339 6 319 -153 324 l-105 4 0 -86 0 -86 45 0
45 0 0 -130 0 -130 -44 0 c-53 0 -94 14 -112 38 -10 13 -13 84 -14 303 0 366
-16 337 188 341 l147 3 0 85 0 85 -125 1 c-69 1 -146 -2 -172 -6z"/>
<path d="M3490 3284 c-42 -15 -60 -30 -70 -57 -6 -19 -10 -198 -10 -498 l0
-469 85 0 85 0 2 213 3 212 147 5 c208 7 193 -16 193 295 l0 245 -28 27 -27
28 -183 2 c-100 1 -189 0 -197 -3z m260 -299 l0 -125 -85 0 -85 0 0 125 0 125
85 0 85 0 0 -125z"/>
<path d="M4017 3283 c-4 -3 -7 -185 -7 -404 0 -376 1 -401 20 -453 77 -206
367 -218 466 -19 18 35 19 69 22 461 l3 423 -83 -3 -83 -3 -3 -401 -2 -401
-25 -23 c-34 -32 -87 -32 -118 -2 -22 22 -22 24 -25 427 l-3 405 -78 0 c-43 0
-81 -3 -84 -7z"/>
<path d="M1880 3285 l0 -176 83 3 82 3 0 170 0 170 -82 3 -83 3 0 -176z"/>
<path d="M2130 3285 l0 -85 85 0 85 0 0 85 0 85 -85 0 -85 0 0 -85z"/>
<path d="M795 3085 l-25 -24 0 -289 0 -289 26 -24 26 -24 458 0 458 0 26 24
26 24 0 289 0 289 -25 24 -24 25 -461 0 -461 0 -24 -25z m825 -315 l0 -170
-340 0 -340 0 0 170 0 170 340 0 340 0 0 -170z"/>
<path d="M1110 2775 l0 -85 170 0 170 0 0 85 0 85 -170 0 -170 0 0 -85z"/>
<path d="M2130 2945 l0 -85 85 0 85 0 0 85 0 85 -85 0 -85 0 0 -85z"/>
<path d="M1880 2770 l0 -170 85 0 85 0 0 170 0 170 -85 0 -85 0 0 -170z"/>
<path d="M2130 2605 l0 -85 85 0 85 0 0 85 0 85 -85 0 -85 0 0 -85z"/>
<path d="M1880 2260 l0 -170 85 0 85 0 0 170 0 170 -85 0 -85 0 0 -170z"/>
<path d="M2137 2343 c-4 -3 -7 -42 -7 -85 l0 -78 85 0 85 0 0 85 0 85 -78 0
c-43 0 -82 -3 -85 -7z"/>
<path d="M833 2173 c-13 -2 -32 -16 -43 -30 -19 -24 -20 -40 -20 -309 l0 -283
24 -28 24 -28 462 0 462 0 24 28 24 28 0 284 0 284 -24 28 -24 28 -444 1
c-243 1 -453 0 -465 -3z m787 -338 l0 -175 -340 0 -340 0 0 175 0 175 340 0
340 0 0 -175z"/>
<path d="M1110 1835 l0 -85 170 0 170 0 0 85 0 85 -170 0 -170 0 0 -85z"/>
<path d="M2134 1997 c-3 -8 -4 -47 -2 -88 l3 -74 83 -3 82 -3 0 91 0 90 -80 0
c-58 0 -82 -4 -86 -13z"/>
<path d="M1880 1750 l0 -170 85 0 85 0 0 170 0 170 -85 0 -85 0 0 -170z"/>
<path d="M2132 1578 l3 -83 83 -3 82 -3 0 86 0 85 -85 0 -86 0 3 -82z"/>
</g>
</svg>
