<?xml version="1.0" encoding="UTF-8" standalone="no"?>
<!-- Created with Inkscape (http://www.inkscape.org/) -->

<svg
   xmlns:dc="http://purl.org/dc/elements/1.1/"
   xmlns:cc="http://creativecommons.org/ns#"
   xmlns:rdf="http://www.w3.org/1999/02/22-rdf-syntax-ns#"
   xmlns:svg="http://www.w3.org/2000/svg"
   xmlns="http://www.w3.org/2000/svg"
   xmlns:sodipodi="http://sodipodi.sourceforge.net/DTD/sodipodi-0.dtd"
   xmlns:inkscape="http://www.inkscape.org/namespaces/inkscape"
   width="180.62222mm"
   height="85.443878mm"
   viewBox="0 0 180.62222 85.443878"
   version="1.1"
   id="svg8"
   sodipodi:docname="drawing.svg"
   inkscape:version="0.92.5 (2060ec1f9f, 2020-04-08)">
  <defs
     id="defs2" />
  <sodipodi:namedview
     id="base"
     pagecolor="#ffffff"
     bordercolor="#666666"
     borderopacity="1.0"
     inkscape:pageopacity="0.0"
     inkscape:pageshadow="2"
     inkscape:zoom="0.35"
     inkscape:cx="-695.80952"
     inkscape:cy="-253.26777"
     inkscape:document-units="mm"
     inkscape:current-layer="layer1"
     showgrid="false"
     inkscape:window-width="1920"
     inkscape:window-height="1163"
     inkscape:window-x="0"
     inkscape:window-y="0"
     inkscape:window-maximized="1"
     fit-margin-top="0"
     fit-margin-left="0"
     fit-margin-right="0"
     fit-margin-bottom="0" />
  <metadata
     id="metadata5">
    <rdf:RDF>
      <cc:Work
         rdf:about="">
        <dc:format>image/svg+xml</dc:format>
        <dc:type
           rdf:resource="http://purl.org/dc/dcmitype/StillImage" />
        <dc:title></dc:title>
      </cc:Work>
    </rdf:RDF>
  </metadata>
  <g
     inkscape:label="Layer 1"
     inkscape:groupmode="layer"
     id="layer1"
     transform="translate(5.6444471,-90.236393)">
    <g
       id="g1036"
       transform="matrix(0.35277779,0,0,0.35277779,-5.6444471,90.236393)">
      <path
         id="path974"
         d="m 477.50781,139.48047 v 90.24219 c 0,2.66015 -2.15625,4.8164 -4.8125,4.8164 H 277.67578 c -2.65625,0 -4.8125,-2.15625 -4.8125,-4.8164 v -23.28907 c 0,-4.66015 -1.89062,-8.87109 -4.9375,-11.92578 -3.07422,-3.0664 -7.32812,-4.96875 -12.03906,-4.9375 -9.33984,0.0625 -16.75,7.94922 -16.75,17.29297 v 22.85938 c 0,2.66015 -2.15625,4.8164 -4.8125,4.8164 H 39.304688 c -2.65625,0 -4.8125,-2.15625 -4.8125,-4.8164 v -90.24219 z m 0,0"
         inkscape:connector-curvature="0"
         style="fill:#ffb52d" />
      <path
         id="path976"
         d="m 477.50781,139.48047 v 90.24219 c 0,2.66015 -2.15625,4.8164 -4.8125,4.8164 H 277.67578 c -2.65625,0 -4.8125,-2.15625 -4.8125,-4.8164 v -23.28907 c 0,-4.66015 -1.89062,-8.87109 -4.9375,-11.92578 -3.07422,-3.0664 -7.32812,-4.96875 -12.03906,-4.9375 -9.33984,0.0625 -16.75,7.94922 -16.75,17.29297 v 22.85938 c 0,2.66015 -2.15625,4.8164 -4.8125,4.8164 H 75.074219 c -2.65625,0 -4.8125,-2.15625 -4.8125,-4.8164 v -90.24219 z m 0,0"
         inkscape:connector-curvature="0"
         style="fill:#ffcd71" />
      <path
         id="path978"
         d="m 468.53516,53.726562 c -3.07813,3.074219 -4.97657,7.359376 -4.9375,12.078126 0.082,9.324218 7.97265,16.710937 17.30468,16.710937 h 16.75782 c 3.6914,0 6.67578,2.984375 6.67578,6.675781 v 65.437504 c 0,8.57421 -6.94922,15.52343 -15.52344,15.52343 H 23.1875 c -8.574219,0 -15.523438,-6.94922 -15.523438,-15.52343 V 89.191406 c 0,-3.691406 2.984376,-6.675781 6.675782,-6.675781 h 17.199218 c 4.660157,0 8.882813,-1.890625 11.925782,-4.9375 2.953125,-2.960937 4.8125,-7.007813 4.925781,-11.484375 0.01172,-0.207031 0.01172,-0.421875 0.01172,-0.625 0,-0.08984 0,-0.195312 -0.01172,-0.285156 C 48.136719,56.003906 40.316406,48.789062 31.097656,48.789062 H 14.339844 c -3.691406,0 -6.675782,-2.984374 -6.675782,-6.671874 V 23.1875 c 0,-8.574219 6.949219,-15.523438 15.523438,-15.523438 h 465.625 c 8.57422,0 15.52344,6.949219 15.52344,15.523438 v 18.929688 c 0,3.6875 -2.98438,6.671874 -6.67578,6.671874 h -17.19922 c -4.66016,0 -8.88282,1.890626 -11.92578,4.9375 z m 0,0"
         inkscape:connector-curvature="0"
         style="fill:#6990d7" />
      <path
         id="path980"
         d="m 468.53516,53.726562 c -3.07813,3.074219 -4.97657,7.359376 -4.9375,12.078126 0.082,9.324218 7.97265,16.710937 17.30468,16.710937 h 16.75782 c 3.6914,0 6.67578,2.984375 6.67578,6.675781 V 142.38281 H 63.914062 c -8.574218,0 -15.523437,-6.94922 -15.523437,-15.52343 V 7.664062 H 488.8125 c 8.57422,0 15.52344,6.949219 15.52344,15.523438 v 18.929688 c 0,3.6875 -2.98438,6.671874 -6.67578,6.671874 h -17.19922 c -4.66016,0 -8.88282,1.890626 -11.92578,4.9375 z m 0,0"
         inkscape:connector-curvature="0"
         style="fill:#91aee2" />
      <g
         id="g990"
         style="fill:#2e5aac">
        <path
           id="path982"
           d="m 148.25,45.457031 v 88.218749 c 0,4.71094 -3.8125,8.52344 -8.52344,8.52344 h -30.71875 c -4.70312,0 -8.52343,-3.8125 -8.52343,-8.52344 V 45.457031 c 0,-4.699219 3.82031,-8.523437 8.52343,-8.523437 h 30.71875 c 4.71094,0 8.52344,3.824218 8.52344,8.523437 z m 0,0"
           inkscape:connector-curvature="0" />
        <path
           id="path984"
           d="m 236.00781,45.457031 v 88.218749 c 0,4.71094 -3.82031,8.52344 -8.52344,8.52344 h -30.71875 c -4.71093,0 -8.52343,-3.8125 -8.52343,-8.52344 V 45.457031 c 0,-4.699219 3.8125,-8.523437 8.52343,-8.523437 h 30.71875 c 4.70313,0 8.52344,3.824218 8.52344,8.523437 z m 0,0"
           inkscape:connector-curvature="0" />
        <path
           id="path986"
           d="m 323.75781,45.457031 v 88.218749 c 0,4.71094 -3.8125,8.52344 -8.52344,8.52344 h -30.71875 c -4.70312,0 -8.52343,-3.8125 -8.52343,-8.52344 V 45.457031 c 0,-4.699219 3.82031,-8.523437 8.52343,-8.523437 h 30.71875 c 4.71094,0 8.52344,3.824218 8.52344,8.523437 z m 0,0"
           inkscape:connector-curvature="0" />
        <path
           id="path988"
           d="m 411.51562,45.457031 v 88.218749 c 0,4.71094 -3.82031,8.52344 -8.52343,8.52344 h -30.71875 c -4.71094,0 -8.52344,-3.8125 -8.52344,-8.52344 V 45.457031 c 0,-4.699219 3.8125,-8.523437 8.52344,-8.523437 h 30.71875 c 4.70312,0 8.52343,3.824218 8.52343,8.523437 z m 0,0"
           inkscape:connector-curvature="0" />
      </g>
      <path
         id="path992"
         d="m 148.25,45.457031 v 88.218749 c 0,4.71094 -3.8125,8.52344 -8.52344,8.52344 h -6.86719 c -4.71093,0 -8.52343,-3.8125 -8.52343,-8.52344 V 45.457031 c 0,-4.699219 3.8125,-8.523437 8.52343,-8.523437 h 6.86719 c 4.71094,0 8.52344,3.824218 8.52344,8.523437 z m 0,0"
         inkscape:connector-curvature="0"
         style="fill:#4172cc" />
      <path
         id="path994"
         d="m 236.00781,45.457031 v 88.218749 c 0,4.71094 -3.82031,8.52344 -8.52344,8.52344 h -6.875 c -4.70312,0 -8.52343,-3.8125 -8.52343,-8.52344 V 45.457031 c 0,-4.699219 3.82031,-8.523437 8.52343,-8.523437 h 6.875 c 4.70313,0 8.52344,3.824218 8.52344,8.523437 z m 0,0"
         inkscape:connector-curvature="0"
         style="fill:#4172cc" />
      <path
         id="path996"
         d="m 323.75781,45.457031 v 88.218749 c 0,4.71094 -3.8125,8.52344 -8.52344,8.52344 h -6.86718 c -4.71094,0 -8.52344,-3.8125 -8.52344,-8.52344 V 45.457031 c 0,-4.699219 3.8125,-8.523437 8.52344,-8.523437 h 6.86718 c 4.71094,0 8.52344,3.824218 8.52344,8.523437 z m 0,0"
         inkscape:connector-curvature="0"
         style="fill:#4172cc" />
      <path
         id="path998"
         d="m 411.51562,45.457031 v 88.218749 c 0,4.71094 -3.82031,8.52344 -8.52343,8.52344 h -6.875 c -4.70313,0 -8.52344,-3.8125 -8.52344,-8.52344 V 45.457031 c 0,-4.699219 3.82031,-8.523437 8.52344,-8.523437 h 6.875 c 4.70312,0 8.52343,3.824218 8.52343,8.523437 z m 0,0"
         inkscape:connector-curvature="0"
         style="fill:#4172cc" />
      <path
         id="path1000"
         d="M 497.66016,56.457031 C 505.56641,56.457031 512,50.023438 512,42.117188 V 23.1875 C 512,10.402344 501.59766,0 488.8125,0 H 99.234375 c -4.230469,0 -7.664063,3.433594 -7.664063,7.664062 0,4.234376 3.433594,7.664063 7.664063,7.664063 H 488.8125 c 4.33203,0 7.85937,3.527344 7.85937,7.859375 V 41.125 c -15.875,0 -24.76562,-1.609375 -33.55859,7.183594 -15.45312,15.453125 -4.35156,41.875 17.78125,41.875 h 15.77734 v 64.445316 c 0,4.33203 -3.52734,7.85937 -7.85937,7.85937 -1.6875,0 -456.335938,0 -465.625,0 -4.332031,0 -7.859375,-3.52734 -7.859375,-7.85937 V 90.183594 h 16.210937 c 13.582032,0 24.527344,-10.992188 24.527344,-24.53125 C 55.988281,51.757812 44.5,41.125 31.097656,41.125 H 15.328125 V 23.191406 c 0,-4.335937 3.527344,-7.859375 7.859375,-7.859375 h 45.386719 c 4.234375,0 7.667969,-3.433593 7.667969,-7.667969 C 76.242188,3.433594 72.808594,0 68.574219,0 H 23.1875 C 10.402344,0 0,10.402344 0,23.191406 v 18.925782 c 0,7.90625 6.433594,14.339843 14.339844,14.339843 h 16.757812 c 8.550782,0 12.777344,9.855469 6.949219,15.703125 -3.480469,3.480469 -5.75,2.691406 -23.707031,2.691406 C 6.433594,74.851562 0,81.285156 0,89.191406 v 65.437504 c 0,12.78515 10.402344,23.1875 23.1875,23.1875 h 3.640625 v 56.72265 c 0,4.23438 3.429687,7.66406 7.664063,7.66406 H 239.13672 c 4.23437,0 7.66406,-3.42968 7.66406,-7.66406 v -28.10547 c 0,-5.07031 4.12891,-9.19922 9.19922,-9.19922 5.09375,0 9.19922,4.1211 9.19922,9.19922 v 28.10547 c 0,4.23438 3.42969,7.66406 7.66406,7.66406 h 204.64453 c 4.23438,0 7.66406,-3.42968 7.66406,-7.66406 v -56.72265 h 3.64063 c 12.78516,0 23.1875,-10.40235 23.1875,-23.1875 V 89.191406 c 0,-7.90625 -6.43359,-14.339844 -14.33984,-14.339844 h -16.76563 c -8.51953,0 -12.77344,-9.871093 -6.94141,-15.703124 3.47657,-3.476563 5.73438,-2.691407 23.70704,-2.691407 z M 469.84375,226.875 h -19.15234 v -31.86719 c 0,-4.23437 -3.4336,-7.66406 -7.66407,-7.66406 -4.23437,0 -7.66797,3.42969 -7.66797,7.66406 V 226.875 h -18.82031 v -31.86719 c 0,-4.23437 -3.43359,-7.66406 -7.66406,-7.66406 -4.23438,0 -7.66797,3.42969 -7.66797,7.66406 V 226.875 h -18.82031 v -31.86719 c 0,-4.23437 -3.4336,-7.66406 -7.66406,-7.66406 -4.23438,0 -7.66797,3.42969 -7.66797,7.66406 V 226.875 h -18.82032 v -31.86719 c 0,-4.23437 -3.42968,-7.66406 -7.66406,-7.66406 -4.23437,0 -7.66406,3.42969 -7.66406,7.66406 V 226.875 h -18.82422 v -31.86719 c 0,-4.23437 -3.42969,-7.66406 -7.66406,-7.66406 -4.23438,0 -7.66406,3.42969 -7.66406,7.66406 V 226.875 h -18.22657 v -20.44141 c 0,-13.51953 -10.9375,-24.52734 -24.52734,-24.52734 -13.52344,0 -24.52734,11 -24.52734,24.52734 V 226.875 h -18.22657 v -31.86719 c 0,-4.23437 -3.42968,-7.66406 -7.66406,-7.66406 -4.23437,0 -7.66406,3.42969 -7.66406,7.66406 V 226.875 h -18.82422 v -31.86719 c 0,-4.23437 -3.42969,-7.66406 -7.66406,-7.66406 -4.23438,0 -7.66407,3.42969 -7.66407,7.66406 V 226.875 h -18.82421 v -31.86719 c 0,-4.23437 -3.42969,-7.66406 -7.66407,-7.66406 -4.23437,0 -7.66406,3.42969 -7.66406,7.66406 V 226.875 h -18.82422 v -31.86719 c 0,-4.23437 -3.42968,-7.66406 -7.66406,-7.66406 -4.234375,0 -7.664062,3.42969 -7.664062,7.66406 V 226.875 H 76.640625 v -31.86719 c 0,-4.23437 -3.433594,-7.66406 -7.667969,-7.66406 -4.230468,0 -7.664062,3.42969 -7.664062,7.66406 V 226.875 H 42.15625 v -49.05859 h 427.6875 z m 0,0"
         inkscape:connector-curvature="0" />
      <path
         id="path1002"
         d="m 139.72656,149.87109 c 8.92578,0 16.1875,-7.26562 16.1875,-16.1914 V 45.464844 c 0,-8.925782 -7.26172,-16.191406 -16.1875,-16.191406 h -30.71484 c -8.92578,0 -16.191408,7.265624 -16.191408,16.191406 v 88.214846 c 0,8.92578 7.265628,16.1914 16.191408,16.1914 z m -31.57422,-16.1914 c 0,-93.558596 -0.41796,-89.074221 0.85938,-89.074221 32.94922,0 31.57422,-0.371094 31.57422,0.855469 0,93.558592 0.41797,89.078122 -0.85938,89.078122 -32.94922,0 -31.57422,0.36719 -31.57422,-0.85937 z m 0,0"
         inkscape:connector-curvature="0" />
      <path
         id="path1004"
         d="m 227.48047,149.87109 c 8.92578,0 16.1875,-7.26562 16.1875,-16.1914 V 45.464844 c 0,-8.925782 -7.26172,-16.191406 -16.1875,-16.191406 h -30.71485 c -8.92578,0 -16.1914,7.265624 -16.1914,16.191406 v 88.214846 c 0,8.92578 7.26562,16.1914 16.1914,16.1914 z m -31.57422,-16.1914 c 0,-93.558596 -0.41797,-89.074221 0.85937,-89.074221 h 30.71485 c 0.47265,0 0.85937,0.382812 0.85937,0.855469 0,93.558592 0.41797,89.078122 -0.85937,89.078122 -32.94922,0 -31.57422,0.36719 -31.57422,-0.85937 z m 0,0"
         inkscape:connector-curvature="0" />
      <path
         id="path1006"
         d="m 315.23437,149.87109 c 8.92579,0 16.19141,-7.26562 16.19141,-16.1914 V 45.464844 c 0,-8.925782 -7.26562,-16.191406 -16.19141,-16.191406 h -30.71484 c -8.92578,0 -16.1875,7.265624 -16.1875,16.191406 v 88.214846 c 0,8.92578 7.26172,16.1914 16.1875,16.1914 z m -31.57421,-16.1914 c 0,-93.558596 -0.41797,-89.074221 0.85937,-89.074221 32.94922,0 31.57422,-0.371094 31.57422,0.855469 0,93.558592 0.41797,89.078122 -0.85938,89.078122 -32.94921,0 -31.57421,0.36719 -31.57421,-0.85937 z m 0,0"
         inkscape:connector-curvature="0" />
      <path
         id="path1008"
         d="m 402.98828,149.87109 c 8.92578,0 16.19141,-7.26562 16.19141,-16.1914 V 45.464844 c 0,-8.925782 -7.26563,-16.191406 -16.19141,-16.191406 h -30.71484 c -8.92578,0 -16.1875,7.265624 -16.1875,16.191406 v 88.214846 c 0,8.92578 7.26172,16.1914 16.1875,16.1914 z m -31.57422,-16.1914 c 0,-93.558596 -0.41797,-89.074221 0.85938,-89.074221 h 30.71484 c 0.47656,0 0.85938,0.382812 0.85938,0.855469 0,93.558592 0.41796,89.078122 -0.85938,89.078122 -32.94922,0 -31.57422,0.36719 -31.57422,-0.85937 z m 0,0"
         inkscape:connector-curvature="0" />
    </g>
  </g>
</svg>
