<?xml version="1.0" standalone="no"?>
<!DOCTYPE svg PUBLIC "-//W3C//DTD SVG 20010904//EN"
 "http://www.w3.org/TR/2001/REC-SVG-20010904/DTD/svg10.dtd">
<svg version="1.0" xmlns="http://www.w3.org/2000/svg"
 width="512.000000pt" height="512.000000pt" viewBox="0 0 512.000000 512.000000"
 preserveAspectRatio="xMidYMid meet">

<g transform="translate(0.000000,512.000000) scale(0.100000,-0.100000)"
fill="#000000" stroke="none">
<path d="M1184 5109 c-54 -15 -127 -72 -157 -120 -36 -58 -50 -155 -45 -301 3
-93 6 -111 24 -129 28 -28 79 -28 107 0 20 20 22 34 27 181 l5 160 33 32 32
33 292 0 292 0 16 -67 c27 -109 86 -180 179 -213 63 -22 320 -21 386 2 92 31
155 114 181 238 l9 40 278 3 c307 3 326 -1 360 -57 16 -27 17 -180 17 -2351 0
-2171 -1 -2324 -17 -2351 -34 -56 -53 -60 -360 -57 l-278 3 -9 40 c-26 124
-89 207 -181 238 -66 23 -323 24 -386 2 -93 -33 -152 -104 -179 -213 l-16 -67
-88 -5 c-77 -4 -90 -8 -107 -29 -26 -32 -24 -67 6 -96 22 -23 32 -25 116 -25
151 0 206 39 232 161 26 125 49 139 227 139 178 0 201 -14 227 -139 16 -78 40
-113 96 -140 41 -20 60 -21 338 -21 169 0 310 4 331 10 100 28 184 123 197
222 l6 53 321 5 321 5 40 27 c75 50 78 64 78 389 0 268 -1 288 -19 308 -11 12
-27 21 -38 21 -16 0 -18 10 -18 105 0 95 2 105 18 105 11 0 27 9 38 21 18 20
19 45 22 491 3 492 -1 556 -39 610 -25 34 -90 67 -132 68 -73 0 -127 54 -127
125 0 71 54 125 127 125 42 1 107 34 132 68 11 17 26 54 31 83 13 70 13 1778
0 1848 -13 67 -42 108 -94 132 -37 17 -70 19 -352 19 l-311 0 -5 50 c-9 94
-96 192 -196 220 -21 6 -162 10 -331 10 -278 0 -297 -1 -338 -21 -56 -27 -80
-62 -96 -140 -26 -125 -49 -139 -227 -139 -178 0 -201 14 -227 139 -16 78 -40
113 -96 140 -41 20 -59 21 -343 20 -164 0 -313 -5 -330 -10z m2496 -794 l0
-75 -150 0 -150 0 0 75 0 75 150 0 150 0 0 -75z m0 -600 l0 -75 -150 0 -150 0
0 75 0 75 150 0 150 0 0 -75z m0 -600 l0 -75 -150 0 -150 0 0 75 0 75 150 0
150 0 0 -75z m0 -1100 l0 -75 -150 0 -150 0 0 75 0 75 150 0 150 0 0 -75z m0
-600 l0 -75 -150 0 -150 0 0 75 0 75 150 0 150 0 0 -75z m0 -600 l0 -75 -150
0 -150 0 0 75 0 75 150 0 150 0 0 -75z"/>
<path d="M1433 4451 c-26 -12 -52 -35 -70 -62 l-28 -43 0 -201 0 -201 28 -43
c18 -27 44 -50 70 -62 40 -18 76 -19 752 -19 676 0 712 1 752 19 26 12 52 35
70 62 l28 43 0 201 0 201 -28 43 c-18 27 -44 50 -70 62 -40 18 -76 19 -752 19
-676 0 -712 -1 -752 -19z"/>
<path d="M1044 4332 c-12 -2 -30 -12 -40 -24 -18 -19 -19 -87 -19 -2057 l0
-2036 28 -57 c48 -97 128 -148 244 -156 67 -4 73 -3 97 21 31 31 33 66 7 98
-14 18 -32 24 -86 30 -57 6 -72 11 -99 38 l-31 31 -5 2034 c-5 1947 -6 2035
-23 2054 -20 22 -41 29 -73 24z"/>
<path d="M1425 3391 c-80 -49 -94 -92 -95 -296 0 -88 5 -177 11 -198 14 -52
69 -111 117 -125 51 -15 838 -17 877 -2 15 6 32 23 38 40 l11 30 96 0 96 0 11
-30 c15 -41 46 -50 175 -50 135 0 178 12 223 61 47 52 55 91 55 269 0 170 -8
214 -47 260 -53 63 -12 60 -810 60 -691 0 -730 -1 -758 -19z"/>
<path d="M1454 2349 c-41 -12 -100 -77 -113 -126 -14 -49 -14 -336 -1 -385 13
-44 52 -93 91 -113 42 -22 1466 -22 1508 0 39 20 78 69 91 113 13 49 13 336
-1 385 -14 52 -69 111 -117 125 -48 15 -1409 15 -1458 1z"/>
<path d="M1433 1281 c-26 -12 -52 -35 -70 -62 l-28 -43 0 -201 0 -201 28 -43
c18 -27 44 -50 70 -62 40 -18 76 -19 752 -19 676 0 712 1 752 19 26 12 52 35
70 62 l28 43 0 201 0 201 -28 43 c-18 27 -44 50 -70 62 -40 18 -76 19 -752 19
-676 0 -712 -1 -752 -19z"/>
</g>
</svg>
