<?xml version="1.0" standalone="no"?>
<!DOCTYPE svg PUBLIC "-//W3C//DTD SVG 20010904//EN"
 "http://www.w3.org/TR/2001/REC-SVG-20010904/DTD/svg10.dtd">
<svg version="1.0" xmlns="http://www.w3.org/2000/svg"
 width="512.000000pt" height="512.000000pt" viewBox="0 0 512.000000 512.000000"
 preserveAspectRatio="xMidYMid meet">

<g transform="translate(0.000000,512.000000) scale(0.100000,-0.100000)"
fill="#000000" stroke="none">
<path d="M1184 5109 c-54 -15 -127 -72 -157 -120 -36 -58 -50 -155 -45 -301 4
-125 16 -148 78 -148 67 0 74 19 80 199 3 95 10 164 17 177 28 49 60 54 357
54 309 0 288 6 299 -79 11 -88 100 -184 195 -211 48 -13 296 -13 344 0 95 27
184 123 195 211 11 85 -10 79 299 79 304 0 330 -4 359 -61 22 -42 22 -4656 0
-4698 -29 -57 -55 -61 -359 -61 -309 0 -288 -6 -299 79 -11 88 -100 184 -195
211 -48 13 -296 13 -344 0 -95 -27 -184 -123 -195 -211 -10 -76 -14 -79 -104
-79 -72 0 -82 -3 -104 -25 -32 -31 -32 -69 0 -100 22 -23 32 -25 116 -25 151
0 206 39 232 161 26 125 49 139 227 139 178 0 201 -14 227 -139 16 -78 40
-113 96 -140 41 -20 60 -21 338 -21 169 0 310 4 331 10 100 28 184 123 197
222 l6 53 321 5 321 5 40 27 c75 50 78 64 78 389 0 268 -1 288 -19 308 -26 29
-86 29 -112 0 -17 -19 -19 -44 -24 -298 l-5 -276 -297 -3 -298 -2 0 75 0 75
170 0 c192 0 222 7 261 61 22 32 24 43 24 164 0 121 -2 132 -24 164 -39 54
-69 61 -261 61 l-170 0 0 75 0 75 170 0 c192 0 222 7 261 61 22 32 24 43 24
164 0 121 -2 132 -24 164 -39 54 -69 61 -261 61 l-170 0 0 75 0 75 170 0 c192
0 222 7 261 61 22 32 24 43 24 164 0 121 -2 132 -24 164 -39 54 -69 61 -261
61 l-170 0 0 325 0 325 170 0 c192 0 222 7 261 61 22 32 24 43 24 164 0 121
-2 132 -24 164 -39 54 -69 61 -261 61 l-170 0 0 75 0 75 170 0 c192 0 222 7
261 61 22 32 24 43 24 164 0 121 -2 132 -24 164 -39 54 -69 61 -261 61 l-170
0 0 75 0 75 170 0 c192 0 222 7 261 61 22 32 24 43 24 164 0 121 -2 132 -24
164 -39 54 -69 61 -261 61 l-170 0 0 75 0 75 298 -2 297 -3 0 -919 0 -919 -55
-11 c-144 -29 -230 -130 -230 -271 0 -141 86 -242 230 -271 l55 -11 5 -495 c5
-470 6 -497 24 -517 26 -29 86 -29 112 0 18 20 19 45 22 491 3 492 -1 556 -39
610 -25 34 -90 67 -132 68 -73 0 -127 54 -127 125 0 71 54 125 127 125 42 1
107 34 132 68 11 17 26 54 31 83 13 70 13 1778 0 1848 -13 67 -42 108 -94 132
-37 17 -70 19 -352 19 l-311 0 -5 50 c-9 94 -96 192 -196 220 -21 6 -162 10
-331 10 -278 0 -297 -1 -338 -21 -56 -27 -80 -62 -96 -140 -26 -125 -49 -139
-227 -139 -178 0 -201 14 -227 139 -16 78 -40 113 -96 140 -41 20 -59 21 -343
20 -164 0 -313 -5 -330 -10z m2496 -794 l0 -75 -150 0 -150 0 0 75 0 75 150 0
150 0 0 -75z m0 -600 l0 -75 -150 0 -150 0 0 75 0 75 150 0 150 0 0 -75z m0
-600 l0 -75 -150 0 -150 0 0 75 0 75 150 0 150 0 0 -75z m0 -1100 l0 -75 -150
0 -150 0 0 75 0 75 150 0 150 0 0 -75z m0 -600 l0 -75 -150 0 -150 0 0 75 0
75 150 0 150 0 0 -75z m0 -600 l0 -75 -150 0 -150 0 0 75 0 75 150 0 150 0 0
-75z"/>
<path d="M1432 4449 c-86 -43 -106 -112 -100 -344 5 -174 17 -211 81 -253 l41
-27 715 -3 c795 -3 775 -4 826 62 33 43 45 113 45 261 0 203 -22 269 -104 306
-39 18 -80 19 -751 19 -702 0 -710 0 -753 -21z m1443 -304 l0 -170 -690 0
-690 0 -3 160 c-1 87 0 165 2 172 4 11 137 13 693 11 l688 -3 0 -170z"/>
<path d="M1004 4309 c-19 -21 -19 -69 -19 -2058 l0 -2036 28 -57 c48 -97 128
-148 244 -156 67 -4 73 -3 97 21 55 55 15 127 -70 127 -54 0 -110 24 -127 54
-9 16 -13 484 -17 2052 -5 1980 -5 2032 -24 2053 -26 29 -86 29 -112 0z"/>
<path d="M1435 3396 c-37 -16 -82 -67 -93 -104 -4 -15 -7 -110 -7 -212 0 -156
3 -190 17 -216 23 -43 71 -81 116 -94 23 -6 194 -10 440 -10 334 0 408 2 431
15 46 23 54 66 20 109 l-20 26 -422 2 -422 3 -3 173 -2 172 695 0 695 0 -2
-172 -3 -173 -127 -3 c-123 -3 -128 -3 -148 -29 -33 -42 -25 -85 21 -108 33
-18 223 -21 281 -5 45 13 93 51 116 94 25 45 25 406 0 451 -21 39 -56 71 -91
84 -45 17 -1453 14 -1492 -3z"/>
<path d="M1457 2345 c-45 -15 -82 -47 -105 -90 -25 -45 -25 -406 0 -451 24
-43 72 -82 111 -89 18 -3 354 -5 748 -3 l716 3 36 28 c68 52 72 68 72 287 0
165 -3 200 -17 226 -23 43 -71 81 -116 94 -24 6 -280 10 -722 10 -554 -1 -692
-3 -723 -15z m1421 -312 l2 -173 -695 0 -695 0 0 168 c0 93 3 172 7 175 3 4
315 6 692 5 l686 -3 3 -172z"/>
<path d="M1432 1279 c-86 -43 -106 -112 -100 -344 5 -174 17 -211 81 -253 l41
-27 715 -3 c795 -3 775 -4 826 62 33 43 45 113 45 261 0 203 -22 269 -104 306
-39 18 -80 19 -751 19 -702 0 -710 0 -753 -21z m1443 -304 l0 -170 -690 0
-690 0 -3 160 c-1 87 0 165 2 172 4 11 137 13 693 11 l688 -3 0 -170z"/>
</g>
</svg>
