<?xml version="1.0" standalone="no"?>
<!DOCTYPE svg PUBLIC "-//W3C//DTD SVG 20010904//EN"
 "http://www.w3.org/TR/2001/REC-SVG-20010904/DTD/svg10.dtd">
<svg version="1.0" xmlns="http://www.w3.org/2000/svg"
 width="512.000000pt" height="512.000000pt" viewBox="0 0 512.000000 512.000000"
 preserveAspectRatio="xMidYMid meet">

<g transform="translate(0.000000,512.000000) scale(0.100000,-0.100000)"
fill="#000000" stroke="none">
<path d="M2060 5060 c-1015 -53 -1666 -194 -1904 -412 -37 -33 -77 -79 -89
-102 l-22 -41 0 -1910 0 -1910 33 -67 c135 -275 670 -454 1582 -533 443 -37
1122 -44 1545 -15 985 68 1605 245 1774 508 65 102 61 -38 61 2026 l0 1881
-24 51 c-125 270 -736 442 -1826 515 -209 14 -926 19 -1130 9z m885 -295 c462
-11 1013 -77 1350 -161 221 -55 430 -140 430 -174 0 -38 -247 -133 -475 -184
-522 -116 -1085 -163 -1849 -153 -736 9 -1282 70 -1723 193 -153 42 -328 119
-328 143 0 38 184 116 398 170 285 72 587 114 1112 157 119 10 620 21 765 17
66 -1 210 -5 320 -8z m-2528 -704 c150 -61 411 -126 671 -166 750 -116 1681
-134 2522 -49 438 44 829 123 1050 213 41 17 79 31 83 31 4 0 6 -202 5 -449
l-3 -449 -24 -26 c-133 -142 -638 -270 -1296 -330 -513 -47 -1183 -49 -1715
-6 -611 50 -1144 174 -1318 307 -62 47 -62 48 -62 523 0 236 3 430 8 430 4 0
39 -13 79 -29z m4 -1270 c371 -171 1032 -269 1939 -287 986 -21 1936 103 2332
302 26 13 50 24 53 24 3 0 4 -196 3 -434 l-3 -435 -34 -35 c-19 -20 -71 -53
-115 -75 -250 -121 -708 -210 -1351 -263 -215 -17 -1180 -18 -1400 0 -758 60
-1298 182 -1466 331 l-44 39 -3 436 c-1 240 -1 436 1 436 2 0 42 -17 88 -39z
m-23 -1220 c593 -299 2352 -395 3572 -194 262 43 570 127 696 191 21 11 49 23
62 27 l23 7 -3 -431 -3 -430 -35 -36 c-64 -67 -236 -137 -475 -195 -379 -92
-852 -146 -1402 -158 -922 -22 -1696 54 -2181 213 -152 51 -235 92 -283 141
l-34 35 -3 430 c-2 236 0 429 3 429 3 0 32 -13 63 -29z"/>
</g>
</svg>
