<?xml version="1.0" encoding="UTF-8" standalone="no"?>
<!-- Created with Inkscape (http://www.inkscape.org/) -->

<svg
   xmlns:dc="http://purl.org/dc/elements/1.1/"
   xmlns:cc="http://creativecommons.org/ns#"
   xmlns:rdf="http://www.w3.org/1999/02/22-rdf-syntax-ns#"
   xmlns:svg="http://www.w3.org/2000/svg"
   xmlns="http://www.w3.org/2000/svg"
   xmlns:sodipodi="http://sodipodi.sourceforge.net/DTD/sodipodi-0.dtd"
   xmlns:inkscape="http://www.inkscape.org/namespaces/inkscape"
   width="105.83333mm"
   height="49.309368mm"
   viewBox="0 0 105.83333 49.309368"
   version="1.1"
   id="svg8"
   inkscape:version="0.92.5 (2060ec1f9f, 2020-04-08)"
   sodipodi:docname="drawing.svg">
  <defs
     id="defs2" />
  <sodipodi:namedview
     id="base"
     pagecolor="#ffffff"
     bordercolor="#666666"
     borderopacity="1.0"
     inkscape:pageopacity="0.0"
     inkscape:pageshadow="2"
     inkscape:zoom="0.35"
     inkscape:cx="-322.85715"
     inkscape:cy="150.32591"
     inkscape:document-units="mm"
     inkscape:current-layer="layer1"
     showgrid="false"
     fit-margin-top="0"
     fit-margin-left="0"
     fit-margin-right="0"
     fit-margin-bottom="0"
     inkscape:window-width="1920"
     inkscape:window-height="1163"
     inkscape:window-x="0"
     inkscape:window-y="0"
     inkscape:window-maximized="1" />
  <metadata
     id="metadata5">
    <rdf:RDF>
      <cc:Work
         rdf:about="">
        <dc:format>image/svg+xml</dc:format>
        <dc:type
           rdf:resource="http://purl.org/dc/dcmitype/StillImage" />
        <dc:title></dc:title>
      </cc:Work>
    </rdf:RDF>
  </metadata>
  <g
     inkscape:label="Layer 1"
     inkscape:groupmode="layer"
     id="layer1"
     transform="translate(-53.67262,-142.32151)">
    <g
       id="svgg"
       transform="matrix(0.26458333,0,0,0.26458333,53.67262,114.05504)">
      <path
         d="m 38.08,119.28 c -0.666,0.666 -0.666,10.774 0,11.44 0.34,0.34 2.291,0.454 6.7,0.392 L 51,131.023 45.028,130.9 c -3.555,-0.073 -6.186,-0.3 -6.5,-0.56 -0.71,-0.589 -0.752,-9.956 -0.048,-10.66 0.529,-0.529 284.269,-0.726 309.855,-0.215 l 13.265,0.264 v 5.336 c 0,2.934 -0.045,5.37 -0.1,5.412 -0.055,0.042 -64.81,0.182 -143.9,0.311 l -143.8,0.235 134.4,0.034 c 73.92,0.019 138.72,-0.076 144,-0.211 l 9.6,-0.246 v -5.6 -5.6 l -9.6,-0.246 C 332.472,118.649 38.593,118.767 38.08,119.28 m 14.463,12.679 c 3.349,2.208 3.494,6.347 0.323,9.2 -1.043,0.938 -1.044,0.946 -0.066,0.358 3.862,-2.321 3.036,-10.346 -1.062,-10.314 -0.186,0.001 0.177,0.342 0.805,0.756 m 18.951,0.092 c -0.609,0.453 -1.296,1.213 -1.527,1.687 -0.396,0.811 -0.377,0.808 0.319,-0.053 0.407,-0.503 1.274,-1.267 1.927,-1.697 0.653,-0.431 1.007,-0.778 0.787,-0.773 -0.22,0.006 -0.898,0.382 -1.506,0.836 m -0.727,8.494 c 0.533,0.656 2.033,1.648 2.033,1.344 0,-0.076 -0.585,-0.567 -1.3,-1.09 -0.804,-0.589 -1.084,-0.686 -0.733,-0.254 m -58.9,1.722 c -0.147,0.146 -0.264,0.461 -0.261,0.7 0.004,0.26 0.132,0.234 0.321,-0.063 0.243,-0.382 4.845,-0.521 19.894,-0.604 L 51.4,142.192 31.767,142.096 c -10.799,-0.053 -19.754,0.024 -19.9,0.171 m 218.533,0.122 c 90.538,0.122 157.234,0.362 157.552,0.567 0.389,0.251 0.497,0.192 0.367,-0.2 -0.158,-0.473 -23.612,-0.558 -157.552,-0.567 l -157.367,-0.01 157,0.21 M 113.1,169.5 c 7.535,0.061 19.865,0.061 27.4,0 7.535,-0.061 1.37,-0.111 -13.7,-0.111 -15.07,0 -21.235,0.05 -13.7,0.111 m 72.4,0 c 7.535,0.061 19.865,0.061 27.4,0 7.535,-0.061 1.37,-0.111 -13.7,-0.111 -15.07,0 -21.235,0.05 -13.7,0.111 m 72.4,0 c 7.535,0.061 19.865,0.061 27.4,0 7.535,-0.061 1.37,-0.111 -13.7,-0.111 -15.07,0 -21.235,0.05 -13.7,0.111 m 73.029,0 c 7.661,0.061 20.081,0.061 27.6,0 7.519,-0.061 1.251,-0.111 -13.929,-0.111 -15.18,0 -21.332,0.05 -13.671,0.111 M 96.95,170.309 c -0.467,0.38 -1.156,1.231 -1.53,1.891 -0.674,1.188 -0.673,1.19 0.05,0.223 0.778,-1.042 1.069,-1.32 2.33,-2.224 0.44,-0.315 0.62,-0.575 0.4,-0.577 -0.22,-0.002 -0.782,0.307 -1.25,0.687 m 59.296,0.182 c 0.635,0.489 1.389,1.164 1.676,1.5 0.444,0.517 0.461,0.482 0.116,-0.234 -0.223,-0.464 -0.856,-1.139 -1.408,-1.5 -1.465,-0.961 -1.726,-0.802 -0.384,0.234 m 13.041,0.209 c -0.957,0.935 -0.973,0.981 -0.106,0.306 1.707,-1.33 1.788,-1.406 1.505,-1.406 -0.15,0 -0.78,0.495 -1.399,1.1 m 58.346,-0.97 c 0.092,0.071 0.797,0.536 1.567,1.033 l 1.4,0.903 -1.2,-1.031 c -0.66,-0.567 -1.365,-1.032 -1.567,-1.033 -0.201,-0.001 -0.291,0.056 -0.2,0.128 m 146.283,0.879 c 0.723,0.59 1.564,1.64 1.867,2.332 0.315,0.718 0.566,0.972 0.584,0.59 0.04,-0.815 -1.733,-2.991 -2.91,-3.572 -0.471,-0.233 -0.265,0.059 0.459,0.65 m -343.775,0.188 c -0.473,0.191 -1.002,0.585 -1.177,0.875 -0.249,0.414 -0.194,0.428 0.259,0.064 0.317,-0.255 1.207,-0.644 1.977,-0.864 0.77,-0.22 1.04,-0.405 0.6,-0.411 -0.44,-0.005 -1.187,0.146 -1.659,0.336 m 46.292,-0.253 c 0.092,0.079 0.707,0.264 1.367,0.412 0.876,0.196 1.038,0.159 0.6,-0.138 -0.54,-0.365 -2.368,-0.62 -1.967,-0.274 m 226.119,1.223 1.048,1.545 v 19.564 c 0,21.543 0.055,21.042 -2.485,22.669 -0.723,0.463 -1.163,0.845 -0.977,0.848 0.186,0.004 0.864,-0.367 1.506,-0.825 2.397,-1.706 2.356,-1.31 2.356,-22.568 0,-20.499 -0.018,-20.721 -1.822,-22.218 -0.371,-0.308 -0.203,0.135 0.374,0.985 m 10.747,-0.467 c -0.462,0.495 -0.944,1.44 -1.072,2.1 l -0.232,1.2 0.454,-1.2 c 0.249,-0.66 0.821,-1.605 1.272,-2.1 0.45,-0.495 0.728,-0.9 0.618,-0.9 -0.11,0 -0.578,0.405 -1.04,0.9 M 158.6,193 c 0,11.136 0.117,19.832 0.26,19.324 0.143,-0.508 0.26,-9.204 0.26,-19.324 0,-10.12 -0.117,-18.816 -0.26,-19.324 -0.143,-0.508 -0.26,8.188 -0.26,19.324 m 80.85,-18.55 c -0.329,1.647 -0.246,36.28 0.09,37.474 0.143,0.508 0.26,-7.997 0.26,-18.9 0,-10.903 -0.022,-19.824 -0.05,-19.824 -0.028,0 -0.162,0.563 -0.3,1.25 M 94.585,193 c 0,10.56 0.052,14.823 0.115,9.472 0.063,-5.35 0.063,-13.99 0,-19.2 -0.064,-5.209 -0.115,-0.832 -0.115,9.728 m 136.8,0 c 0,10.56 0.052,14.823 0.115,9.472 0.063,-5.35 0.063,-13.99 0,-19.2 -0.064,-5.209 -0.115,-0.832 -0.115,9.728 m 145.199,0 c 0,10.12 0.052,14.203 0.116,9.073 0.063,-5.131 0.063,-13.411 0,-18.4 -0.064,-4.99 -0.116,-0.793 -0.116,9.327 m -209.6,0 c 0,9.9 0.052,13.893 0.116,8.873 0.063,-5.02 0.063,-13.12 0,-18 -0.064,-4.88 -0.116,-0.773 -0.116,9.127 m 144.8,0 c 0,9.9 0.052,13.893 0.116,8.873 0.063,-5.02 0.063,-13.12 0,-18 -0.064,-4.88 -0.116,-0.773 -0.116,9.127 M 26.804,177.8 c 0.001,0.22 0.359,0.94 0.796,1.6 1.036,1.564 1.037,1.008 10e-4,-0.69 -0.439,-0.721 -0.797,-1.13 -0.797,-0.91 m 54.29,1.103 -0.706,1.297 0.806,-0.944 c 0.686,-0.804 1.052,-1.662 0.706,-1.653 -0.055,0.001 -0.418,0.586 -0.806,1.3 m 25.149,-0.249 c -0.134,0.348 -3.763,6.479 -3.763,12.493 0,13.113 -0.051,16.461 3.334,16.461 5.569,0 9.012,-0.162 9.289,6.875 l 0.015,5.629 10.511,2.151 c 12.344,0.148 14.238,-0.931 14.409,-6.949 0.193,-6.803 2.005,-5.295 7.179,-5.296 3.841,-0.001 5.941,-3.571 5.941,-16.833 0,-10.313 -3.596,-13.595 -4.153,-13.809 -1.64,-0.629 -45.108,-0.999 -45.356,-0.351 m 73.479,0.427 c -0.106,0.278 0.04,9.243 0.099,15.62 l 0.291,11.595 2.074,2.446 c 5.795,0.428 4.019,0.171 4.04,8.061 l 4.271,3.707 10.285,1.376 12.694,-2.331 c 1.041,0 12.58,-4.986 3.911,-4.986 0.299,-7.001 1.635,-5.479 6.67,-5.479 3.848,0 1.316,-5.976 1.316,-19.24 0,-10.313 -1.558,-12.669 -2.115,-12.883 -1.359,-0.522 -42.591,0.656 -42.795,1.188 m 70.636,-0.585 c -0.356,0.356 0.628,6.077 0.628,14.384 0,13.017 -1.133,15.8 3.583,16.122 4.921,0.336 6.777,-0.122 7.167,7.065 l 1.176,5.341 11.853,0.741 11.296,-1.297 5.388,-5.356 c 0.298,-7.156 -2.695,-5.208 2.916,-5.626 l 6.728,-5.056 -1.667,-14.409 -3.52,-12.185 -22.069,-1.215 c -15.391,-0.079 -24.408,1.308 -24.776,1.676 m 71.669,14.585 -0.82,14.142 7.469,1.536 c 5.545,0.413 5.295,-1.2 5.295,5.541 0,5.941 1.498,6.789 13.258,6.659 l 13.456,0.078 0.047,-5.911 c 0.35,-7.269 -0.145,-6.505 5.463,-6.922 l 4.149,-0.055 1.297,-14.779 -1.483,-14.408 -20.876,-0.29 -24.026,-0.473 -1.191,15.252 m -290.2,-11.409 c 0.377,0.149 11.035,0.272 23.685,0.272 12.65,0 23.308,-0.123 23.685,-0.272 0.377,-0.15 -10.281,-0.272 -23.684,-0.272 -13.404,0 -24.062,0.122 -23.686,0.272 M 31.6,186.4 c -0.55,0.176 9.71,0.32 22.8,0.32 13.09,0 23.35,-0.144 22.8,-0.32 -0.55,-0.176 -10.81,-0.32 -22.8,-0.32 -11.99,0 -22.25,0.144 -22.8,0.32 m -4.788,7.494 c -0.007,0.271 0.483,1 1.088,1.619 0.605,0.619 0.81,0.757 0.455,0.306 -0.355,-0.45 -0.845,-1.179 -1.088,-1.619 -0.244,-0.44 -0.448,-0.578 -0.455,-0.306 M 43.3,197.9 c 6.105,0.062 16.095,0.062 22.2,0 6.105,-0.062 1.11,-0.113 -11.1,-0.113 -12.21,0 -17.205,0.051 -11.1,0.113 m -15.464,6.531 c -0.57,0.677 -1.031,1.442 -1.024,1.7 0.007,0.258 0.211,0.109 0.455,-0.331 0.243,-0.44 0.809,-1.205 1.257,-1.7 0.449,-0.495 0.71,-0.9 0.581,-0.9 -0.129,0 -0.7,0.554 -1.269,1.231 m 284.386,8.169 c 0.125,0.66 0.706,1.65 1.291,2.2 l 1.064,1 -0.837,-1 c -0.461,-0.55 -1.042,-1.54 -1.291,-2.2 l -0.454,-1.2 0.227,1.2 m 63.54,0.408 c -0.139,0.555 -0.907,1.564 -1.707,2.242 -0.8,0.678 -1.095,1.051 -0.655,0.828 1.484,-0.751 3.797,-4.078 2.835,-4.078 -0.121,0 -0.334,0.454 -0.473,1.008 m -280.308,0.976 c 0.661,1.118 2.471,2.687 2.708,2.348 0.05,-0.073 -0.704,-0.912 -1.677,-1.865 -1.592,-1.559 -1.695,-1.607 -1.031,-0.483 m -63.939,-0.312 c 0.377,0.149 10.675,0.272 22.885,0.272 12.21,0 22.508,-0.123 22.885,-0.272 0.376,-0.15 -9.922,-0.272 -22.886,-0.272 -12.963,0 -23.261,0.122 -22.884,0.272 M 240,213.53 c 0,0.182 0.479,0.767 1.063,1.3 l 1.064,0.97 -0.939,-1.3 C 240.212,213.148 240,212.975 240,213.53 m -71.402,1.207 c 0.436,0.515 1.155,1.122 1.598,1.349 0.849,0.435 0.725,0.301 -1.193,-1.292 -1.155,-0.959 -1.169,-0.961 -0.405,-0.057 m 60.213,0.683 c -0.764,0.539 -1.214,0.979 -1,0.978 0.214,-0.001 0.929,-0.445 1.589,-0.986 1.541,-1.263 1.205,-1.259 -0.589,0.008 M 100.2,216.638 c 1.9,0.305 4.6,0.343 4.6,0.065 0,-0.167 -1.215,-0.278 -2.7,-0.249 -1.485,0.03 -2.34,0.113 -1.9,0.184 m 48.467,0.029 c -0.147,0.146 -0.231,2.261 -0.188,4.7 l 0.079,4.433 0.221,-4.4 0.221,-4.4 2.6,-0.231 2.6,-0.231 -2.633,-0.069 c -1.449,-0.038 -2.754,0.051 -2.9,0.198 m 26.02,0.018 2.488,0.153 0.132,4.481 0.131,4.481 -0.019,-4.6 -0.019,-4.6 -2.6,-0.034 -2.6,-0.033 2.487,0.152 m 46.356,0.348 c -0.134,0.348 -0.207,2.733 -0.162,5.3 l 0.081,4.667 0.219,-5 0.219,-5 2.6,-0.231 2.6,-0.231 -2.657,-0.069 c -2.098,-0.054 -2.709,0.064 -2.9,0.564 m 25.957,-0.277 2.4,0.244 0.23,4 0.23,4 -0.03,-4.2 -0.03,-4.2 -2.6,-0.044 -2.6,-0.043 2.4,0.243 m 46.6,-0.053 c 0,0.166 0.855,0.249 1.9,0.183 3.287,-0.207 3.598,-0.375 0.8,-0.432 -1.485,-0.029 -2.7,0.082 -2.7,0.249 m 25.9,-0.007 2.5,0.142 0.028,4.281 c 0.016,2.355 0.163,4.626 0.328,5.047 0.3,0.765 0.133,-8.321 -0.17,-9.266 -0.11,-0.341 -0.959,-0.476 -2.673,-0.423 l -2.513,0.077 2.5,0.142 m 46.715,0.204 c -0.306,0.958 -0.479,9.653 -0.176,8.88 0.167,-0.429 0.317,-2.617 0.333,-4.862 l 0.028,-4.081 2.7,-0.14 2.7,-0.14 -2.713,-0.079 c -1.876,-0.054 -2.761,0.076 -2.872,0.422 m -335.1,1.428 c -0.377,0.15 10.101,0.272 23.285,0.272 13.184,0 23.662,-0.122 23.285,-0.272 -0.377,-0.149 -10.855,-0.272 -23.285,-0.272 -12.43,0 -22.908,0.123 -23.285,0.272 m 47.718,0.572 c 0.092,0.055 0.707,0.55 1.367,1.1 l 1.2,1 -0.97,-1.1 c -0.533,-0.605 -1.148,-1.1 -1.366,-1.1 -0.219,0 -0.322,0.045 -0.231,0.1 m -51.478,2.112 c -0.365,0.557 -0.591,1.086 -0.502,1.175 0.089,0.089 0.465,-0.367 0.836,-1.013 0.825,-1.438 0.58,-1.557 -0.334,-0.162 m 77.457,4.588 c 0,0.33 0.175,0.87 0.388,1.2 0.345,0.533 0.388,0.533 0.388,0 0,-0.33 -0.175,-0.87 -0.388,-1.2 -0.345,-0.533 -0.388,-0.533 -0.388,0 M 11,226.4 c -0.15,0.473 -0.183,0.95 -0.073,1.06 0.11,0.11 0.323,-0.187 0.473,-0.66 0.15,-0.473 0.183,-0.95 0.073,-1.06 -0.11,-0.11 -0.323,0.187 -0.473,0.66 m 239.03,0 c -0.002,0.576 1.127,2.866 1.156,2.346 0.008,-0.14 -0.249,-0.86 -0.57,-1.6 -0.322,-0.74 -0.585,-1.076 -0.586,-0.746 m -72.418,0.2 c -0.019,1.12 2.911,4.21 3.466,3.656 0.124,-0.124 -0.222,-0.43 -0.77,-0.679 -0.547,-0.25 -1.376,-1.111 -1.842,-1.915 -0.466,-0.804 -0.851,-1.282 -0.854,-1.062 M 80.4,227.556 c 0,0.195 -0.765,0.74 -1.7,1.209 -0.935,0.47 -1.25,0.737 -0.7,0.592 1.614,-0.423 3.864,-2.157 2.8,-2.157 -0.22,0 -0.4,0.16 -0.4,0.356 m 139.199,0.944 c -0.589,0.804 -0.686,1.084 -0.254,0.733 0.656,-0.533 1.648,-2.033 1.344,-2.033 -0.076,0 -0.567,0.585 -1.09,1.3 m 144.271,0.397 c -0.842,0.86 -1.202,1.386 -0.8,1.17 0.875,-0.472 2.736,-2.408 2.498,-2.599 -0.092,-0.074 -0.857,0.569 -1.698,1.429 m -112.27,0.198 c 0,0.389 1.614,1.424 1.851,1.187 0.096,-0.096 -0.282,-0.472 -0.839,-0.837 -0.556,-0.365 -1.012,-0.523 -1.012,-0.35 m 72.909,0.505 c 0.56,0.44 1.169,0.796 1.354,0.791 0.437,-0.011 -1.55,-1.57 -2.017,-1.582 -0.195,-0.005 0.104,0.351 0.663,0.791 M 118.1,230.7 c 4.785,0.063 12.615,0.063 17.4,0 4.785,-0.064 0.87,-0.116 -8.7,-0.116 -9.57,0 -13.485,0.052 -8.7,0.116 m 72.827,0 c 4.8,0.064 12.54,0.063 17.2,-10e-4 4.66,-0.063 0.733,-0.116 -8.727,-0.116 -9.46,0 -13.273,0.053 -8.473,0.117 m 72.4,0 c 4.8,0.064 12.54,0.063 17.2,-10e-4 4.66,-0.063 0.733,-0.116 -8.727,-0.116 -9.46,0 -13.273,0.053 -8.473,0.117 m 72.4,0 c 4.8,0.064 12.54,0.063 17.2,-10e-4 4.66,-0.063 0.733,-0.116 -8.727,-0.116 -9.46,0 -13.273,0.053 -8.473,0.117 M 5.2,243.912 c 0,0.522 1.891,1.13 2.285,0.736 C 7.622,244.512 7.379,244.4 6.947,244.4 6.514,244.4 5.944,244.184 5.68,243.92 5.315,243.555 5.2,243.553 5.2,243.912 M 10.812,248 c 0,0.33 0.175,0.87 0.388,1.2 0.345,0.533 0.388,0.533 0.388,0 0,-0.33 -0.175,-0.87 -0.388,-1.2 -0.345,-0.533 -0.388,-0.533 -0.388,0 m 0.891,9.2 c 0.145,0.532 17.967,0.6 157.33,0.601 L 326.2,257.802 169.223,257.7 C 44.275,257.62 12.174,257.497 11.893,257.099 11.631,256.73 11.582,256.756 11.703,257.2 M 384.2,257.115 c -2.2,0.063 -11.02,0.259 -19.6,0.436 l -15.6,0.321 19.476,0.064 c 13.429,0.044 19.559,-0.068 19.74,-0.363 0.368,-0.594 0.436,-0.586 -4.016,-0.458 m -37.678,1.914 -1.122,1.029 1.3,-0.904 c 0.715,-0.497 1.3,-0.961 1.3,-1.029 0,-0.316 -0.442,-0.045 -1.478,0.904 m -17.24,1.344 c 0.498,0.865 0.973,1.505 1.057,1.421 0.173,-0.173 -1.508,-2.994 -1.784,-2.994 -0.098,0 0.229,0.708 0.727,1.573 m 15.09,2.627 c -1.12,4.837 2.46,7 11.586,7 h 5.666 l -0.112,5.1 -0.112,5.1 -161.5,0.1 -161.5,0.101 V 275 269.6 l 143.3,-0.002 c 92.568,-0.002 143.796,-0.142 144.7,-0.395 2.532,-0.711 4.442,-2.938 4.354,-5.077 -0.034,-0.811 -0.097,-0.902 -0.228,-0.326 -0.385,1.707 -1.393,3.393 -2.497,4.179 l -1.152,0.821 H 182.718 c -111.589,0 -144.266,0.108 -144.638,0.48 -0.666,0.666 -0.666,10.774 0,11.44 0.7,0.7 323.14,0.7 323.84,0 0.325,-0.325 0.48,-2.192 0.48,-5.786 0,-6.535 0.517,-6.134 -7.907,-6.134 h -6.36 l -1.54,-1.332 c -1.281,-1.107 -1.583,-1.664 -1.789,-3.3 -0.142,-1.13 -0.326,-1.628 -0.432,-1.168"
         id="path4"
         inkscape:connector-curvature="0"
         style="fill:#424960;fill-rule:evenodd;stroke:none">
        <title
           id="title815">Dark Grey</title>
      </path>
      <path
         d="m 69.014,137.6 c 0.271,1.445 1.741,3.992 2.306,3.997 0.177,0.002 -0.138,-0.599 -0.7,-1.335 -0.561,-0.736 -1.023,-1.681 -1.026,-2.1 -0.003,-0.419 -0.194,-1.032 -0.424,-1.362 -0.309,-0.443 -0.35,-0.233 -0.156,0.8 m -13.782,0.644 c -0.018,0.244 -0.477,1.099 -1.02,1.9 -0.543,0.801 -0.858,1.454 -0.7,1.451 0.495,-0.008 2.145,-2.831 1.943,-3.325 -0.128,-0.314 -0.202,-0.323 -0.223,-0.026 m -43.389,4.789 c -0.134,0.348 -0.243,19.311 -0.243,42.141 v 41.508 l -0.9,1.299 c -0.917,1.325 -1.877,1.972 -4.213,2.839 -1.746,0.649 -1.444,0.877 0.346,0.262 5.628,-1.935 5.164,2.213 5.166,-46.182 L 12,143.2 30.7,143.172 c 10.285,-0.016 19.06,-0.183 19.5,-0.372 0.462,-0.198 -7.426,-0.356 -18.657,-0.372 -17.39,-0.025 -19.483,0.039 -19.7,0.605 M 74.6,142.8 c 0.441,0.19 70.903,0.356 157.1,0.372 L 388,143.2 v 56.8 56.8 l -7.3,0.042 c -18.084,0.102 -32.665,0.562 -33.146,1.044 -0.381,0.381 -0.192,0.41 0.88,0.135 0.751,-0.192 9.916,-0.469 20.366,-0.615 10.45,-0.146 19.136,-0.397 19.301,-0.557 0.166,-0.161 0.256,-25.842 0.2,-57.07 L 388.2,143 378.4,142.755 C 363.017,142.37 73.7,142.413 74.6,142.8 m 24.276,26.34 c -0.508,0.143 12.002,0.26 27.8,0.26 H 155.4 l 1.4,0.933 1.4,0.933 -1.151,-0.989 c -0.634,-0.544 -1.804,-1.097 -2.6,-1.229 -1.957,-0.323 -54.405,-0.237 -55.573,0.092 m 72.05,0.095 c -1.276,0.375 -3.726,2.487 -3.726,3.213 0,0.212 0.675,-0.324 1.501,-1.192 2.062,-2.168 1.235,-2.117 32.099,-1.978 29.826,0.135 28.059,-0.022 29.872,2.65 1.123,1.654 1.123,40.49 0,42.144 -1.216,1.791 -2.518,2.368 -6.002,2.657 l -3.27,0.271 -0.029,4.4 -0.029,4.4 0.229,-4.2 0.229,-4.2 3.083,-0.28 c 3.353,-0.304 4.628,-0.911 6.027,-2.873 L 231.8,213 v -20 -20 l -0.89,-1.247 c -2.099,-2.943 0.071,-2.745 -30.91,-2.822 -16.293,-0.041 -28.327,0.085 -29.074,0.304 m 72.461,-0.01 c -4.325,1.258 -4.587,2.622 -4.585,23.852 0.003,23.032 0.375,24.112 8.298,24.121 l 2.1,0.002 0.028,4.1 c 0.016,2.255 0.173,4.46 0.349,4.9 0.296,0.738 0.129,-7.85 -0.172,-8.84 -0.073,-0.241 -1.523,-0.544 -3.223,-0.673 -6.84,-0.517 -6.912,-0.758 -6.951,-23.41 -0.034,-19.615 0.059,-20.571 2.2,-22.45 1.916,-1.683 1.934,-1.684 31.769,-1.549 30.114,0.136 28.257,-0.043 30.055,2.905 0.408,0.669 0.743,0.964 0.744,0.655 0.002,-0.918 -3.006,-3.499 -4.404,-3.779 -1.969,-0.394 -54.82,-0.238 -56.208,0.166 m 72.413,0.01 c -1.323,0.413 -2.094,0.965 -3,2.149 -0.33,0.431 0.183,0.161 1.141,-0.6 l 1.741,-1.384 27.659,-0.123 c 32.173,-0.143 31.984,-0.168 33.062,4.391 0.299,1.262 0.317,1.274 0.356,0.226 0.046,-1.229 -1.293,-3.517 -2.545,-4.352 -0.986,-0.656 -56.357,-0.947 -58.414,-0.307 m -220.053,1.793 c -0.741,0.786 -1.34,1.821 -1.331,2.3 0.012,0.705 0.124,0.622 0.581,-0.43 0.311,-0.716 1.051,-1.751 1.643,-2.3 0.592,-0.549 0.937,-0.998 0.766,-0.998 -0.172,0 -0.918,0.643 -1.659,1.428 M 42.7,170.3 c 6.435,0.062 16.965,0.062 23.4,0 6.435,-0.062 1.17,-0.113 -11.7,-0.113 -12.87,0 -18.135,0.051 -11.7,0.113 M 28.048,172 c -1.185,1.149 -1.638,1.908 -1.612,2.7 l 0.036,1.1 0.36,-1.242 c 0.392,-1.35 2.094,-3.261 3.368,-3.781 0.609,-0.248 0.644,-0.332 0.148,-0.352 -0.358,-0.014 -1.393,0.695 -2.3,1.575 m 49.985,-1.469 c 0.761,0.595 3.167,1.884 3.167,1.696 0,-0.301 -2.474,-1.823 -2.967,-1.826 -0.201,0 -0.291,0.058 -0.2,0.13 m 233.834,2.136 c -0.147,0.146 -0.249,0.821 -0.226,1.5 l 0.041,1.233 0.328,-1.397 c 0.343,-1.456 0.307,-1.787 -0.143,-1.336 M 159,193 c 0,10.848 0.132,19.516 0.294,19.262 0.162,-0.254 0.294,-8.922 0.294,-19.262 0,-10.34 -0.132,-19.008 -0.294,-19.262 C 159.132,173.484 159,182.152 159,193 m 7.65,-18.55 c -0.329,1.647 -0.246,36.28 0.09,37.474 0.143,0.508 0.26,-7.997 0.26,-18.9 0,-10.903 -0.022,-19.824 -0.05,-19.824 -0.027,0 -0.162,0.563 -0.3,1.25 M 82.004,175 c 0.223,3.314 -0.836,5.327 -3.384,6.437 -0.671,0.293 -0.971,0.539 -0.667,0.547 2.686,0.076 6.029,-6.163 4.242,-7.917 -0.149,-0.147 -0.235,0.273 -0.191,0.933 m 222.181,18 c 0,10.34 0.051,14.627 0.115,9.528 0.063,-5.1 0.063,-13.56 0,-18.8 -0.063,-5.241 -0.115,-1.068 -0.115,9.272 m -210.001,0 c 0,10.12 0.052,14.203 0.116,9.073 0.063,-5.131 0.063,-13.411 0,-18.4 -0.064,-4.99 -0.116,-0.793 -0.116,9.327 m -67.73,-15.6 c -0.028,1.16 0.714,2.6 1.339,2.6 0.168,0 0.08,-0.271 -0.195,-0.602 -0.275,-0.332 -0.639,-1.187 -0.808,-1.9 l -0.308,-1.298 -0.028,1.2 M 29,181.2 c 0.66,0.437 1.463,0.796 1.785,0.797 0.321,0.002 -0.122,-0.357 -0.985,-0.797 -1.999,-1.019 -2.339,-1.019 -0.8,0 m 13.9,1.1 c 6.325,0.062 16.675,0.062 23,0 6.325,-0.062 1.15,-0.113 -11.5,-0.113 -12.65,0 -17.825,0.051 -11.5,0.113 m -13.148,4.275 c -1.554,0.676 -3.358,2.982 -3.334,4.263 0.013,0.736 0.15,0.586 0.584,-0.638 0.657,-1.853 2.161,-3.199 4.179,-3.738 0.78,-0.209 1.059,-0.391 0.619,-0.405 -0.44,-0.014 -1.362,0.219 -2.048,0.518 m 47.983,-0.12 c 0.844,0.242 2.169,1.076 2.945,1.852 0.814,0.814 1.223,1.059 0.966,0.58 -0.645,-1.206 -2.574,-2.464 -4.112,-2.683 -1.237,-0.176 -1.222,-0.158 0.201,0.251 m 4.299,5.645 c -0.031,2.121 -0.156,2.422 -1.598,3.864 -2.109,2.109 -2.228,2.117 -28.295,1.964 l -21.66,-0.128 -1.64,-1.319 c -1.511,-1.214 -2.304,-1.456 -1.141,-0.347 2.263,2.157 1.131,2.056 24.5,2.194 26.263,0.155 26.128,0.165 28.392,-2.099 1.79,-1.79 2.36,-3.52 1.785,-5.413 -0.231,-0.763 -0.317,-0.443 -0.343,1.284 M 26.4,193.376 c 0,0.537 0.147,1.068 0.328,1.179 0.18,0.112 0.249,-0.328 0.154,-0.976 -0.21,-1.43 -0.482,-1.544 -0.482,-0.203 m 5.142,8.513 c -0.97,0.103 -1.975,0.628 -3,1.567 L 27,204.869 28.591,203.634 30.182,202.4 H 54.491 78.8 l 1.6,1.6 c 1.482,1.482 1.603,1.77 1.634,3.9 0.026,1.727 0.112,2.047 0.343,1.284 0.931,-3.065 -1.829,-6.836 -5.358,-7.319 -1.991,-0.273 -42.877,-0.251 -45.477,0.024 m -4.988,3.888 c -0.122,0.317 -0.151,0.902 -0.065,1.3 0.098,0.451 0.235,0.235 0.365,-0.577 0.217,-1.362 0.076,-1.704 -0.3,-0.723 m -0.094,3.432 c -0.091,1.534 2.005,3.802 4.209,4.553 2.752,0.937 44.712,0.962 47.361,0.027 1.849,-0.652 2.994,-1.512 3.653,-2.743 0.224,-0.42 -0.21,-0.146 -0.966,0.61 C 78.39,213.984 78.206,214 54.4,214 c -15.843,0 -22.144,-0.131 -23.325,-0.485 -1.969,-0.59 -4.159,-2.686 -4.387,-4.2 -0.161,-1.067 -0.171,-1.071 -0.228,-0.106 m 285.14,2.701 c 0,0.683 0.177,1.352 0.394,1.486 0.246,0.152 0.3,-0.251 0.143,-1.076 -0.337,-1.769 -0.537,-1.921 -0.537,-0.41 m 64.687,0.52 c -0.59,2.84 -3.245,4.37 -7.584,4.37 H 366.4 l 0.084,4.1 0.083,4.1 0.131,-3.9 0.131,-3.9 h 2.577 c 4.44,0 7.662,-2.262 7.31,-5.13 -0.121,-0.982 -0.156,-0.952 -0.429,0.36 m -281.871,0.108 c -0.021,0.955 1.394,2.935 2.512,3.519 0.684,0.356 0.63,0.227 -0.246,-0.599 -0.616,-0.58 -1.374,-1.64 -1.685,-2.356 -0.36,-0.828 -0.571,-1.033 -0.581,-0.564 m 208.993,1.032 c -0.564,1.779 -2.714,2.859 -6.278,3.154 L 293.8,217 l -0.2,5 c -0.217,5.42 -0.482,6.233 -2.499,7.672 l -1.301,0.928 -16.4,0.125 c -18.062,0.138 -20.072,0.027 -21.375,-1.188 -0.483,-0.449 -0.966,-0.729 -1.074,-0.621 -0.109,0.108 0.398,0.621 1.126,1.14 L 253.4,231 h 18.031 c 23.081,0 22.569,0.206 22.569,-9.097 v -4.589 l 3.214,-0.22 c 3.708,-0.254 7.924,-2.889 6.655,-4.158 -0.108,-0.108 -0.315,0.177 -0.46,0.634 M 157.2,214.934 c -0.981,1.117 -1.147,1.461 -0.557,1.147 0.79,-0.42 2.38,-2.435 2.089,-2.646 -0.073,-0.053 -0.762,0.621 -1.532,1.499 m 10,-1.447 c 0,0.442 2.987,3.292 3.501,3.341 4.915,0.469 6.499,0.537 6.499,0.283 0,-0.171 -0.945,-0.315 -2.1,-0.321 -3.484,-0.015 -5.163,-0.583 -6.6,-2.232 -0.715,-0.82 -1.3,-1.302 -1.3,-1.071 m 145.637,1.223 c 0.893,1.431 2.774,2.211 5.801,2.405 l 2.896,0.186 0.135,4.449 c 0.288,9.465 -0.273,9.22 21.415,9.37 18.816,0.13 19.658,0.052 21.535,-1.996 l 1.181,-1.288 -1.483,1.255 c -2.052,1.736 -2.598,1.777 -21.717,1.634 -21.017,-0.156 -20.264,0.18 -20.531,-9.17 l -0.133,-4.645 -3.208,-0.22 c -2.841,-0.195 -3.389,-0.366 -4.798,-1.498 -1.063,-0.854 -1.426,-1.014 -1.093,-0.482 M 98.8,216.808 c 0.55,0.172 2.035,0.33 3.3,0.352 l 2.3,0.04 v 4.351 c 0,5.097 0.506,6.679 2.664,8.325 L 108.538,231 H 126.769 145 l 1.301,-0.928 c 0.715,-0.51 1.501,-1.302 1.745,-1.759 0.253,-0.472 -0.174,-0.212 -0.987,0.602 -1.941,1.94 -2.089,1.952 -21.659,1.809 -21.106,-0.156 -20.6,0.068 -20.6,-9.121 0,-5.03 0.304,-4.656 -4,-4.922 -1.737,-0.108 -2.579,-0.054 -2,0.127 m 52.88,-0.111 c -1.497,0.084 -2.582,0.337 -2.673,0.623 -0.256,0.801 -0.474,9.881 -0.232,9.64 0.124,-0.124 0.315,-2.325 0.425,-4.893 l 0.2,-4.667 2.928,-0.261 c 1.611,-0.144 3.036,-0.369 3.167,-0.5 0.131,-0.132 -0.107,-0.204 -0.528,-0.162 -0.422,0.042 -1.901,0.141 -3.287,0.22 M 43.3,217.9 c 6.105,0.062 16.095,0.062 22.2,0 6.105,-0.062 1.11,-0.113 -11.1,-0.113 -12.21,0 -17.205,0.051 -11.1,0.113 m -14.111,0.784 c -1.283,0.886 -1.989,1.583 -1.989,1.962 0,0.167 0.495,-0.158 1.1,-0.721 0.605,-0.564 1.64,-1.213 2.3,-1.444 0.888,-0.309 0.989,-0.426 0.389,-0.449 -0.446,-0.018 -1.256,0.276 -1.8,0.652 M 77.8,218.4 c 1.101,0.473 1.492,0.473 1.2,0 -0.136,-0.22 -0.642,-0.387 -1.124,-0.372 -0.845,0.027 -0.847,0.041 -0.076,0.372 m 3.026,1.973 c 1.048,1.303 1.253,1.904 1.258,3.692 0.006,1.699 0.072,1.914 0.323,1.05 0.561,-1.929 -0.759,-5.504 -2.244,-6.074 -0.323,-0.124 -0.025,0.475 0.663,1.332 m -54.272,1.404 c -0.122,0.317 -0.151,0.902 -0.065,1.3 0.098,0.451 0.235,0.235 0.365,-0.577 0.217,-1.362 0.076,-1.704 -0.3,-0.723 m -0.1,3.385 c -0.073,1.297 1.744,3.595 3.386,4.28 1.09,0.456 5.653,0.558 24.888,0.558 h 23.554 l 1.318,-0.9 c 0.725,-0.495 1.601,-1.35 1.948,-1.9 0.484,-0.77 0.344,-0.703 -0.613,0.292 -2.046,2.129 -1.776,2.108 -26.601,2.108 -26.859,0 -26.815,0.007 -27.639,-4.405 l -0.186,-0.995 -0.055,0.962 m 339.375,1.067 c -0.148,0.586 -0.178,1.155 -0.068,1.265 0.11,0.11 0.32,-0.279 0.468,-0.865 0.147,-0.587 0.177,-1.156 0.067,-1.266 -0.11,-0.11 -0.32,0.279 -0.467,0.866 M 177.2,226.7 c 0,1.24 2.767,3.913 4.388,4.238 2.176,0.435 34.054,0.301 35.679,-0.15 1.447,-0.402 3.934,-2.744 3.932,-3.702 -0.001,-0.267 -0.336,0.062 -0.744,0.731 -1.758,2.883 -0.993,2.783 -21.255,2.783 -20.528,0 -19.552,0.144 -21.172,-3.128 -0.629,-1.272 -0.827,-1.457 -0.828,-0.772 M 8.678,245.182 c 2.243,1.368 2.698,2.511 2.948,7.397 l 0.226,4.421 0.072,-4.2 c 0.088,-5.063 -1.454,-8.359 -3.924,-8.39 -0.33,-0.004 -0.025,0.344 0.678,0.772 M 90.3,257.5 c 43.175,0.056 113.825,0.056 157,0 43.175,-0.056 7.85,-0.102 -78.5,-0.102 -86.35,0 -121.675,0.046 -78.5,0.102 m 236.1,0.361 c 5.745,1.892 1.408,7.045 -4.337,8.657 -0.904,0.253 -46.556,-1.466 -139.124,-1.464 L 35.922,265.882 38.4,275 l -3.949,8.172 165.656,0.433 164.804,1.345 1.764,-7.963 -2.367,-7.758 -6.931,-2.812 c -8.38,-0.17 -8.752,0.904 -8.909,-3.12 l -4.19,-0.297 -6.739,0.118 c -6.692,0.118 -6.739,0.112 -6.739,-0.753 0,-1.899 -2.632,-4.807 -4.286,-4.733 -0.544,0.024 -0.571,0.078 -0.114,0.229 m 18.987,1.92 c -0.583,0.765 -0.97,1.702 -0.866,2.1 0.17,0.657 0.19,0.653 0.233,-0.043 0.025,-0.419 0.505,-1.364 1.066,-2.1 0.562,-0.736 0.931,-1.338 0.821,-1.338 -0.11,0 -0.674,0.621 -1.254,1.381"
         id="path1"
         inkscape:connector-curvature="0"
         style="fill:#6c6c84;fill-rule:evenodd;stroke:none">
        <title
           id="title818">light grey</title>
      </path>
      <path
         style="fill:#e34b87;fill-rule:evenodd;stroke:none"
         d="m 38.48,119.68 c -0.682,0.682 -4.924,12.626 -4.24,13.191 0.281,0.232 6.994,1.325 10.592,1.401 7.728,0.164 7.928,-2.002 7.928,1.718 0,0.81 2.992,0.827 9.507,0.72 l 12.631,1.878 0.285,-1.991 c 0.359,-1.078 0.244,-0.405 1.149,-1.096 l 1.718,-0.809 139.119,-1.928 c 79.327,-0.123 145.128,1.162 145.183,1.12 0.055,-0.042 1.236,-5.033 1.236,-7.967 l 0.284,-10.448 -17.241,-0.264 c -25.586,-0.511 -309.042,0.822 -309.571,1.351"
         id="path2"
         inkscape:connector-curvature="0">
        <title
           id="title821">Red</title>
      </path>
      <path
         style="fill:#4398d1;fill-rule:evenodd;stroke:none"
         d="m 55.6,137.806 c 0,1.152 -3.493,1.351 -4.384,1.672 -3.91,1.41 -1.871,-0.572 -20.612,-0.566 l -20.275,0.842 0.522,45.275 c 0,36.2 -2.48,39.16 -3.002,40.168 -0.621,1.203 -1.689,0.381 -2.465,0.381 -0.244,0 0.977,2.507 0.417,2.762 L 5.2,231.728 v 5.856 5.855 l 0.665,3.64 c 4.399,1.486 3.211,0.925 3.211,6.898 l -0.209,5.202 160.737,0.312 c 152.598,0.099 155.028,0.543 156.087,1.261 1.332,0.904 -0.843,0.748 -0.843,1.919 0,0.853 6.023,0.547 12.652,0.439 l 6.7,-0.11 0.129,-1.129 c 0.392,-3.417 3.402,-4.671 11.221,-4.672 2.998,0 11.525,-0.119 18.95,-0.264 l 13.5,-0.264 v -56.736 l 0.94,-59.241 -156.871,-1.641 c -110.917,0 -152.461,0.471 -153.427,0.163 -3.363,-1.071 -4.382,1.614 -5.065,-0.812 L 68.769,136.8 H 62.185 55.6 l -3.655,1.006 m 103.199,35.792 c 2.924,2.085 0.204,-1.972 0.192,18.949 l 1.497,17.332 -1.603,1.109 c -1.197,2.342 -0.318,2.542 -3.898,2.862 l -4.401,0.806 -2.678,5.561 c -0.233,5.138 -1.006,4.2 -3.16,5.736 l -0.894,1.48 -14.39,-0.96 -15.899,-0.412 -1.474,1.62 c -2.152,-1.641 -1.43,-1.037 -1.43,-6.077 l -1.234,-5.396 -3.998,-2.658 c -3.348,-0.217 -1.215,0.675 -2.527,-1.165 l -0.794,-2.266 1.516,-15.742 c -0.15,-20.617 -0.741,-18.883 0.77,-20.673 2.08,-2.465 -2.96,-1.203 27.623,-1.105 l 24.706,0.242 0.43,-0.478 m 70.748,2.877 c -1.449,4.534 1.017,2.714 2.686,1.04 l -0.345,0.561 -0.823,17.531 v 16.022 l -1.439,-0.4 c -1.399,1.962 0.756,1.609 -2.597,1.913 l -3.769,1.789 -1.329,7.519 c -0.422,8.959 3.725,2.345 -17.468,2.501 -19.841,0.145 -13.076,3.442 -15.166,1.352 l -2.794,-1.285 -0.798,-4.015 -1.758,-5.66 -1.874,-1.061 c -8.938,-0.559 -6.394,3.801 -6.394,-19.773 0,-21.181 -0.844,-19.08 3.429,-20.335 2.764,-0.811 46.446,2.552 47.695,3.399 m 78.578,-1.283 c 2.579,1.968 -3.699,-3.397 -3.699,18.494 0,21.81 3.385,14.615 0.901,16.51 -1.14,0.869 2.311,-1.515 -0.342,-1.333 l -3.9,6.805 -3.018,3.08 c 0,9.303 7.096,6.353 -15.985,6.353 -22.565,0 -19.951,3.446 -20.242,-6.145 l -3.018,-5.186 -3.711,0.273 c -4.243,-0.005 -2.825,-1.179 -3.712,-4.45 -0.605,-2.23 -0.323,-32.584 0.283,-34.991 1.261,-5.006 -2.834,-3.832 29.617,-3.751 l 25.774,-0.205 0.64,1.939 m 73.815,2.211 c 2.652,1.768 1.542,-2.071 1.542,20.221 l -2.193,15.511 0.144,2.014 c -1.148,1.768 0.647,-0.635 -2.594,-0.635 l -3.794,2.61 -3.313,5.962 c -0.384,9.648 3.488,8.873 -20.362,8.694 -21.128,-0.157 -15.736,-4.432 -18.529,-8.644 l -0.135,-6.224 -3.418,-0.395 c -3.312,-0.212 3.208,-1.044 1.897,-3.044 l -7.786,0.098 0.418,-18.173 c 0,-22.809 -1.952,-19.581 2.32,-20.913 2.057,-0.64 54.608,-1.289 55.594,-0.633 m -295.333,2.946 c 4.321,1.962 3.545,2.81 -0.536,5.353 -1.605,1 -40.385,0.785 -43.838,-0.145 -5.706,-1.536 -5.391,-4.87 0.248,-5.965 3.37,-0.654 39.147,-1.867 40.696,-1.163 m 1.554,19.937 c 3.654,2.606 4.415,-1.393 0.538,1.372 l -0.735,1.739 -20.782,0.686 c -25.73,0 -30.117,0.907 -27.286,0.322 15.729,-3.25 2.17,-3.954 3.767,-6.047 1.949,-2.555 -2.979,-1.524 23.233,-1.426 l 21.056,1.736 2.678,-0.166 m -2.338,15.556 c 6.611,0.906 5.509,3.297 -0.817,5.452 -2.81,0.958 -39.704,1.229 -42.515,0.272 -6.068,-2.068 -4.358,-6.008 1.891,-6.655 2.692,-0.279 38.058,0.655 40.069,0.931 m 1.212,15.995 c 3.866,2.431 2.366,0.546 -1.493,3.146 l -1.611,2.41 -18.204,0.685 c -25.962,0 -21.487,1.43 -23.434,-1.123 -2.298,-3.013 0.438,-3.345 3.845,-4.087 0.44,-0.096 0.474,-1.488 0.914,-1.586 3.381,-0.754 36.049,0.542 37.377,1.378"
         id="path0"
         inkscape:connector-curvature="0">
        <title
           id="title824">türkis</title>
      </path>
      <path
         d="m 28.9,107.344 c -0.495,0.245 -0.9,0.583 -0.9,0.751 0,0.168 -0.248,0.305 -0.551,0.305 -1.627,0 -2.249,3.535 -2.249,12.774 V 130 H 14.4 c -6.933,0 -10.8,0.143 -10.8,0.4 0,0.22 -0.288,0.4 -0.64,0.4 -0.351,0 -1.161,0.559 -1.8,1.242 L 0,133.285 v 47.515 47.515 l 1.16,1.243 c 0.639,0.683 1.449,1.242 1.8,1.242 0.352,0 0.64,0.18 0.64,0.4 0,0.606 1.178,0.479 1.857,-0.2 0.33,-0.33 1.015,-0.6 1.521,-0.6 1.095,0 3.558,-2.186 4.056,-3.6 0.194,-0.55 0.445,-19.81 0.559,-42.8 l 0.207,-41.8 19.92,-0.104 c 22.224,-0.115 21.193,0.018 22.703,-2.941 1.427,-2.797 0.727,-5.478 -1.88,-7.196 -1,-0.659 -1.948,-0.754 -7.563,-0.756 -4.457,-0.002 -6.567,-0.15 -6.9,-0.483 -0.666,-0.666 -0.666,-10.774 0,-11.44 0.513,-0.513 294.392,-0.631 314.12,-0.126 l 9.6,0.246 v 5.6 5.6 l -9.6,0.246 c -5.28,0.135 -70.149,0.27 -144.153,0.3 -134.199,0.054 -134.556,0.056 -135.858,0.861 -3.411,2.108 -3.531,6.813 -0.234,9.161 l 1.167,0.831 157.539,0.1 157.539,0.101 v 57.8 57.8 l -19.944,0.104 c -19.265,0.1 -19.982,0.131 -21.075,0.91 -2.893,2.06 -3.257,6.077 -0.764,8.448 l 1.617,1.538 h 6.409 c 8.481,0 7.957,-0.404 7.957,6.134 0,3.594 -0.155,5.461 -0.48,5.786 -0.7,0.7 -323.14,0.7 -323.84,0 -0.666,-0.666 -0.666,-10.774 0,-11.44 0.372,-0.372 33.049,-0.48 144.638,-0.48 144.104,0 144.159,0 145.296,-0.81 2.944,-2.097 2.766,-9.19 -0.231,-9.19 -0.321,0 -0.583,-0.18 -0.583,-0.399 0,-0.266 -53.033,-0.434 -157.7,-0.5 L 11.8,257.8 11.551,253.6 C 11.182,247.387 10.753,245.009 8.085,244.278 6.92,243.959 6.662,244.163 5.2,243.757 4.584,243.586 4.379,243.629 3.8,243.6 3.542,243.587 3.276,244 2.937,244 2.598,244 1.799,244.559 1.16,245.242 L 0,246.485 v 10.115 10.115 l 1.16,1.243 c 0.639,0.683 1.449,1.242 1.8,1.242 0.352,0 0.64,0.18 0.64,0.4 0,0.257 3.867,0.4 10.8,0.4 h 10.8 v 8.826 c 0,9.239 0.622,12.774 2.249,12.774 0.303,0 0.552,0.135 0.554,0.3 0.014,1.301 -0.078,1.3 171.997,1.3 172.075,0 171.983,0.001 171.997,-1.3 0.002,-0.165 0.237,-0.3 0.523,-0.3 1.696,0 2.28,-3.233 2.28,-12.611 V 270 h 10.8 c 6.933,0 10.8,-0.143 10.8,-0.4 0,-0.22 0.288,-0.4 0.64,-0.4 0.351,0 1.161,-0.559 1.8,-1.242 L 400,266.715 V 200 133.285 l -1.16,-1.243 c -0.639,-0.683 -1.449,-1.242 -1.8,-1.242 -0.352,0 -0.64,-0.18 -0.64,-0.4 0,-0.257 -3.867,-0.4 -10.8,-0.4 h -10.8 v -8.989 c 0,-9.378 -0.584,-12.611 -2.28,-12.611 -0.286,0 -0.521,-0.135 -0.523,-0.3 -0.014,-1.302 0.116,-1.301 -172.177,-1.251 -124.083,0.036 -170.263,0.17 -170.92,0.495 m 68.675,62.953 c -2.851,1.733 -2.775,1.109 -2.775,22.908 v 19.616 l 1.789,1.79 1.79,1.789 h 3.21 3.211 l 0.006,4.1 c 0.015,10.101 -0.436,9.9 22.212,9.9 22.398,0 21.03,0.55 21.382,-8.6 l 0.2,-5.2 3.4,-0.2 c 2.551,-0.15 3.668,-0.4 4.475,-1 2.163,-1.609 2.125,-1.21 2.125,-22.4 0,-21.453 0.062,-20.857 -2.34,-22.503 l -1.31,-0.897 -28.175,0.037 c -24.771,0.032 -28.299,0.111 -29.2,0.66 m 72.077,0.374 c -2.465,1.942 -2.452,1.824 -2.452,22.329 0,23.249 -0.009,23.221 7.014,23.482 l 3.186,0.118 0.2,5 c 0.369,9.236 -0.721,8.8 22.032,8.8 H 217.6 l 1.6,-1.6 1.6,-1.6 v -4.767 c 0,-6.296 -0.152,-6.033 3.496,-6.033 3.285,0 5.04,-0.726 6.263,-2.593 0.972,-1.484 0.972,-40.13 0,-41.614 -1.786,-2.725 -0.186,-2.593 -31.406,-2.589 l -28.153,0.005 -1.348,1.062 m 72.528,-0.184 c -2.394,1.643 -2.352,1.297 -2.499,20.713 -0.187,24.859 -0.139,25.04 6.803,25.284 l 3.316,0.116 0.218,5 c 0.404,9.275 -0.774,8.8 21.839,8.8 h 17.867 l 1.343,-1.024 c 2.044,-1.559 2.533,-3.185 2.533,-8.425 V 216.4 h 3.053 c 7.066,0 6.947,0.399 6.947,-23.4 0,-21.455 0.045,-21.053 -2.519,-22.616 -2.075,-1.265 -57.048,-1.169 -58.901,0.103 m 72.579,0.028 c -2.615,1.761 -2.559,1.265 -2.559,22.485 0,23.572 -0.171,22.979 6.727,23.4 l 3.273,0.2 0.239,5.208 c 0.417,9.078 -0.815,8.592 21.794,8.592 22.355,0 21.276,0.435 21.723,-8.771 l 0.244,-5.029 3.186,-0.118 c 7.007,-0.261 7.014,-0.283 7.014,-23.482 0,-20.467 0.003,-20.442 -2.533,-22.376 l -1.343,-1.024 h -28.203 -28.203 l -1.359,0.915 m -283.583,0.348 c -4.785,1.279 -5.863,7.75 -1.664,9.997 1.488,0.796 48.289,0.796 49.777,0 4.312,-2.308 3.067,-8.77 -1.932,-10.029 -2.169,-0.546 -44.125,-0.517 -46.181,0.032 m 115.791,10.18 c 0.557,0.214 0.633,1.644 0.633,11.957 0,13.262 0.308,12.2 -3.533,12.201 -5.174,0.001 -6.615,1.828 -6.808,8.631 -0.171,6.018 1.085,5.429 -11.259,5.281 l -9.4,-0.113 -0.2,-5.073 c -0.277,-7.037 -1.682,-8.727 -7.251,-8.727 -3.385,0 -3.149,0.913 -3.149,-12.2 0,-6.014 0.109,-11.219 0.243,-11.567 0.248,-0.648 39.084,-1.019 40.724,-0.39 m 72.4,0 c 0.557,0.214 0.633,1.644 0.633,11.957 0,13.264 0.309,12.2 -3.539,12.2 -5.035,0 -6.557,1.998 -6.856,8.999 L 209.4,219 l -10.1,0.107 -10.1,0.107 -0.01,-3.707 c -0.021,-7.89 -1.395,-9.857 -7.19,-10.285 L 179,205 178.894,193.405 c -0.059,-6.377 -0.019,-11.822 0.087,-12.1 0.204,-0.532 39.027,-0.784 40.386,-0.262 M 292.2,193 v 12 l -3.208,0.239 c -5.611,0.418 -6.694,1.805 -6.992,8.961 l -0.2,4.8 h -10 -10 l -0.25,-4.6 c -0.39,-7.187 -1.505,-8.767 -6.426,-9.103 -4.716,-0.322 -4.324,0.786 -4.324,-12.231 0,-8.307 0.128,-11.434 0.484,-11.79 0.368,-0.368 5.309,-0.459 20.7,-0.38 L 292.2,181 v 12 m 72.4,0 v 12 l -3.222,0.24 c -5.608,0.417 -6.596,1.691 -6.946,8.96 l -0.232,4.8 -9.75,0.107 c -11.76,0.13 -10.85,0.579 -10.85,-5.362 0,-6.741 -1.047,-8.093 -6.592,-8.506 L 323.8,205 l -0.106,-12.104 -0.106,-12.103 20.506,0.103 L 364.6,181 v 12 M 29.12,187.632 c -3.228,2.409 -2.937,7.028 0.576,9.17 2.035,1.24 47.373,1.24 49.408,0 3.486,-2.125 3.767,-6.873 0.543,-9.169 -1.806,-1.286 -48.804,-1.287 -50.527,-0.001 m 0.888,15.469 c -3.885,1.951 -4.257,6.84 -0.714,9.367 L 30.6,213.4 h 23.8 23.8 l 1.345,-0.959 c 3.468,-2.473 3.069,-7.42 -0.753,-9.34 -2.135,-1.073 -46.649,-1.073 -48.784,0 m 0.232,15.89 c -1.589,0.566 -1.824,0.788 -2.855,2.689 -1.533,2.83 0.044,6.23 3.443,7.42 2.287,0.8 45.365,0.713 47.301,-0.096 5.071,-2.119 5.035,-8.777 -0.055,-10.19 -2.442,-0.678 -45.885,-0.517 -47.834,0.177"
         id="path3"
         inkscape:connector-curvature="0"
         style="fill:#040404;fill-rule:evenodd;stroke:none">
        <title
           id="title827">Black</title>
      </path>
    </g>
  </g>
</svg>
