<?xml version="1.0" encoding="utf-8"?>
<svg id="svg" version="1.1" width="400" height="400" viewBox="0, 0, 400,400" xmlns="http://www.w3.org/2000/svg">
  <g id="svgg">
    <path id="path1" d="M 33.785 14.1 C 33.681 14.375 33.641 86.15 33.698 173.6 L 33.8 332.6 L 41 332.812 C 50.499 333.091 52.259 333.942 53.593 338.9 L 54.104 340.8 L 63.081 340.8 C 70.327 340.8 72.167 340.69 72.629 340.229 C 73.1 339.757 73.2 337.387 73.2 326.629 L 73.2 313.6 L 65.678 313.6 L 58.157 313.6 L 56.349 312.454 C 52.129 309.777 51.943 303.982 55.985 301.1 L 57.528 300 L 64.731 300 C 74.125 300 73.2 300.721 73.2 293.4 C 73.2 286.086 74.094 286.8 64.941 286.8 C 57.616 286.8 57.043 286.689 55.111 284.887 C 52.567 282.515 52.385 278.759 54.666 275.705 C 56.29 273.531 56.772 273.416 65.2 273.2 L 73 273 L 73.11 266.7 L 73.22 260.4 L 65.822 260.4 C 55.938 260.4 53.129 258.86 53.051 253.4 C 52.977 248.156 55.476 246.63 64.368 246.488 C 68.236 246.426 71.805 246.287 72.3 246.18 L 73.2 245.985 L 73.2 141.35 L 73.2 36.714 L 74.407 34.185 C 75.165 32.596 76.31 31.043 77.483 30.01 C 79.217 28.484 79.904 28.086 82.919 26.856 C 83.741 26.521 101.606 26.4 150.312 26.4 L 216.587 26.4 L 212.194 22.001 C 206.994 16.796 204.513 14.97 201.571 14.187 C 198.554 13.384 34.089 13.299 33.785 14.1 M 87.2 200 L 87.2 359.2 L 106.8 359.2 L 126.4 359.2 L 126.4 350 L 126.4 340.8 L 119.775 340.8 C 111.208 340.8 106.8 339.249 106.8 336.234 C 106.8 335.911 106.62 335.536 106.4 335.4 C 105.879 335.078 105.879 331.722 106.4 331.4 C 106.62 331.264 106.8 330.889 106.8 330.566 C 106.8 329.803 109.169 327.2 109.864 327.2 C 110.159 327.2 110.4 327.02 110.4 326.8 C 110.4 326.547 113.333 326.4 118.4 326.4 L 126.4 326.4 L 126.4 320.2 L 126.4 314 L 120.859 314 C 111.888 314 110.627 313.776 108.555 311.819 C 107.59 310.907 106.8 309.865 106.8 309.504 C 106.8 309.143 106.62 308.736 106.4 308.6 C 106.18 308.464 106 307.564 106 306.6 C 106 305.636 106.18 304.736 106.4 304.6 C 106.62 304.464 106.8 304.075 106.8 303.736 C 106.8 303.04 108.949 300.769 110.274 300.065 C 110.849 299.759 113.751 299.6 118.774 299.6 L 126.4 299.6 L 126.4 293.4 L 126.4 287.2 L 118.795 287.2 C 110.865 287.2 110.402 287.116 108.53 285.326 C 106.458 283.345 105.151 278.972 106.4 278.2 C 106.62 278.064 106.8 277.603 106.8 277.176 C 106.8 276.749 106.937 276.4 107.105 276.4 C 107.273 276.4 107.588 276.01 107.805 275.533 C 108.022 275.056 108.56 274.471 109 274.233 C 109.44 273.995 109.89 273.688 110 273.552 C 110.42 273.03 113.632 272.7 119.9 272.534 L 126.4 272.363 L 132.684 165.953 C 132.684 96.232 133.961 67.542 134.227 67.542 C 134.447 67.542 140.339 63.785 140.339 63.383 C 140.339 61.026 134.968 57.887 138.742 56.516 C 139.317 56.307 163.815 55.779 201.837 55.661 L 271.358 54.314 L 267.51 45.501 C 264.765 42.696 259.963 39.258 259.631 39.258 C 259.3 39.258 257.6 37.694 257.6 37.527 C 257.6 36.273 255.608 36.801 171.663 36.801 L 83.201 39.086 L 87.2 200 M 140.4 226.799 L 140.4 386.4 L 253.401 386.4 L 366.401 386.4 L 366.301 256.7 L 366.2 127 L 341.2 126.776 C 317.595 126.565 314 126.404 314 125.553 C 314 125.359 313.718 125.2 313.374 125.2 C 312.496 125.2 308.799 121.358 307.6 119.2 L 306.6 117.4 L 306.4 92.4 L 306.2 67.4 L 223.3 67.299 L 140.4 67.198 L 140.4 226.799 M 320.8 95.4 L 320.8 112.8 L 338.29 112.8 L 355.779 112.8 L 338.395 95.4 C 328.834 85.83 320.964 78 320.906 78 C 320.848 78 320.8 85.83 320.8 95.4 M 207.277 99.787 C 203.749 99.372 199.029 103.337 206.775 98.031 C 209.331 96.28 208.287 97.838 208.287 107.184 L 206.515 115.681 L 208.547 118.334 C 206.988 121.599 205.144 123.102 203.281 123.102 C 202.948 123.102 204.336 126.18 204.2 126.4 C 204.041 126.656 197.866 122.292 186.988 122.292 L 173.083 124.224 L 170.708 122.245 C 167.883 120.953 166.33 119.4 165.038 116.575 C 163.866 114.014 167.386 99.451 168.446 96.996 C 170.16 93.022 167.832 94.542 171.668 93.028 C 173.387 92.35 171.054 91.88 186.162 91.961 L 202.143 93.306 L 200.99 94.338 M 206.6 149.8 L 207.697 147.567 C 209.473 143.949 212.689 150.451 217.446 148.446 C 218.896 147.834 243.55 145.73 245.438 146.339 M 296.6 193.357 C 301.325 194.558 305.468 198.705 306.637 203.4 C 307.092 205.231 307.282 221.218 306.862 222.379 C 306.659 222.94 306.263 224.165 305.982 225.1 C 305.702 226.035 305.321 226.8 305.136 226.8 C 304.951 226.8 304.8 227.033 304.8 227.317 C 304.8 228.087 301.679 230.938 299.4 232.249 L 297.4 233.4 L 280 233.4 L 262.6 233.4 L 260.4 232.126 C 254.278 228.579 252.797 224.866 252.805 213.08 C 252.81 205.681 253.131 203.353 254.562 200.336 C 255.338 198.701 258.686 195.2 259.474 195.2 C 259.763 195.2 260 195.049 260 194.864 C 260 194.679 260.765 194.297 261.7 194.015 C 262.635 193.734 263.85 193.357 264.4 193.178 C 265.642 192.775 294.952 192.937 296.6 193.357 M 346.298 247.948 C 349.125 249.467 349.279 253.663 350.873 256.686 L 351.401 259.056 L 350.544 268.314 C 350.544 281.579 342.269 278.105 335.712 281.094 L 338.362 282.515 L 326.334 281.658 L 314.879 282.23 L 309.546 282.118 C 302.974 279.212 300.009 279.86 300.004 266.658 C 299.999 254.892 304.453 257.015 308.011 253.317 C 311.787 249.394 307.844 249.053 327.8 249.122 L 342.943 248.32 L 345.727 250.233 M 177.219 300.901 C 181.518 303.798 181.172 310.154 176.568 312.856 C 174.932 313.816 165.53 313.903 163.67 312.975 C 158.755 310.523 158.601 303.27 163.405 300.485 C 165.032 299.542 175.678 299.862 177.219 300.901 M 344.12 301.1 C 348.113 304.131 347.948 309.546 343.776 312.416 L 342.056 313.6 L 270.128 313.599 L 198.2 313.597 L 196.8 312.744 C 192.078 309.867 191.684 304.582 195.931 301.093 L 197.261 300 L 269.966 300 L 342.671 300 L 344.12 301.1 M 176.568 327.144 C 181.123 329.818 181.497 336.216 177.264 339.068 C 175.084 340.538 165.963 340.865 163.527 339.561 C 158.585 336.916 158.685 329.75 163.703 326.975 C 165.185 326.155 175.105 326.285 176.568 327.144 M 343.088 327.243 C 345.247 328.446 345.438 328.642 346.366 330.616 C 347.85 333.775 346.894 337.014 343.872 339.065 L 342.2 340.2 L 272.2 340.321 C 233.7 340.388 201.085 340.33 199.723 340.192 C 195.08 339.722 191.972 335.561 193.309 331.605 C 193.984 329.608 195.921 327.221 196.876 327.209 C 197.248 327.204 197.664 327.02 197.8 326.8 C 197.963 326.536 222.4 326.4 269.811 326.4 L 341.576 326.4 L 343.088 327.243 M 176.494 353.797 C 181.757 356.422 181.154 365.144 175.6 366.717 C 172.904 367.48 164.587 367.032 163.148 366.045 C 158.237 362.68 159.073 355.386 164.6 353.375 C 166.939 352.524 174.477 352.792 176.494 353.797 M 342.117 353.434 C 349.462 355.936 348.109 366.2 340.33 366.986 C 333.578 367.668 198.239 367.021 196.921 366.3 C 194.417 364.931 192.121 360.379 193.125 358.772 C 193.386 358.353 193.6 357.768 193.6 357.472 C 193.6 356.486 196.178 354.002 197.8 353.425 C 200.36 352.515 339.444 352.523 342.117 353.434" stroke="none" fill="#d6d7df" fill-rule="evenodd"/>
    <path id="path2" d="M 173.6 106.595 C 170.162 106.595 172.544 113.2 173.314 113.2 C 173.309 113.227 186.102 119.027 186.81 115.485 L 200.02 114.914 L 202.481 107.271 L 200.943 97.629 L 188.985 97.239 L 173.029 97.704 L 171.886 107.452 M 217.258 160.291 L 218.972 167.839 L 233.5 172.589 L 248.028 167.057 L 249.286 162.799 C 258.695 162.704 251.636 155.581 251.464 155.071 L 248.099 151.601 L 235.677 150.172 L 231.482 148.744 L 219.257 151.029 L 217.258 159.719 M 265.301 206.776 C 264.472 207.115 265.169 220.293 266.005 220.614 C 266.353 220.748 271.056 223.428 277.854 223.428 L 291.928 223.428 L 296.72 221.385 C 296.843 220.89 295.749 215.68 295.686 212.6 L 294.999 204.715 L 280.971 205.215 C 274.041 205.175 263.29 204.093 263.015 204.206 M 313.6 266.805 L 310.458 274.068 L 325.557 275.961 L 339.8 276.428 L 346.194 268.128 L 341.163 258.686 L 326.524 256.401 L 311.886 256.972 L 310.172 267.091" stroke="none" fill="#47a1df" fill-rule="evenodd"/>
    <path id="path0" d="M27.646 0.287 C 27.121 0.387,26.322 0.814,25.870 1.235 C 25.419 1.656,24.882 2.000,24.679 2.000 C 24.137 2.000,21.600 4.866,21.600 5.478 C 21.600 5.765,21.420 6.000,21.200 6.000 C 20.980 6.000,20.800 6.360,20.800 6.800 C 20.800 7.240,20.620 7.600,20.400 7.600 C 20.180 7.600,20.000 8.140,20.000 8.800 C 20.000 9.460,19.820 10.000,19.600 10.000 C 19.334 10.000,19.200 64.733,19.200 173.400 C 19.200 282.067,19.334 336.800,19.600 336.800 C 19.820 336.800,20.000 337.252,20.000 337.805 C 20.000 339.461,25.011 345.600,26.363 345.600 C 26.603 345.600,26.800 345.780,26.800 346.000 C 26.800 346.220,27.239 346.400,27.776 346.400 C 28.313 346.400,28.864 346.580,29.000 346.800 C 29.385 347.423,48.984 347.330,50.080 346.700 C 51.631 345.808,53.600 343.647,53.600 342.837 C 53.600 342.403,53.783 341.934,54.007 341.796 C 54.256 341.642,54.101 341.147,53.607 340.518 C 53.163 339.954,52.800 339.167,52.800 338.769 C 52.800 334.949,49.596 333.600,40.520 333.600 C 33.364 333.600,33.291 333.591,33.052 332.700 C 32.737 331.523,32.737 15.277,33.052 14.100 L 33.293 13.200 117.228 13.200 C 179.158 13.200,201.456 13.320,202.281 13.656 C 202.897 13.907,204.030 14.385,204.800 14.719 C 206.383 15.404,217.290 25.931,216.964 26.458 C 216.848 26.646,187.413 26.800,151.554 26.800 C 106.079 26.800,85.786 26.931,84.477 27.234 C 79.640 28.353,76.102 31.283,74.524 35.477 C 73.834 37.309,73.791 42.334,73.600 142.200 L 73.400 247.000 65.528 247.200 C 55.618 247.452,53.886 248.372,53.886 253.388 C 53.886 258.490,56.778 259.956,66.900 259.982 L 73.600 260.000 73.600 266.800 L 73.600 273.600 66.219 273.600 C 55.604 273.600,53.530 274.888,53.984 281.198 C 54.275 285.244,56.335 286.151,65.800 286.400 L 73.400 286.600 73.510 293.170 C 73.643 301.096,74.413 300.386,65.687 300.394 C 56.189 300.402,53.960 301.561,53.915 306.510 C 53.867 311.939,56.230 313.200,66.449 313.200 L 73.600 313.200 73.600 326.571 C 73.600 337.924,73.509 340.033,73.000 340.543 C 72.275 341.268,72.082 362.000,72.800 362.000 C 73.020 362.000,73.200 362.720,73.200 363.600 C 73.200 364.480,73.380 365.200,73.600 365.200 C 73.820 365.200,74.000 365.560,74.000 366.000 C 74.000 366.440,74.180 366.800,74.400 366.800 C 74.620 366.800,74.801 367.115,74.802 367.500 C 74.806 368.666,78.215 371.892,80.595 372.980 L 82.824 374.000 104.412 374.000 L 126.000 374.000 126.000 382.006 C 126.000 389.570,126.421 393.200,127.297 393.200 C 127.464 393.200,127.600 393.446,127.600 393.746 C 127.600 394.503,131.794 398.800,132.532 398.800 C 132.863 398.800,133.208 399.025,133.300 399.300 C 133.545 400.036,373.255 400.036,373.500 399.300 C 373.592 399.025,373.922 398.800,374.233 398.800 C 374.545 398.800,374.800 398.620,374.800 398.400 C 374.800 398.180,374.988 398.000,375.218 398.000 C 375.793 398.000,377.281 396.431,377.968 395.100 C 378.280 394.495,378.685 394.000,378.868 394.000 C 379.050 394.000,379.200 393.640,379.200 393.200 C 379.200 392.760,379.380 392.400,379.600 392.400 C 379.820 392.400,380.000 391.860,380.000 391.200 C 380.000 390.540,380.180 390.000,380.400 390.000 C 380.666 390.000,380.800 345.400,380.800 257.000 C 380.800 168.600,380.666 124.000,380.400 124.000 C 380.180 124.000,380.000 123.100,380.000 122.000 C 380.000 120.900,379.820 120.000,379.600 120.000 C 379.380 120.000,379.200 119.460,379.200 118.800 C 379.200 118.140,379.020 117.600,378.800 117.600 C 378.580 117.600,378.400 117.240,378.400 116.800 C 378.400 116.360,378.220 116.000,378.000 116.000 C 377.780 116.000,377.600 115.640,377.600 115.200 C 377.600 114.760,377.420 114.400,377.200 114.400 C 376.980 114.400,376.800 114.130,376.800 113.800 C 376.800 113.470,376.620 113.200,376.400 113.200 C 376.180 113.200,376.000 113.007,376.000 112.771 C 376.000 112.536,375.775 112.111,375.500 111.827 C 375.225 111.543,374.460 110.619,373.800 109.773 C 372.114 107.612,325.205 60.743,323.334 59.351 C 322.491 58.723,321.509 57.892,321.153 57.504 C 320.797 57.117,320.212 56.800,319.853 56.800 C 319.494 56.800,319.200 56.620,319.200 56.400 C 319.200 56.180,318.840 56.000,318.400 56.000 C 317.960 56.000,317.600 55.820,317.600 55.600 C 317.600 55.380,317.240 55.200,316.800 55.200 C 316.360 55.200,316.000 55.020,316.000 54.800 C 316.000 54.580,315.460 54.400,314.800 54.400 C 314.140 54.400,313.600 54.220,313.600 54.000 C 313.600 53.780,313.060 53.600,312.400 53.600 C 311.740 53.600,311.200 53.420,311.200 53.200 C 311.200 52.944,307.487 52.800,300.860 52.800 L 290.520 52.800 280.653 43.000 C 275.226 37.610,270.699 33.200,270.593 33.200 C 270.487 33.200,269.659 32.480,268.752 31.600 C 267.845 30.720,266.855 30.000,266.552 30.000 C 266.248 30.000,266.000 29.820,266.000 29.600 C 266.000 29.380,265.640 29.200,265.200 29.200 C 264.760 29.200,264.400 29.020,264.400 28.800 C 264.400 28.580,264.040 28.400,263.600 28.400 C 263.160 28.400,262.800 28.220,262.800 28.000 C 262.800 27.780,262.260 27.600,261.600 27.600 C 260.940 27.600,260.400 27.440,260.400 27.244 C 260.400 26.549,257.275 26.291,246.954 26.134 L 236.509 25.975 227.917 17.287 C 218.211 7.474,214.081 3.600,213.321 3.600 C 213.034 3.600,212.800 3.420,212.800 3.200 C 212.800 2.980,212.440 2.800,212.000 2.800 C 211.560 2.800,211.200 2.620,211.200 2.400 C 211.200 2.180,210.840 2.000,210.400 2.000 C 209.960 2.000,209.600 1.820,209.600 1.600 C 209.600 1.380,209.276 1.200,208.880 1.200 C 208.484 1.200,207.935 0.975,207.660 0.700 C 207.171 0.211,30.159 -0.195,27.646 0.287 M255.634 40.437 C 259.289 41.629,271.239 52.121,270.164 53.196 C 269.914 53.446,245.824 53.625,203.187 53.693 L 136.600 53.800 134.746 54.723 C 132.140 56.019,129.719 58.198,128.725 60.143 C 126.715 64.075,126.810 58.653,126.805 169.700 L 126.800 273.600 119.419 273.600 C 109.356 273.600,107.198 274.747,107.201 280.095 C 107.205 285.185,108.986 286.136,119.000 286.400 L 126.600 286.600 126.710 293.300 L 126.819 300.000 120.282 300.000 C 110.000 300.000,107.200 301.391,107.200 306.497 C 107.200 311.946,109.519 313.200,119.596 313.200 L 126.800 313.200 126.800 319.976 L 126.800 326.752 119.300 326.876 C 113.108 326.978,111.556 327.123,110.400 327.704 C 106.209 329.813,106.038 336.563,110.116 338.895 C 110.707 339.232,113.587 339.466,118.800 339.600 L 126.600 339.800 126.600 350.000 L 126.600 360.200 106.600 360.200 L 86.600 360.200 86.491 200.800 C 86.431 113.130,86.479 40.995,86.599 40.500 L 86.815 39.600 169.942 39.600 L 253.068 39.600 255.634 40.437 M306.720 66.880 C 307.083 67.243,307.200 73.340,307.200 91.869 L 307.200 116.377 308.145 118.514 C 309.629 121.869,313.729 125.600,315.932 125.600 C 316.321 125.600,316.819 125.779,317.037 125.997 C 317.289 126.249,326.423 126.432,341.992 126.497 L 366.549 126.600 366.875 127.858 C 367.055 128.550,367.156 187.050,367.101 257.858 L 367.000 386.600 253.400 386.600 L 139.800 386.600 139.698 227.000 C 139.641 139.220,139.681 67.175,139.785 66.900 C 140.057 66.183,306.003 66.163,306.720 66.880 M338.917 94.717 C 348.990 104.792,357.105 113.162,356.949 113.317 C 356.605 113.661,321.125 113.700,320.233 113.357 C 319.669 113.141,319.600 111.151,319.600 95.024 C 319.600 78.375,319.681 76.400,320.368 76.400 C 320.498 76.400,328.845 84.643,338.917 94.717 M171.800 86.992 C 171.580 87.063,170.410 87.426,169.200 87.799 C 165.468 88.948,162.599 91.771,161.158 95.715 C 160.211 98.305,160.030 114.748,160.921 117.200 C 162.486 121.509,165.044 124.081,169.315 125.642 C 171.807 126.553,201.323 126.818,203.481 125.949 C 208.788 123.812,211.448 121.003,212.756 116.154 C 213.356 113.928,213.343 99.098,212.739 97.228 C 210.982 91.790,207.787 88.659,202.554 87.245 C 201.081 86.847,172.967 86.616,171.800 86.992 M231.308 87.365 C 228.244 88.480,226.306 92.029,227.247 94.800 C 228.516 98.536,230.441 99.649,236.200 99.974 L 240.200 100.200 240.318 102.892 C 240.449 105.875,239.976 107.200,238.780 107.200 C 236.594 107.200,233.600 110.726,233.600 113.300 C 233.600 117.029,243.031 126.400,246.783 126.400 C 249.849 126.400,258.823 118.218,259.381 114.914 C 259.997 111.267,257.594 107.200,254.824 107.200 C 253.159 107.200,253.024 106.798,252.800 101.200 C 252.474 93.053,249.609 89.151,242.554 87.245 C 240.439 86.674,232.990 86.754,231.308 87.365 M200.000 106.605 L 200.000 113.211 186.700 113.105 L 173.400 113.000 173.289 107.018 C 173.228 103.727,173.267 100.802,173.376 100.518 C 173.533 100.109,176.347 100.000,186.787 100.000 L 200.000 100.000 200.000 106.605 M217.000 140.679 C 216.340 140.779,215.629 141.028,215.420 141.231 C 215.211 141.434,214.716 141.600,214.320 141.600 C 213.924 141.600,213.600 141.780,213.600 142.000 C 213.600 142.220,213.415 142.400,213.189 142.400 C 211.938 142.400,208.679 146.442,207.706 149.200 C 207.123 150.853,206.990 169.597,207.553 170.705 C 207.748 171.087,208.153 171.940,208.453 172.600 C 209.181 174.197,211.423 176.624,213.180 177.717 C 216.119 179.545,216.583 179.588,233.525 179.594 L 249.650 179.600 252.233 178.354 C 258.115 175.518,260.000 171.120,260.000 160.236 C 260.000 149.116,258.269 144.876,252.391 141.602 L 250.600 140.604 234.400 140.550 C 225.490 140.520,217.660 140.578,217.000 140.679 M278.200 140.663 C 274.527 141.665,272.627 146.101,274.426 149.473 C 275.835 152.112,277.278 152.799,281.425 152.805 C 287.011 152.814,286.800 152.655,286.800 156.847 C 286.800 160.197,286.752 160.400,285.954 160.400 C 283.561 160.400,280.400 163.745,280.400 166.276 C 280.400 168.878,280.988 169.849,285.138 174.104 C 292.492 181.646,294.292 181.663,301.498 174.266 C 305.808 169.842,306.737 168.095,306.181 165.467 C 305.653 162.975,302.928 160.400,300.820 160.400 C 300.058 160.400,300.000 160.161,300.000 157.020 C 300.000 149.207,297.634 144.418,292.400 141.636 C 290.607 140.682,280.635 140.000,278.200 140.663 M246.710 159.900 L 246.600 166.600 233.400 166.600 L 220.200 166.600 220.089 160.417 C 220.028 157.016,220.068 154.001,220.177 153.717 C 220.333 153.309,223.159 153.200,233.597 153.200 L 246.819 153.200 246.710 159.900 M264.400 193.953 C 260.431 194.559,256.909 197.299,254.782 201.436 C 253.303 204.312,253.260 222.301,254.725 225.254 C 256.145 228.117,258.138 230.174,260.820 231.547 L 263.269 232.800 279.971 232.800 L 296.672 232.800 299.128 231.573 C 305.208 228.535,306.200 225.985,306.200 213.400 L 306.200 203.400 305.052 201.134 C 303.639 198.346,301.683 196.404,298.800 194.927 L 296.600 193.800 281.400 193.739 C 273.040 193.705,265.390 193.802,264.400 193.953 M325.400 193.865 C 320.106 194.754,318.647 201.707,323.050 205.065 C 324.380 206.079,324.875 206.190,328.951 206.386 L 333.400 206.600 333.400 209.948 L 333.400 213.296 331.679 213.969 C 325.406 216.422,325.373 220.916,331.582 227.176 C 339.289 234.946,340.606 235.000,347.928 227.844 C 352.287 223.584,352.800 222.752,352.800 219.945 C 352.800 216.715,351.502 215.160,347.556 213.659 C 346.538 213.272,346.521 213.194,346.295 208.133 C 345.797 196.927,338.173 191.721,325.400 193.865 M293.120 206.880 C 293.451 207.211,293.600 209.236,293.600 213.400 C 293.600 217.564,293.451 219.589,293.120 219.920 C 292.494 220.546,268.336 220.608,267.174 219.986 C 266.231 219.481,265.969 207.791,266.880 206.880 C 267.233 206.527,270.702 206.400,280.000 206.400 C 289.298 206.400,292.767 206.527,293.120 206.880 M307.746 248.404 C 301.526 251.438,300.600 253.822,300.600 266.800 L 300.600 277.000 301.660 279.000 C 303.094 281.705,305.352 283.897,308.000 285.155 L 310.200 286.200 325.737 286.318 C 346.407 286.474,348.768 285.740,352.025 278.141 C 353.341 275.072,353.046 257.105,351.632 254.234 C 348.452 247.772,347.200 247.420,327.000 247.303 L 310.200 247.207 307.746 248.404 M339.910 266.700 L 339.800 273.400 326.600 273.400 L 313.400 273.400 313.290 266.700 L 313.181 260.000 326.600 260.000 L 340.019 260.000 339.910 266.700 M163.769 301.187 C 158.729 303.746,159.386 310.343,164.919 312.720 C 166.283 313.305,174.646 313.372,175.000 312.800 C 175.136 312.580,175.563 312.400,175.949 312.400 C 176.702 312.400,178.418 310.753,179.151 309.326 C 180.379 306.936,179.316 303.272,176.850 301.398 C 175.212 300.153,166.096 300.007,163.769 301.187 M197.352 300.975 C 192.366 303.145,192.740 310.455,197.949 312.635 C 199.829 313.423,339.714 313.488,341.972 312.703 C 347.278 310.857,347.667 303.091,342.560 300.958 C 340.594 300.136,199.240 300.153,197.352 300.975 M165.000 327.289 C 159.551 329.221,158.723 336.011,163.602 338.753 C 165.400 339.763,173.859 340.003,175.881 339.101 C 181.410 336.634,180.762 329.270,174.840 327.261 C 173.163 326.692,166.631 326.710,165.000 327.289 M198.126 327.330 C 192.849 329.276,192.280 336.456,197.201 339.000 C 198.900 339.879,341.040 339.914,342.720 339.036 C 345.458 337.605,346.295 335.783,346.070 331.740 C 345.980 330.115,343.818 327.912,341.687 327.273 C 339.420 326.594,199.973 326.650,198.126 327.330 M165.400 353.870 C 160.628 354.652,158.849 360.421,162.179 364.310 C 165.222 367.864,176.171 367.253,178.700 363.387 C 182.751 357.195,175.736 352.176,165.400 353.870 M198.473 353.888 C 193.002 354.575,192.243 363.620,197.473 365.805 C 199.704 366.737,340.871 366.702,342.742 365.769 C 347.051 363.619,347.439 357.537,343.447 354.690 L 342.200 353.800 271.000 353.761 C 231.840 353.739,199.203 353.797,198.473 353.888 " stroke="none" fill="#353535" fill-rule="evenodd"/>
  </g>
</svg>