<?xml version="1.0" encoding="utf-8"?>
<svg id="svg" version="1.1" width="400" height="400" viewBox="0, 0, 400,400" xmlns="http://www.w3.org/2000/svg">
  <g id="svgg">
    <path id="path0" d="M 187.1 75.073 C 186.436 75.249 186.4 79.823 186.4 164.029 C 186.4 252.533 186.398 252.8 185.6 252.8 C 185.16 252.8 184.8 252.62 184.8 252.4 C 184.8 252.18 184.44 252 184 252 C 183.56 252 183.2 251.82 183.2 251.6 C 183.2 251.38 182.84 251.2 182.4 251.2 C 181.96 251.2 181.6 251.02 181.6 250.8 C 181.6 250.58 181.24 250.4 180.8 250.4 C 180.36 250.4 180 250.22 180 250 C 180 249.78 179.64 249.6 179.2 249.6 C 178.76 249.6 178.4 249.42 178.4 249.2 C 178.4 248.98 178.04 248.8 177.6 248.8 C 177.16 248.8 176.8 248.62 176.8 248.4 C 176.8 248.18 176.455 248 176.033 248 C 175.612 248 175.207 247.859 175.133 247.687 C 174.999 247.371 165.483 242.549 165.303 242.705 C 165.25 242.752 164.569 242.432 163.791 241.995 C 163.012 241.558 162.111 241.2 161.788 241.2 C 161.465 241.2 161.2 241.02 161.2 240.8 C 161.2 240.58 160.84 240.4 160.4 240.4 C 159.96 240.4 159.6 240.22 159.6 240 C 159.6 239.78 159.33 239.6 159 239.6 C 158.67 239.6 158.4 239.42 158.4 239.2 C 158.4 238.98 158.04 238.8 157.6 238.8 C 157.16 238.8 156.8 238.62 156.8 238.4 C 156.8 238.18 156.44 238 156 238 C 155.56 238 155.2 237.82 155.2 237.6 C 155.2 237.38 154.84 237.2 154.4 237.2 C 153.96 237.2 153.6 237.02 153.6 236.8 C 153.6 236.58 153.24 236.4 152.8 236.4 C 152.36 236.4 152 236.22 152 236 C 152 235.78 151.64 235.6 151.2 235.6 C 150.76 235.6 150.4 235.42 150.4 235.2 C 150.4 234.98 150.04 234.8 149.6 234.8 C 149.16 234.8 148.8 234.62 148.8 234.4 C 148.8 234.18 148.44 234 148 234 C 147.56 234 147.2 233.82 147.2 233.6 C 147.2 233.38 146.84 233.2 146.4 233.2 C 145.96 233.2 145.6 233.02 145.6 232.8 C 145.6 232.58 145.24 232.4 144.8 232.4 C 144.36 232.4 144 232.22 144 232 C 144 231.78 143.64 231.6 143.2 231.6 C 142.76 231.6 142.399 231.465 142.399 231.3 C 142.398 231.135 141.408 230.55 140.2 230 L 138.003 229 L 138.001 219.653 L 138 210.307 L 133.937 206.274 C 127.947 208.037 129.713 206.078 124.305 206.892 C 115.427 208.229 122.247 205.705 120.981 205.355 C 119.715 205.005 114.541 207.221 114.046 207.107 L 111.2 210.307 L 111.2 224.93 C 111.2 234.247 111.345 239.642 111.6 239.8 C 111.82 239.936 112 240.577 112 241.224 C 112 241.871 112.18 242.4 112.4 242.4 C 112.62 242.4 112.8 242.76 112.8 243.2 C 112.8 243.64 112.98 244 113.2 244 C 113.42 244 113.6 244.275 113.6 244.611 C 113.6 245.404 116.996 248.8 117.789 248.8 C 118.125 248.8 118.4 248.98 118.4 249.2 C 118.4 249.42 118.76 249.6 119.2 249.6 C 119.64 249.6 120 249.78 120 250 C 120 250.22 120.36 250.4 120.8 250.4 C 121.24 250.4 121.6 250.58 121.6 250.8 C 121.6 251.02 121.96 251.2 122.4 251.2 C 122.84 251.2 123.2 251.38 123.2 251.6 C 123.2 251.82 123.545 252 123.967 252 C 124.388 252 124.793 252.141 124.867 252.312 C 125.072 252.793 137.338 258.8 138.115 258.8 C 138.492 258.8 138.8 258.98 138.8 259.2 C 138.8 259.42 139.16 259.6 139.6 259.6 C 140.04 259.6 140.4 259.78 140.4 260 C 140.4 260.22 140.76 260.4 141.2 260.4 C 141.64 260.4 142 260.58 142 260.8 C 142 261.02 142.27 261.2 142.6 261.2 C 142.93 261.2 143.2 261.38 143.2 261.6 C 143.2 261.82 143.56 262 144 262 C 144.44 262 144.8 262.18 144.8 262.4 C 144.8 262.62 145.16 262.8 145.6 262.8 C 146.04 262.8 146.4 262.98 146.4 263.2 C 146.4 263.42 146.76 263.6 147.2 263.6 C 147.64 263.6 148 263.78 148 264 C 148 264.22 148.36 264.4 148.8 264.4 C 149.24 264.4 149.6 264.58 149.6 264.8 C 149.6 265.02 149.96 265.2 150.4 265.2 C 150.84 265.2 151.2 265.38 151.2 265.6 C 151.2 265.82 151.56 266 152 266 C 152.44 266 152.8 266.18 152.8 266.4 C 152.8 266.62 153.16 266.8 153.6 266.8 C 154.04 266.8 154.4 266.98 154.4 267.2 C 154.4 267.42 154.76 267.6 155.2 267.6 C 155.64 267.6 156 267.78 156 268 C 156 268.22 156.36 268.4 156.8 268.4 C 157.24 268.4 157.6 268.58 157.6 268.8 C 157.6 269.02 157.945 269.2 158.367 269.2 C 158.788 269.2 159.193 269.341 159.267 269.512 C 159.471 269.991 170.141 275.2 170.917 275.2 C 171.293 275.2 171.6 275.38 171.6 275.6 C 171.6 275.82 171.96 276 172.4 276 C 172.84 276 173.2 276.18 173.2 276.4 C 173.2 276.62 173.56 276.8 174 276.8 C 174.44 276.8 174.8 276.946 174.8 277.125 C 174.8 277.304 175.43 277.698 176.2 278 C 176.97 278.302 177.6 278.696 177.6 278.875 C 177.6 279.054 177.96 279.2 178.4 279.2 C 178.84 279.2 179.2 279.38 179.2 279.6 C 179.2 279.82 179.56 280 180 280 C 180.44 280 180.8 280.18 180.8 280.4 C 180.8 280.62 181.16 280.8 181.6 280.8 C 182.04 280.8 182.4 280.98 182.4 281.2 C 182.4 281.42 182.76 281.6 183.2 281.6 C 183.64 281.6 184 281.78 184 282 C 184 282.22 184.283 282.4 184.629 282.4 C 186.264 282.4 186.4 283.165 186.4 292.342 C 186.4 301.875 186.418 303.293 188.6 302.507 C 192.825 300.986 204.887 300.591 211.776 302.161 C 212.304 302.282 212.612 298.059 212.703 273.5 C 212.804 245.933 212.815 245.6 213.603 245.6 C 214.041 245.6 214.4 245.42 214.4 245.2 C 214.4 244.98 214.76 244.8 215.2 244.8 C 215.64 244.8 216 244.62 216 244.4 C 216 244.18 216.36 244 216.8 244 C 217.24 244 217.6 243.82 217.6 243.6 C 217.6 243.38 217.96 243.2 218.4 243.2 C 218.84 243.2 219.2 243.064 219.2 242.898 C 219.2 242.731 219.785 242.346 220.5 242.041 C 223.628 240.708 239.013 233.014 239.133 232.722 C 239.207 232.545 239.612 232.4 240.033 232.4 C 240.455 232.4 240.8 232.22 240.8 232 C 240.8 231.78 241.16 231.6 241.6 231.6 C 242.04 231.6 242.4 231.42 242.4 231.2 C 242.4 230.98 242.76 230.8 243.2 230.8 C 243.64 230.8 244 230.62 244 230.4 C 244 230.18 244.36 230 244.8 230 C 245.24 230 245.6 229.82 245.6 229.6 C 245.6 229.38 245.96 229.2 246.4 229.2 C 246.84 229.2 247.2 229.02 247.2 228.8 C 247.2 228.58 247.56 228.4 248 228.4 C 248.44 228.4 248.8 228.22 248.8 228 C 248.8 227.78 249.16 227.6 249.6 227.6 C 250.04 227.6 250.4 227.42 250.4 227.2 C 250.4 226.98 250.76 226.8 251.2 226.8 C 251.64 226.8 252 226.62 252 226.4 C 252 226.18 252.36 226 252.8 226 C 253.24 226 253.6 225.82 253.6 225.6 C 253.6 225.38 253.798 225.2 254.041 225.2 C 254.659 225.2 271.77 216.705 271.933 216.318 C 272.007 216.143 272.412 216 272.833 216 C 273.255 216 273.6 215.82 273.6 215.6 C 273.6 215.38 273.96 215.2 274.4 215.2 C 274.84 215.2 275.2 215.02 275.2 214.8 C 275.2 214.58 275.56 214.4 276 214.4 C 276.44 214.4 276.8 214.22 276.8 214 C 276.8 213.78 277.16 213.6 277.6 213.6 C 278.04 213.6 278.4 213.42 278.4 213.2 C 278.4 212.98 278.76 212.8 279.2 212.8 C 279.64 212.8 280 212.62 280 212.4 C 280 212.18 280.32 212 280.712 212 C 281.103 212 281.683 211.64 282 211.2 C 282.317 210.76 282.815 210.4 283.106 210.4 C 283.673 210.4 285.594 208.648 285.609 208.118 C 285.614 207.943 285.97 207.35 286.4 206.8 C 286.83 206.25 287.186 205.485 287.191 205.1 C 287.196 204.715 287.38 204.4 287.6 204.4 C 287.859 204.4 288 199.267 288 189.8 L 288 175.2 L 274.6 172.731 L 261.2 175.2 L 261.2 183.6 C 261.2 190.8 261.114 192 260.6 192 C 260.27 192 260 192.18 260 192.4 C 260 192.62 259.865 192.757 259.7 192.704 C 259.535 192.651 256.97 193.803 254 195.264 C 251.03 196.724 248.015 198.161 247.3 198.457 C 246.585 198.753 246 199.131 246 199.298 C 246 199.464 245.64 199.6 245.2 199.6 C 244.76 199.6 244.4 199.78 244.4 200 C 244.4 200.22 244.04 200.4 243.6 200.4 C 243.16 200.4 242.8 200.58 242.8 200.8 C 242.8 201.02 242.44 201.2 242 201.2 C 241.56 201.2 241.2 201.38 241.2 201.6 C 241.2 201.82 240.84 202 240.4 202 C 239.96 202 239.6 202.18 239.6 202.4 C 239.6 202.62 239.24 202.8 238.8 202.8 C 238.36 202.8 238 202.98 238 203.2 C 238 203.42 237.64 203.6 237.2 203.6 C 236.76 203.6 236.4 203.78 236.4 204 C 236.4 204.22 236.055 204.4 235.633 204.4 C 235.212 204.4 234.807 204.536 234.733 204.702 C 234.66 204.868 233.34 205.632 231.8 206.4 C 230.26 207.168 228.94 207.932 228.867 208.098 C 228.793 208.264 228.49 208.4 228.193 208.4 C 227.424 208.4 213.441 215.29 213.2 215.787 C 213.09 216.014 212.91 184.43 212.8 145.6 L 212.6 75 L 200.2 74.944 C 193.38 74.913 187.485 74.971 187.1 75.073 M 235.775 386.1 L 234.6 387.4 L 235.9 386.225 C 236.615 385.579 237.2 384.994 237.2 384.925 C 237.2 384.616 236.87 384.888 235.775 386.1" stroke="none" fill="#044cac" fill-rule="evenodd"/>
    <path id="path1" d="M 193.6 0.685 C 192.159 1.412 188 5.309 188 5.932 C 188 6.124 149.6 57.818 149.6 58.972 C 149.6 59.511 149.42 60.064 149.2 60.2 C 148.98 60.336 148.8 61.236 148.8 62.2 C 148.8 63.164 148.899 63.415 149.119 64.281 C 149.339 65.147 149.032 65.137 149.519 65.881 C 150.006 66.625 149.78 67.264 150 67.4 C 150.22 67.536 150.4 67.905 150.4 68.219 C 150.4 69.499 153.929 73.04 156.561 74.4 C 157.977 75.132 242.596 75.327 243.115 74.599 C 243.272 74.379 243.85 73.967 244.4 73.684 C 245.561 73.086 248 71.017 248 70.631 C 248 70.485 248.36 69.98 248.8 69.508 C 249.24 69.036 249.6 68.233 249.6 67.725 C 249.6 67.216 249.78 66.8 250 66.8 C 250.243 66.8 250.4 65 250.4 62.2 C 250.4 59.4 250.243 57.6 250 57.6 C 249.78 57.6 249.6 57.24 249.6 56.8 C 249.6 56.36 249.42 56 249.2 56 C 248.98 56 248.8 55.712 248.8 55.36 C 248.8 55.009 248.26 54.217 247.6 53.6 C 246.94 52.983 246.4 52.263 246.4 52 C 246.4 51.737 245.86 51.017 245.2 50.4 C 244.54 49.783 212.603 3.37 206.3 0.7 C 205.445 0.338 195.342 -0.194 193.6 0.685 M 193.183 300.15 C 192.785 300.548 188.204 301.221 186.1 301.19 C 184.879 301.172 184 301.335 184 301.579 C 184 301.811 183.638 302 183.195 302 C 182.417 302 182.031 302.142 180.105 303.138 C 179.613 303.392 178.938 303.6 178.605 303.6 C 178.272 303.6 178 303.78 178 304 C 178 304.22 177.64 304.4 177.2 304.4 C 176.76 304.4 176.4 304.58 176.4 304.8 C 176.4 305.02 176.164 305.2 175.875 305.2 C 175.587 305.2 174.964 305.56 174.492 306 C 174.02 306.44 173.356 306.8 173.017 306.8 C 172.678 306.8 172.4 306.95 172.4 307.132 C 172.4 307.315 171.905 307.72 171.3 308.032 C 170.695 308.345 169.997 308.78 169.749 309 C 169.501 309.22 168.871 309.67 168.349 310 C 167.131 310.77 159.6 318.292 159.6 318.738 C 159.6 318.924 159.15 319.599 158.6 320.238 C 158.051 320.877 157.601 321.625 157.6 321.9 C 157.6 322.175 157.42 322.4 157.2 322.4 C 156.98 322.4 156.8 322.72 156.8 323.112 C 156.8 323.503 156.44 324.083 156 324.4 C 155.56 324.717 155.2 325.297 155.2 325.688 C 155.2 326.08 155.02 326.4 154.8 326.4 C 154.58 326.4 154.4 326.76 154.4 327.2 C 154.4 327.64 154.22 328 154 328 C 153.78 328 153.6 328.349 153.6 328.776 C 153.6 329.203 153.42 329.664 153.2 329.8 C 152.98 329.936 152.8 330.397 152.8 330.824 C 152.8 331.251 152.62 331.6 152.4 331.6 C 152.18 331.6 152 332.14 152 332.8 C 152 333.46 151.82 334 151.6 334 C 151.38 334 151.2 334.54 151.2 335.2 C 151.2 335.86 151.038 336.4 150.84 336.4 C 150.449 336.4 150.081 338.626 149.75 343 C 149.633 344.54 149.372 345.971 149.169 346.18 C 148.966 346.389 148.8 348.108 148.8 350 C 148.8 351.892 148.966 353.611 149.169 353.82 C 149.372 354.029 149.631 355.46 149.745 357 C 150.033 360.893 150.421 363.166 150.842 363.426 C 151.039 363.548 151.2 364.177 151.2 364.824 C 151.2 365.471 151.38 366 151.6 366 C 151.82 366 152 366.54 152 367.2 C 152 367.86 152.18 368.4 152.4 368.4 C 152.62 368.4 152.8 368.749 152.8 369.176 C 152.8 369.603 152.98 370.064 153.2 370.2 C 153.42 370.336 153.6 370.797 153.6 371.224 C 153.6 371.651 153.78 372 154 372 C 154.22 372 154.4 372.36 154.4 372.8 C 154.4 373.24 154.58 373.6 154.8 373.6 C 155.02 373.6 155.2 373.836 155.2 374.125 C 155.2 374.413 155.56 375.036 156 375.508 C 156.44 375.98 156.8 376.604 156.8 376.895 C 156.8 377.186 157.16 377.683 157.6 378 C 158.04 378.317 158.4 378.897 158.4 379.288 C 158.4 379.68 158.535 380.001 158.7 380.003 C 158.865 380.004 159.45 380.674 160 381.491 C 162.196 384.754 169.583 391.6 170.908 391.6 C 171.191 391.6 171.683 391.96 172 392.4 C 172.317 392.84 172.897 393.2 173.288 393.2 C 173.68 393.2 174 393.38 174 393.6 C 174 393.82 174.36 394 174.8 394 C 175.24 394 175.6 394.147 175.6 394.326 C 175.6 394.735 178.681 396.4 179.438 396.4 C 179.747 396.4 180 396.58 180 396.8 C 180 397.02 180.45 397.2 181 397.2 C 181.55 397.2 182 397.38 182 397.6 C 182 397.82 182.439 398 182.976 398 C 183.513 398 184.064 398.18 184.2 398.4 C 184.336 398.62 185.052 398.8 185.79 398.8 C 186.529 398.8 187.208 399.025 187.3 399.3 C 187.428 399.685 190.272 399.8 199.713 399.8 C 208.977 399.8 212.082 399.678 212.46 399.3 C 212.735 399.025 213.464 398.8 214.08 398.8 C 214.696 398.8 215.2 398.62 215.2 398.4 C 215.2 398.18 215.74 398 216.4 398 C 217.06 398 217.6 397.82 217.6 397.6 C 217.6 397.38 218.039 397.2 218.576 397.2 C 219.113 397.2 219.664 397.02 219.8 396.8 C 219.936 396.58 220.382 396.4 220.79 396.4 C 221.199 396.4 221.593 396.265 221.667 396.1 C 221.74 395.935 222.7 395.35 223.8 394.801 C 224.9 394.251 226.149 393.486 226.575 393.101 C 227.002 392.715 227.587 392.4 227.875 392.4 C 228.164 392.4 228.4 392.242 228.4 392.049 C 228.4 391.855 228.985 391.456 229.7 391.162 C 231.378 390.471 240.463 381.379 241.162 379.691 C 241.456 378.981 241.855 378.4 242.049 378.4 C 242.242 378.4 242.4 378.08 242.4 377.688 C 242.4 377.297 242.76 376.717 243.2 376.4 C 243.64 376.083 244 375.518 244 375.145 C 244 374.772 244.135 374.407 244.3 374.333 C 244.732 374.141 246.4 370.828 246.4 370.162 C 246.4 369.853 246.58 369.6 246.8 369.6 C 247.02 369.6 247.2 369.15 247.2 368.6 C 247.2 368.05 247.38 367.6 247.6 367.6 C 247.82 367.6 248 367.06 248 366.4 C 248 365.74 248.18 365.2 248.4 365.2 C 248.62 365.2 248.8 364.48 248.8 363.6 C 248.8 362.72 248.98 362 249.2 362 C 249.42 362 249.6 361.226 249.6 360.28 C 249.6 359.334 249.787 358.373 250.016 358.144 C 250.865 357.295 250.085 338.8 249.159 337.82 C 248.962 337.611 248.8 336.846 248.8 336.12 C 248.8 335.394 248.62 334.8 248.4 334.8 C 248.18 334.8 248 334.26 248 333.6 C 248 332.94 247.82 332.4 247.6 332.4 C 247.38 332.4 247.2 331.95 247.2 331.4 C 247.2 330.85 247.02 330.4 246.8 330.4 C 246.58 330.4 246.4 329.95 246.4 329.4 C 246.4 328.85 246.254 328.4 246.075 328.4 C 245.896 328.4 245.502 327.77 245.2 327 C 244.898 326.23 244.504 325.6 244.325 325.6 C 244.146 325.6 244 325.24 244 324.8 C 244 324.36 243.85 324 243.668 324 C 243.485 324 243.08 323.505 242.768 322.9 C 242.456 322.295 242.092 321.71 241.959 321.6 C 241.825 321.49 241.465 320.918 241.158 320.329 C 239.62 317.377 232.673 310.416 229.703 308.851 C 229.13 308.549 228.298 307.964 227.855 307.551 C 227.412 307.138 226.813 306.8 226.525 306.8 C 226.236 306.8 226 306.654 226 306.475 C 226 306.296 225.37 305.902 224.6 305.6 C 223.83 305.298 223.2 304.904 223.2 304.725 C 223.2 304.546 222.84 304.4 222.4 304.4 C 221.96 304.4 221.6 304.22 221.6 304 C 221.6 303.78 221.24 303.6 220.8 303.6 C 220.36 303.6 220 303.42 220 303.2 C 220 302.98 219.638 302.8 219.195 302.8 C 218.752 302.8 218.032 302.62 217.595 302.4 C 217.158 302.18 216.43 301.812 215.978 301.583 C 215.526 301.353 214.401 301.187 213.478 301.214 C 212.555 301.24 210.81 301.048 209.6 300.787 C 207.35 300.302 193.567 299.767 193.183 300.15" stroke="none" fill="#248cfc" fill-rule="evenodd"/>
    <path id="path2" d="M 247.785 99.175 C 247.572 99.388 246.735 99.606 245.925 99.661 C 245.115 99.715 244.541 99.904 244.649 100.08 C 244.758 100.256 244.477 100.4 244.024 100.4 C 243.571 100.4 243.2 100.58 243.2 100.8 C 243.2 101.02 243.015 101.2 242.789 101.2 C 242.143 101.2 238.8 104.711 238.8 105.389 C 238.8 105.725 238.62 106 238.4 106 C 238.18 106 238 106.36 238 106.8 C 238 107.24 237.82 107.6 237.6 107.6 C 237.38 107.6 237.2 108.219 237.2 108.976 C 237.2 109.733 237.02 110.464 236.8 110.6 C 236.54 110.761 236.4 120.145 236.4 137.447 C 236.4 155.079 236.535 163.964 236.8 163.8 C 237.044 163.649 237.2 164.263 237.2 165.376 C 237.2 166.379 237.38 167.2 237.6 167.2 C 237.82 167.2 238 167.526 238 167.925 C 238 168.323 238.36 169.036 238.8 169.508 C 239.24 169.98 239.6 170.554 239.6 170.783 C 239.6 171.012 239.78 171.2 240 171.2 C 240.22 171.2 240.4 171.481 240.4 171.824 C 240.4 172.167 240.574 172.34 240.787 172.208 C 241 172.077 241.403 172.336 241.683 172.784 C 241.963 173.233 242.45 173.6 242.765 173.6 C 243.079 173.6 243.685 173.915 244.11 174.3 C 244.965 175.073 303.256 175.479 304.258 174.719 C 304.51 174.528 304.87 174.418 305.058 174.475 C 305.529 174.617 309.2 172.406 309.2 171.98 C 309.2 171.791 309.605 171.213 310.1 170.696 C 311.237 169.509 312 168.186 312 167.405 C 312 167.072 312.18 166.8 312.4 166.8 C 312.663 166.8 312.8 156.667 312.8 137.2 C 312.8 117.733 312.663 107.6 312.4 107.6 C 312.18 107.6 312 107.24 312 106.8 C 312 106.36 311.82 106 311.6 106 C 311.38 106 311.2 105.712 311.2 105.36 C 311.2 103.85 306.181 100.172 303 99.353 C 301.179 98.883 248.247 98.713 247.785 99.175 M 121.6 136.735 C 121.6 136.953 120.475 137.225 119.1 137.338 C 115.704 137.618 113.637 138.017 113.373 138.444 C 113.252 138.64 112.801 138.8 112.371 138.8 C 111.941 138.8 111.277 138.968 110.895 139.174 C 110.513 139.379 109.615 139.783 108.9 140.071 C 108.185 140.36 107.6 140.731 107.6 140.898 C 107.6 141.064 107.24 141.2 106.8 141.2 C 106.36 141.2 106 141.366 106 141.568 C 106 141.771 105.46 142.055 104.8 142.2 C 104.14 142.345 103.6 142.629 103.6 142.832 C 103.6 143.034 103.428 143.2 103.217 143.2 C 103.007 143.2 102.062 143.918 101.117 144.795 C 100.173 145.672 99.279 146.392 99.131 146.395 C 98.803 146.401 96.396 148.773 96.515 148.973 C 96.562 149.051 95.833 149.958 94.895 150.988 C 93.958 152.019 93.293 153.028 93.419 153.231 C 93.545 153.434 93.356 153.6 93 153.6 C 92.644 153.6 92.464 153.78 92.6 154 C 92.736 154.22 92.657 154.4 92.424 154.4 C 92.191 154.4 92 154.76 92 155.2 C 92 155.64 91.82 156 91.6 156 C 91.38 156 91.2 156.36 91.2 156.8 C 91.2 157.24 91.065 157.601 90.9 157.603 C 90.541 157.607 89.6 159.544 89.6 160.28 C 89.6 160.566 89.42 160.8 89.2 160.8 C 88.98 160.8 88.8 161.34 88.8 162 C 88.8 162.66 88.62 163.2 88.4 163.2 C 88.18 163.2 88 163.83 88 164.6 C 88 165.37 87.82 166 87.6 166 C 87.374 166 87.2 167.133 87.2 168.6 C 87.2 170.067 87.026 171.2 86.8 171.2 C 86.562 171.2 86.4 172.725 86.4 174.976 C 86.4 177.063 86.579 178.863 86.8 179 C 87.02 179.136 87.2 180.126 87.2 181.2 C 87.2 182.274 87.38 183.264 87.6 183.4 C 87.82 183.536 88 184.267 88 185.024 C 88 185.781 88.18 186.4 88.4 186.4 C 88.62 186.4 88.8 186.839 88.8 187.376 C 88.8 187.913 88.98 188.464 89.2 188.6 C 89.42 188.736 89.6 189.272 89.6 189.79 C 89.6 190.309 89.742 190.793 89.914 190.867 C 90.087 190.94 90.824 192.207 91.552 193.682 C 92.28 195.157 93.128 196.575 93.438 196.831 C 93.747 197.088 94 197.508 94 197.764 C 94 198.5 100.282 204.683 102.026 205.663 C 102.892 206.149 103.6 206.694 103.6 206.874 C 103.6 207.053 103.848 207.2 104.151 207.2 C 104.454 207.2 104.922 207.465 105.191 207.789 C 105.46 208.114 106.292 208.494 107.04 208.634 C 107.788 208.774 108.4 209.049 108.4 209.245 C 108.4 209.44 108.67 209.6 109 209.6 C 109.33 209.6 109.6 209.775 109.6 209.989 C 109.6 210.203 110.545 210.353 111.7 210.324 C 112.855 210.294 114.52 210.498 115.4 210.778 C 120.29 212.332 132.268 210.87 135.855 210.338 C 139.663 209.773 137.028 210.091 137.905 210.231 C 138.905 210.391 139.602 210.321 139.773 210.043 C 139.924 209.799 140.397 209.6 140.824 209.6 C 141.251 209.6 141.6 209.434 141.6 209.232 C 141.6 209.029 142.14 208.745 142.8 208.6 C 143.46 208.455 144 208.203 144 208.039 C 144 207.876 144.827 207.329 145.838 206.824 C 147.796 205.846 149.479 204.467 152.146 201.657 C 155.341 198.289 155.82 197.714 156.299 196.661 C 156.565 196.078 156.977 195.6 157.215 195.6 C 157.453 195.6 157.545 195.435 157.42 195.232 C 157.295 195.03 157.455 194.602 157.777 194.281 C 158.098 193.959 158.479 193.225 158.624 192.648 C 158.768 192.072 159.047 191.6 159.243 191.6 C 159.44 191.6 159.6 191.251 159.6 190.824 C 159.6 190.397 159.78 189.936 160 189.8 C 160.22 189.664 160.4 189.113 160.4 188.576 C 160.4 188.039 160.58 187.6 160.8 187.6 C 161.02 187.6 161.2 187.071 161.2 186.424 C 161.2 185.777 161.38 185.136 161.6 185 C 161.82 184.864 162 184.144 162 183.4 C 162 182.656 162.18 181.936 162.4 181.8 C 162.639 181.652 162.8 179.004 162.8 175.2 C 162.8 171.396 162.639 168.748 162.4 168.6 C 162.18 168.464 162 167.453 162 166.353 C 162 165.121 161.846 164.448 161.6 164.6 C 161.362 164.747 161.2 164.271 161.2 163.424 C 161.2 162.641 161.02 162 160.8 162 C 160.58 162 160.4 161.55 160.4 161 C 160.4 160.45 160.22 160 160 160 C 159.78 160 159.6 159.64 159.6 159.2 C 159.6 158.76 159.42 158.4 159.2 158.4 C 158.98 158.4 158.8 158.166 158.8 157.88 C 158.8 157.144 157.859 155.207 157.5 155.203 C 157.335 155.201 157.2 154.917 157.2 154.571 C 157.2 154.226 156.975 153.708 156.7 153.42 C 156.425 153.133 155.93 152.488 155.6 151.987 C 154.531 150.363 151.832 147.369 150.539 146.372 C 149.846 145.837 149.38 145.22 149.503 145 C 149.627 144.78 149.584 144.73 149.408 144.889 C 149.232 145.048 148.427 144.655 147.618 144.015 C 146.81 143.374 145.665 142.63 145.074 142.361 C 144.483 142.092 144 141.72 144 141.536 C 144 141.351 143.747 141.2 143.438 141.2 C 142.953 141.2 141.68 140.648 138.705 139.15 C 138.323 138.957 137.659 138.8 137.229 138.8 C 136.799 138.8 136.336 138.62 136.2 138.4 C 136.064 138.18 135.459 138 134.856 138 C 134.253 138 133.589 137.835 133.38 137.634 C 132.704 136.982 121.6 136.136 121.6 136.735" stroke="none" fill="#9bcbfc" fill-rule="evenodd"/>
  </g>
</svg>